<svg xmlns="http://www.w3.org/2000/svg" xml:space="preserve" viewBox="0 0 354.1 422.9"><path fill="#fff" stroke="#000" stroke-miterlimit="10" stroke-width="3" d="M1.7 2.3v148.5c0 49.5-3.6 101.7 7.1 141.7 10.1 37.9 32.1 67.9 59 89.8 13.5 11 28.5 20.3 47 27.2 18.2 6.8 38.9 12.2 62.6 12 47.2-.4 83-17.8 109.6-39.2 27-21.7 48.6-52.5 58.4-90.5 10.3-40.2 7.1-92 7.1-141.7V1.3H2z"/><path fill="#e64625" d="M343.6 177.6C326 151.8 310 124.4 296 96.2l-1.5-3.1 3 1.8c2.6 1.6 5.1 3.6 7.7 5.8 6.2 5.1 13.3 10.9 22.8 10.9h.2c4.9 0 9-1.5 12.2-4.5C323 95 309.2 82.8 299.5 70.9l-2-2.5 3.1.9c5 1.4 10.2 2.2 15 2.2.8 0 1.7 0 2.5-.1 5.8-.3 10.9-1.8 14.7-4.2 4.3-2.7 6.9-6.5 8-11.2-11.87-1.755-32.657-5.672-38.23-7.269-3.146-.901-7.273-1.444-9.47-3.131l-1.7-1.4 2.2-.4c7.8-1.3 15.7-3.1 21.4-6.8 5.8-3.9 8.8-9.6 9-17.4-11 3-23.3 3.9-36.3 4.5h-.7l-5.7.3h-.5l-2.2.1c-2.3.1-4.6.1-6.9.2-5.2.1-10.6.2-15.3 1-5.1.8-8.7 2.4-11.1 4.8-3.1 3-5.1 8.2-5.6 14.1-.6 8.1 2.9 12.6 6.6 16.6.5.5 1.5 1.3 2.5 2.3 2.9 2.5 4.465 3.865 4.865 4.965 1.2 3.9.035 10.435-.665 12.935-.6 2.1-1.5 3.7-2.4 5.3-.7 1.3-1.4 2.5-1.8 3.8l-.1.2-.2.2c-3 3.3-7.9 4.7-12.5 6-1.4.4-2.7.8-4 1.2-.5 1.8-.3 3.2.6 4 .7.7 2 1.1 3.6 1.1 1.4 0 3.1-.3 4.5-.9 3.1-1.2 8.8-5.5 11-8.8 3.7-5.4 5.468-12.431 4.968-22.331L256.3 69.2l1.4.5.9.3c1.3.4 2.7.8 3.4 2.1l.1.2v.2c.6 16.2-4.1 29.7-13.5 39.2-9 9.2-21.9 14-37.3 14h-1.9l-.3-.3c-.9-.8-1.5-1.7-2.1-2.5-.8-1.1-1.6-2.2-3-3.3-.8-.6-1.8-1-2.8-1.4-2.6-1.1-5.6-2.3-4.5-7.4v-.2l.1-.1c1.2-1.9 3.1-3 5.7-3.1-3.6-6.1-.1-15.7 2.8-19.7l.5-.6.7.3.5.2c1.5.6 3.4 1.4 5 1.4.7 0 1.4-.2 1.9-.5-.2-.7-.6-1.3-1.1-2.1-.7-1.1-1.5-2.3-1.7-4-.6-4.2.9-8.6 2.3-12.9 1.1-3.5 2.3-7.1 2.3-10.4v-.7l.7-.2c1-.3 2.2-.4 3.3-.4.4 0 .8 0 1.2-.1-4.2-3.5-5.6-10-7.1-16.7-1.7-7.9-3.5-16-10.1-18.5l-1.4-.5 1-1.1c.3-.3.6-.6 1-.9-1.2.2-2.4.3-3.7.3-3.7 0-7.7-.7-11.5-1.4-3.9-.7-7.6-1.3-10.9-1.3-3.5 0-6.1.7-8.2 2.2-.5.4-1.152.738-1.552 1.338-.5.8-.748 1.862-2.148 2.662l-.2.1v.2c.7 4.4 4.2 5.6 8.6 7.1 1.5.5 3.1 1 4.7 1.8 1.7.8 3.3 1.9 4.7 3.2l2.8 2.7-3.8-1c-.9-.2-1.7-.4-2.6-.5.7.2 1.3.4 2 .7 4 1.9 6.2 5.5 5.8 9.8l-.1 1c.2.1.5.1.7.2l.8.2v2.2l-1.1-.1-4.8-.3q1.95.3 3.6.9l.7.3-.1.8c-.4 3.2-2.8 4.2-5 4.6.7 0 1.5.1 2.2.1h1l2.1-.1-1.2 1.7c-1.9 2.6-4.4 3.9-7.4 3.9h-.1c-.6 0-1.3 0-1.9-.1 1.3.5 2.5 1 3.6 1.7l.2.1.1.2c1 1.8 1.3 3.5.7 5-1.3 3.7-10.965 6.757-14.865 8.257-5.59 2.283-7.557 3.621-10.635 7.743 1.3-.8 2.8-1.5 4.5-2s3.3-.8 4.9-.8c2.2 0 4.2.5 5.9 1.6l.9.6-.6.9c-1.3 1.9-2.8 3.4-4.3 4.9-1.2 1.2-2.5 2.5-3.5 3.9-1.1 1.4-2 2.8-2.8 4.1-2.3 3.5-4.3 6.7-8.4 8.3 1.4.3 2.7.7 3.6 1.7l.6.6-.5.7c-.7.9-.8 2.6-.9 4.2-.2 1.9-.3 3.8-1.3 5.2l-.4.6-.7-.2c-.9-.3-1.8-.4-2.6-.4-2.9 0-5.1 1.7-7.1 3.4-1.9 1.5-3.264 2.631-5.664 2.731-13.796.236-29.463-6.66-38.636-13.931C88.03 97.561 83.41 78.864 86 73.6c2.339-1.582 3.506-2.06 6.1-1.8-.482 8.013.82 17.562 4.8 23.2 4.1 5.5 10.936 8.632 18.836 9.632 1.4-1.1 2.466-3.835 1.366-6.135-4.194-1.693-9.137-1.22-12.666-3.433-7.99-5.828-11.17-15.611-10.736-24.464 5.775-7.924 12.593-11.682 13.3-20.3.4-6.4-1.376-12.858-4.876-16.858-3.5-4.1-8.724-5.742-15.524-6.342-4-.3-8.4-.5-14-.5-3.7 0-7.4.1-11 .1-3.6.1-7.3.1-10.9.1-8.9 0-19.1-.3-28-2.7.1 3.3.7 6.2 1.9 8.7 1.2 2.6 2.9 4.8 5.2 6.7 4 3.2 9.6 5.4 17.3 6.5.5.1.9.1 1.5.1 1.8.1 3.7.3 5.2 1.7l1.1 1.1-1.4.6c-12.4 5-26.5 8.6-43.3 11 .6 5.2 3 9 6.9 11.6 3.5 2.3 8.3 3.4 13.9 3.4h.3c5.2 0 10.8-1.1 16.2-3l3-1-1.8 2.6C42.4 83 34.4 90.4 26.6 97.6c-5.1 4.7-10.4 9.6-15.1 14.9 2.7 2.1 5.7 3.2 8.8 3.4h1.1c2.7 0 5.6-.7 8.6-2 6.4-2.8 12.6-8 17.5-12.2 1.3-1.1 2.5-2.2 3.7-3.1l3.2-2.6-1.6 3.8c-7.7 17.8-16.8 34.7-25.5 51.1-5.7 10.5-11.5 21.4-16.9 32.5.6.1 1.2.1 1.8.1q4.05 0 8.4-2.4c3.5-1.9 6.6-4.7 9.3-7.1 8.5-8 15.6-18.1 22.5-28 4.3-6.1 9.907-14.042 14.107-19.142l.663 2.07c-6.1 9.8-10.97 21.172-13.87 32.972-2.3 9.4-3.6 19.2-5.1 29.7-.5 3.4-.9 6.9-1.5 10.4-2.5 17-8.5 31.8-14.3 46.2-3.2 7.8-6.1 15.3-8.6 22.9 3.942-.079 8.228-.716 11.6-2.6 4.1-2.3 8-6.3 11.7-11.9 1.577-4.176 8.067-15.187 9.5-17.9.1-.4.2-.8.4-1.1 6.2-13.9 11-29.1 15.5-43.9v-.1c1.2-3.9 2.4-7.8 3.7-11.7.3-1.1.7-2.2 1-3.3 1.8-5.7 3.6-11.6 6.1-16.8l1.8-3.9.1 4.3c.7 42.3-4.6 80.9-9.9 113.3 17.1-1.9 23.5-15.3 28.6-29 3.9-10.4 6.6-20.3 8.3-30.4 2.824-15.37 1.086-26.158 3.208-40.231l.492 5.631c2.1 5.6 2.7 13.1 3.4 21.7.984 9.789 2.755 26.073 9.1 27.5 9.794-.88 10.074-27.86 10.336-34 .3-7.5.667-15.165 1.364-22.2l.9-4.9 1 4.8c1.1 5.1 1.5 9.5 2 13.8.4 3.8.8 7.6 1.6 11.8.2.9.4 1.8.5 2.7 1.1 5.2 2.1 10.6 1.8 16.2-1.922 11.82-3.499 17.503-12.335 29.665-3 3.6-5.665 7.535-3.265 12.935a295 295 0 0 1 10.8 6.3c6.204 2.862 8.722-.726 10.4-5.3.8-2.2 1.1-4.7 1.4-7.2.558-3.764 1.76-11.829 6.168-12.07 4.402 1.905 3.906 10.18 4.032 13.67v1c.3 7.1-.8 16.9-3.4 21.1-3.1 4.8-9.3 5.3-15.4 5.8-3.7.3-7.2.5-9.8 1.8-4.63 4.094-4.83 10.51-8.3 15.464 3.486.774 6.64-1.804 9.37-2.266l3.745-.401c8.436 2.372 13.577-.259 21.285-2.397l-.6 1.9c-2.3 7.1-4.1 12.7-8.7 17.2-7.2 7.2-19 8.6-30.5 10-10 1.2-20.4 2.5-27 7.7-3.8 3-7 8.2-8.6 13.9-1.8 6.5-1.3 13.2 1.3 18.9 2.4 4.2 7.1 7.431 12.2 9.331 4.59 1.588 9.008 2.265 13.4 1.069-7.49-2.938-16.264-7.833-18.264-16.533-1.3-5.8-.636-11.867 3.164-16.867 4.88-5.768 12.73-10.988 17.903-9.168-1.526 4.116-5.47 7.617-8.103 10.068-4.6 4.2-9 8.1-7.7 15.2 3.417 6.217 10.389-6.806 16.631-9.668 5.2-3.7 11.066-6.5 16.866-9.2 7-3.3 14.303-6.132 19.403-10.632 5-4.3 9.1-10.1 12.1-14.6l2.5-3.8-.7 4.5c-1.6 10-3.6 17-6.3 21.9-3.2 6-10.403 6.864-17.303 8.564-4 1-7.664 2.267-10.997 4.736-1.782 2.782.37 5.986 1.6 8.4-3.694 4.41-8.942 7.467-13.3 9.7 4.1-.5 8.1-1.3 11.8-2.5 4.7-1.5 9.2-3.5 13.3-6.2 7.2-4.5 13.6-10.7 19.5-19 1.633-2.336 3.124-5.233 5.1-6.7l1.7-1.2-.1 2.1c-.2 3.4-.3 6.8-.4 10-.2 8-.4 15.5-2.6 23.4-1 3.8-3.2 6.7-5.2 9.5-6.148 6.599-4.144 16.6 4.238 15.866 1.97 2.467 2.51 5.404 3.962 7.734 1.2 2 2.4 4.1 3.8 5.9 2.68-4.912 4.673-9.864 7.464-13.868 6.524 1.688 10.024-4.643 8.536-9.832-.4-1.4-1.298-3.034-2.598-4.534-8.482-10.95-10.31-30.788-8.902-41.766l.3-2.5c8.264 8.884 13.897 19.038 22.2 25.4 8.3 6.3 17.6 9.6 28.4 10-5.305-2.804-9.678-6.078-13.4-9.8 1.205-1.141 2.407-2.766 2.2-4.2-.2-1.8-2.236-5.105-4.636-6.605-6.16-3.167-12.39-3.043-17.928-6.764-9.6-6.3-12.136-16.531-14.136-27.831v-.1l-.7-4.2c2.054 2.846 4.351 6.036 5.9 8.7 2.4 3.9 5.235 7.565 8.735 10.465 14.547 9.295 32.249 15.68 44.566 26.534 3.63 2.596 6.32 7.588 8.799 6.101 1.3-1.3 1.8-4.2 1.5-6.1-.6-4-3.9-6.9-7.1-9.8-2.9-2.6-5.7-5.1-6.6-8.3l-.2-2.103c17.95 3.464 21.126 14.008 21.3 23.103-.5 8.787-8.862 17.564-19.262 18.964 2.3.7 3.429 1.234 5.729 1.234 3.924-.092 8.055-.977 10.833-2.698 3.2-2.1 5.9-5.1 7.7-8.7 1.9-3.7 2.8-8 2.7-12.3-.3-9.1-2.93-16.403-9.53-21.003-6.3-4.4-14.6-6.299-22.8-7.899-8.64-3.012-19.556-2.648-27.202-5.8-4.4-1.9-8.668-4.898-12.068-10.198-2.4-3.7-5.4-9.4-6-15.7l-.2-2.2 1.8 1.2c.8.5 1.4 1.1 2 1.7.9.9 1.7 1.6 3 2.1 1.7.6 3.7.9 6.5.9h.2v-.3l.1-1v1.3c2 0 4.1-.2 6.2-.3 2.1-.2 4.3-.3 6.3-.3q2.4 0 4.2.3c1.1.2 2 .7 2.8 1.1.9.5 1.5.8 2.4.8h.4c1.9-.2 2.3-.7 2.4-.8.3-.6-.8-2.1-1.6-3.2-.4-.6-.8-1.2-1.2-1.7-.6-1.1-1.1-2.5-1.5-3.9-.5-1.4-.9-2.8-1.4-3.5-2.1-3.2-6.3-3.2-11.1-3.3-3.8-.1-7.332-.502-11.032-2.002-4-1.6-7.268-4.798-9.168-10.398-1.9-5.4-2.2-11.1-2.2-13.9 0-1.6.7-11.1 3.6-13.6.5-.5 1.1-.7 1.8-.7h.3c2 .3 3 3.2 3.7 6l.1.2c.5 2 .7 4.4.9 6.9.6 7.2 1.3 12 5.6 12.6.2-.1.3-.3.5-.9s1.003-1.803 1.503-2.303c5.808-.665 9.738-11.096 13.597-16.297-.5-2.7-.9-5.5-2-8-.6-1.4-1.7-2.7-2.7-4-.5-.6-1-1.2-1.4-1.7-4.6-6.2-7.3-15.3-7.9-26.5-.5-9.6.6-20.7 3.1-31.2l1-4.3.9 4.4c1.2 5.6 1.7 11.9 2.2 18 .6 6.4 1.1 13.1 2.4 18.9 1.798 4.97 2.554 10.674 6.964 13.164l5.836-.564c3.304-7.069 3.202-15.535 3.602-23.835.5-8.9 1.401-17.932 3.298-24.865l2.3-5.8-.4 6.3c-1.1 19.6 1.7 37.4 9.1 57.7 2.8 7.7 6.4 16.5 11.9 23.3 5.6 6.8 12.3 10.6 20.6 11.5-5-23.4-9.2-49.1-12.1-74.2-.6-5-.7-10.3-.8-15.4v-.1c0-2.8-.1-5.6-.2-8.4-.1-1.5-.2-3-.3-4.3-.3-3.6-.6-7.2 0-10.7l.6-3.6 1.3 3.4c3.6 9 6.8 18.5 10.2 28.6v.1c7.7 22.6 15.6 45.9 27.5 63.1.3.5.6.9 1 1.4 2.3 3.3 4.8 7 7 8.8 3.9 3.3 10.6 4.2 16.9 4.8-2.7-7.5-5.8-14.8-9-22.6-6.2-14.7-12.7-29.8-16-47-.7-3.7-1.4-7.3-2-10.9-1.8-10.2-3.6-19.8-6.1-28.8-3-10.9-8.4-19.8-13.6-28.4l-.2-.4c-.5-.8-1-1.7-1.5-2.6l.596-2.74c4 4.4 8.904 11.14 13.004 16.54 3.1 4.1 6.2 8.3 9.6 12.4 3.1 3.8 6.6 7.6 10 11.2l1.6 1.7.4.5c3.3 3.6 7.1 7.6 11.5 10.3 3.2 1.9 6.3 2.8 9.5 2.8 1.7-.6 3.3-.8 4.9-1.3M186.9 29.5c-.8.8-2.1 1.2-3.6 1.2-.6 0-1.6-.1-2.4-.5-1.2-.6-1.8-1.8-1.5-3.2l.2-1.2 1.1.4c.7.2 1 .7 1.3 1.1l.5.5c.4-.1.7-.3 1.1-.6.7-.4 1.5-1 2.8-1h.6l.3.6c.6.9.4 1.9-.4 2.7" style="fill:#da121a"/><path d="M204.2 21.5c13.5 4.9 8.1 30.4 19.3 36.5-1.6.9-4.7.3-6.5 1 .1 7.5-5.6 15.7-4.6 23.2.4 2.8 2.6 4.2 2.9 6.5-2.4 2.3-6.2.4-8.8-.7-3.3 4.5-6.6 15.1-1.6 20.2-3.5-.4-5.7.7-6.9 2.6-1.3 6.1 3.7 5.5 6.9 7.8 2.7 2 3.3 4.1 5.2 5.9 31.9.6 52.3-19.6 51.2-52.2-.7-1.3-2.5-1.4-3.9-2 .4 8.8-.6 17.2-4.9 23.5-2.5 3.7-8.4 7.9-11.4 9.1-4.7 1.9-12.2 1.4-9.8-5.9 5.9-2 12.8-3.1 16.6-7.2.9-3.1 3.2-5.4 4.2-9.1.8-2.9 2-8.6 1-12.1-.4-1.4-6.1-5.7-7.5-7.2-3.7-3.9-7.5-8.7-6.9-17.3.4-5.6 2.4-11.3 5.9-14.7 6.9-6.8 21.2-5.6 33.9-6.2 17-.7 32.6-1.2 46.3-5.2.1 19.4-14.9 23.6-31.3 26.4 2.6 2.2 6.4 2.9 9.8 3.9 11.4 3.3 24.8 4.9 38.5 6.5-2.9 16.6-23.3 20.3-41.8 15 11.2 13.7 26.4 26.2 41.8 36.9-3.3 3.4-7.8 5.5-13.7 5.5-13.9.1-22.4-11.5-31.3-17 14.4 29.2 30.5 56.7 48.3 82.6-12.9 4.4-21.7-5.5-28.4-12.7-4-4.3-8.1-8.6-11.7-13.1-7.9-9.6-14.8-20-21.9-27.7 5.8 9.7 12.2 19.5 15.7 32 3.4 12.4 5.5 26.1 8.2 39.8 5.1 26.4 17.6 48 25.5 70.8-6.8-.7-14.5-1.5-18.9-5.2-2.7-2.2-5.7-6.9-8.2-10.4-17.2-24.8-26.1-62.3-37.9-92-.8 4.7.1 9.9.3 15 .4 7.9.1 16.2 1 23.8 3.1 26.5 7.4 52.5 12.4 75.4-20.1-1.5-28.4-18.7-34.6-35.6-6.4-17.5-10.5-35.9-9.1-58.4-5.4 13.4-2.2 35.4-7.2 49.3-1.9 1-4.3 1.5-7.5 1.3-10.6-10.5-8.1-34.1-11.7-51.6-4.9 20-5.1 44.1 4.6 57.1 1.4 1.8 3.3 3.8 4.2 5.9 2.5 5.7 1.8 12.5 4.9 17.6 8.6 14.2 17 26.1 24.8 39.5 5.9 2.2 9.9-.7 11.4-4.9.6-1.7.1-4 1-5.5 1.2-2.2 5.4-2.4 8.5-4.2 1.3-.8 2.8-3 4.2-3.6 3.5-1.4 8.3.1 11.4 1.3-2.7.7-6.4.3-7.5 2.6.4 2.4 2.8 1.6 2.9 3.6.4 4.4-7.7 4.9-10.8 3.3-1.5.6-.1 2.8 0 3.9-1.8 2-5.2 2.4-5.2 6.2 3.9 1.8 8.1-.1 12.1-2 1.6-.7 3.5-2.4 5.2-2.3 1.8.2 3.9 3.2 5.9 3.9 7.3 2.6 18.7-2.1 19.9 5.9-2.1-1.1-5.8-.9-6.5 1.3.1 2.4 2.3 2.4 2 4.6-.4 2.3-3.4 3.3-6.2 2.3-2.3-.8-4.5-5.9-8.2-5.9-2.9 2.5-7.6 1.7-8.8-1.6-4.8 1-9.1 2.4-13.4 3.9 1.9 5.6 10.4 7.5 15.7 10.8 1 1.7 1.4 4 1.6 6.5-2.3 0-1.8-2.8-4.2-2.6-2.4 1.1-1.4 4.1-3.6 4.9-4.3 1.7-6.4-8.1-11.1-8.5-.3-1.3-1.2-1.8-1.6-2.9-3.2-1.7-6.7-3.1-9.5-5.2-7.4-1.6-13-1.6-20.9-.3-1.8 2.5-10.6 5.1-11.7.7-.7-2.7 1.4-3.1 2.3-5.2-.4-3.5-4.1-.3-4.6-1 3.4-8.6 14.5.9 22.5-3.3-8.6-14.8-18.7-28.1-29.7-40.5-.9 1.8-2.1 3.3-5.2 2.9-.8.8-.6 2.7-2 2.9-7.7-.9-5.8-13.1-7.5-20.2-.3-1.2-1.2-5.3-2.9-5.5-3.5-.5-4.6 11.1-4.6 13.4 0 7.9 2.1 20.5 10.4 23.8s18.7-.9 22.8 5.2c1.1 1.6 1.8 5.5 2.9 7.5 1.5 2.6 5.9 6.5-.3 7.2-2.4.3-3.5-1.5-5.9-2-6.7-1.3-17 1.8-23.5-.7-2.4-.9-3.2-2.6-5.2-3.9.5 5.6 3.2 11.1 5.9 15.3 2.7 4.1 6.4 8.3 11.4 10.4 7.9 3.3 17.6 3.8 26.4 5.5 17.7 3.4 33.3 8.8 33.9 29.4.5 17.6-15.3 31.1-33 22.5 12.2-.3 23-6.8 23.5-18.9.5-11.7-9.1-19.4-19.3-21.2 1.7 6.6 12.4 10.2 13.7 18.3.5 2.9-.9 8.4-4.6 7.8-2.6-.4-5.1-4.7-7.5-6.9-7.4-6.7-17.6-11.6-26.8-16-6.8-3.3-13.3-6.5-17.9-10.4-5.2-4.5-8.3-11.3-12.1-16.3 2 11.4 3.7 21.9 13.1 28.1 4.8 3.2 14.5 4.4 19.3 7.5 3.4 2.3 6.7 6.6 2.6 10.4 4.4 4.7 10.1 8.1 16.6 10.8-28.9.7-42.4-16.8-54.5-33.9-2 14.3.2 28.4 5.5 37.5 1.8 3.1 5 5.9 5.9 8.5 1.8 5.3-1.6 13.1-8.5 11.4-2.9 4.6-5.7 9.3-8.2 14.4-3.6-4.4-5.9-10-9.5-14.4-5.3.5-8.7-3.2-7.8-9.1.9-6 7.4-10.3 9.5-17.6 3-11 2.2-21.4 2.9-33.3-2.3 1.6-3.4 4.4-4.9 6.5-10.5 14.7-25.4 27.1-49.9 28.4 6-3.2 12.5-6 16.6-11.1-1.9-2.5-3.6-6.3-1-9.1 9.1-5.4 23.1-3.9 28.1-13.1 3.1-5.6 4.9-13.6 6.2-21.9-3.1 4.7-7.3 10.6-12.4 15-9.7 8.4-24.5 12.2-35.9 20.2-2.2 1.6-5 3.7-7.8 6.2-2.8 2.4-9.1 11.1-10.8 2.6-2.3-12.3 11.6-16 14.7-24.1-10.7.4-21.8 11.9-18.9 24.5 2.2 9.3 10.5 15.6 21.9 16.3-11.9 6-25.4-.8-30.3-9.5-6-12.9-.2-27.9 7.5-33.9 14.3-11.2 44.2-4.4 57.4-17.6 4.4-4.4 6.2-9.8 8.5-17-3.9 1.4-10.5 3.9-17.3 3.6-2.3-.1-4.7-1.2-6.9-1-3.8.5-6.8 4.7-10.1 2 1.8-2.5 2.6-4.7 3.6-7.2 1.5-3.7 1.8-8.4 5.5-10.1 7-3.3 20.2.1 24.8-7.2 2.5-3.9 3.6-13.5 3.3-20.6-.2-4.7-.3-12.8-3.3-13.1-1.3-.1-2.8 1.6-3.3 2.6-2 4.2-1.5 10.4-3.3 15.3-1.2 3.5-3.3 6.1-5.5 8.2-2.4-.6-5.3-.8-6.5-2.6-10.8 12.7-21.7 25.3-32.3 38.2 6.7 3.1 16.5-3.6 21.5 1.3-1.2 1.6-3.7 2-5.2 3.3.3 2.4 2.6 1.8 2 4.2-.8 3.3-8.4 2.2-9.8-.3-6 .8-10.6-2.5-16-.7-3.4 1.2-5.3 5.4-9.1 5.9-1.4 5.7-9.2 5.5-11.7 10.1-1.4 2.5-.3 5.8-2.6 8.2-1.7.4-3.1 1.3-4.9.7-1.3-.5-.7-3-1.3-4.2-2.7.2-3.3 2.3-3.9 4.6-1.7-2.9-.7-7.6.7-10.1.9-.5 1.9-.9 2.9-1.3 3.8-7.3 14.3-7.9 16.6-16.6-3.2-.6-7-3-10.4-2.3-1.5.3-1.9 1.8-3.3 2-1.8.2-2.7-1.5-4.2-1.6-1.6-.1-4.8 1.4-5.9 2.3-1.7 1.4-1.6 4.3-3.6 5.9-2 1-5.4.7-7.2-.3-1.3-1.5.4-4-1-5.2-1.7-1.4-3 1.7-3.9 1-.2-7.9 9.3-6.4 16.3-9.8 1.9-.9 4.1-3.5 6.2-3.9 5.8-1.1 11.6 4 17 4.6 2.4-4.9-3.4-6.9-4.9-10.1-5.5-1.2-9 .2-14-.3-1.5-2.1 0-4.7 1-6.2-1.1-1.9-4-3.2-6.9-2.3 1.7-1.9 4.2-3.7 6.5-3.6 1.6.1 2.9 1.8 4.6 2.6 4.9 2.3 12 3.6 17 4.9 2.5 1.7 3.1 13.7 7.5 13.7 2.2 0 7.5-7.8 8.8-9.5 7.8-9.9 16-22.1 22.8-31-3.5-7.3 2.2-11.9 5.2-16 5-6.8 9.3-15.6 10.1-27.4.4-6.3-1.1-12.6-2.3-18.6-1.7-9-1.6-16.2-3.6-25.8-3.5 17.8.1 42.8-8.2 55.8-11.4 6.6-13.1-11.2-14-21.2-1-10.8-1.3-20.8-3.9-27.4 1.4 25.2-2.7 45.7-10.1 65.3-5.2 14.6-12.1 28.2-30.4 29.6 5.9-35.4 10.8-73.6 10.1-114.5-3 6.3-5 13.3-7.2 20.2-6 18.8-11.4 38.2-19.3 55.8-.5 1.1-.7 3.3-2.3 3.6-3.5 9.6-10.2 22.6-19.6 27.7-3.2 1.8-7.7 3-13.4 2.6 6.9-22.5 19.3-43.8 23.2-70.2 2.1-14.1 3.5-27.6 6.5-40.1 3-12.4 7.5-22.8 13.7-32.6-11.4 13.7-21.5 32.6-35.6 45.7-5.1 4.7-13 11.5-21.5 9.5 14-28.6 30.2-55.1 43.1-84.8-9.6 7.8-26.6 25.9-41.8 13.4 12-13.6 27.2-24.2 37.8-39.2-16.1 5.7-37.3 4.8-38.8-13.7 16.1-2.3 30.9-5.8 44-11.1-1.6-1.6-4.2-1.3-6.2-1.6-13.4-2.1-25-7.9-24.9-24.2C40.6 28 65.6 24.1 87 25.8c14.6 1.2 22.1 10.8 21.2 24.1-.7 10.6-7.5 13.8-13.4 20.2-.5 10.5 3.6 20.4 9.8 24.1 3.6 2.1 8.9 1.1 13.1 3.6 1.6 3 0 6.2-2 7.5-17-1.9-26.5-14.5-24.5-33.3-2.3-.2-3.4.7-4.6 1.6-1.6 30.4 22.4 52.9 51.2 51.6 5.3-.3 8.1-8.8 16.3-6.2 1.7-2.2.6-7.2 2.3-9.5-1.7-1.8-5.5-1.4-8.2-2.3 9.5-.5 10.8-6.7 15.7-13.1 2.4-3.1 5.5-5.4 7.8-8.8-6-3.8-14.9.7-17.3 3.6 2.2-7.1 8.1-9.2 16-12.4 5-2 14.3-4.9 10.4-11.4-5.5-3.2-13.6-3.8-19.6-6.5 3.3-7.7 24.8 2.9 25.8-6.2-4.7-1.7-12.1-1.5-17.6-1.3-6.6.3-12.8 1.1-18.3 2.6-8.3 2.2-14.5 7.8-22.5 9.1 15.3-8.9 33.8-21.3 58.7-15.3 1-9.4-11.6-12.9-17-7.2-6.8-5.5-18.7-5.6-21.2 3.6-.5 1.6 1.3 2.6.7 3.3-5.2-3.5-4.1-13.7.3-17.3 1.9-1.6 4.8-1.7 7.2-3.3 2.8-1.8 3.5-6.3 8.5-3.9 2.1-1.1 2.1-2.8 3.6-3.9 10.4-7.4 30.4 5.9 41.1-2.6.6.7-1.7 1.5-2.9 2.3-1.2 1-2.7 2.2-3.4 3m-36.6 2c-.5 2.7.6 5.1 3.6 5.2 2.4-6.7 11.5-6.8 18.6-8.8-6.6-2.1-20.8-3.3-22.2 3.6m25.2-2.9c-1.3.3-2.6 1.6-3.9 2-5.9 1.7-13.9 1.1-15.3 7.2 2.3 1.9 3.9 2.1 7.2 2.6 8 1.2 14.4 7.2 22.8 7.8-1.6.6-4.1.4-5.9 1 3.3 3.5 7 16.6 1.3 21.5-.1-2.8 1.7-5.1.7-7.8-3.7 1.6-4.7 8.8-6.2 13.7-.7-1.9-.2-5-1-6.9-4.7 2-4 11.3-8.5 12.4.5-3.2 2.8-8.1 2.3-10.1-2.3-.1-1.2 3.2-1.6 4.9-2.6 10.1-18.7 6.5-23.5 14.4 5.9.4 13.5-.8 18.3.7-9.2 2.7-13.2 10.7-17.9 17.9 2.9.4 7.4-.9 8.8 1-4.8.9-9.9 1.6-13.4 3.9 3.3.8 8.7-.4 11.4 1-2.2 1.5-7 .4-9.5 1.6-1.3 3.3-1.5 7.8-2.6 11.4-5.8-.6-9.2 1.3-12.4 3.3-1.9 6.2-3.5 10.9-3.9 17.6-1.9 30.1 10.9 54 9.1 80.3-.5 7.3-3.3 12.2-6.2 17-4.1 6.6-11.2 12.1-9.8 21.5 4.1 1.9 4.8-2.3 7.8-2 4.7.5.7 6.6 3.6 9.5 1.8 0 .6-3.1 2.6-2.9 1.1.5.2 2.9 1.3 3.3 9.1-2.6 2-27.8 14.7-26.4.1.4.4.7 1 .7 3 11.8 4.6 27-.7 35.9-2.9 5-9.8 7-16.3 7.5-2.5.2-5.8-.6-8.8.3-4.7 1.4-4.2 6.6-5.9 10.4-.8 1.9-2.7 2.5-2.6 4.9 4.1.5 6.9-3.3 11.4-3.3 1.3 0 2.5.8 3.6 1 11.4 1.6 18.5-4.9 20.2-15.7-5 4.2-13.8 12.2-24.5 7.8-1.4.7-1.7 2.5-3.6 2.6 1.1-2.1 2.2-4.1 3.9-5.5 14.4 3.3 23.1-5 27.7-14.4.1 6.8-1.3 11.5-2.6 16.6-3.7 13.9-9.7 28.1-22.8 32.6-8 2.8-16.8 1.9-24.8 3.3-6.6 1.2-14.5 2.5-19.9 5.9-5.7 3.6-10.4 12-11.1 19.3-1.6 15.6 8.2 25 22.8 24.8-3.2-3-7.6-4.6-10.8-8.2-4.7-5.3-6.7-14.6-3.3-21.9 3.7-7.8 12.8-12.9 22.8-14-1.5 8.3-12.6 12.8-15.7 18.9-.9 1.8-2.2 7.7.7 9.5 15.7-20.7 51.2-21.9 61.7-47.3 1.8-4.3 2.2-9.3 4.2-14.4-.1 5.7.2 9.7-.3 14.7-1.1 10.8-5.4 26.5-13.4 31-5.3 3-22.2 2-22.5 8.8-.2 3.5 2.9 3.1 5.2 4.2-2.9 4.2-7.7 6.5-11.4 9.8 23.1-5.4 36.6-20.4 46-39.5.9 18.8.2 37.4-6.2 49.3-1.4 2.6-4 4.6-4.9 7.2-2.3 6.6 2.3 10.6 9.1 8.8.1 3.7 1.2 5.6 2.6 7.8.8 1.3 2 3.1 3.3 3.6 2.4-1.9 4.8-6.7 5.5-11.4 3 .7 6 .1 8.2-1 1.6-2.1 1.5-7.1.3-9.5-2-3.8-4.5-6.2-6.2-9.5-5.6-10.7-4.6-27.3-4.6-43.4 10 19.1 22.5 35.8 47.6 39.8-3.8-4.2-10.2-5.9-12.7-11.4 1.7-.1 4.1.4 4.9-.7.4-2.6-1.1-4.1-2.6-5.2-8-5.9-19.4-5.3-25.1-12.7-7.4-9.6-10.7-26.1-9.8-42.1 2.8 20 12.1 31.3 27.1 39.2 10.9 5.7 22.4 10.9 31.3 18.3 2.9 2.4 5.2 5.6 8.5 7.5 3.2-.7 3.3-4.3 2.3-7.2-2.6-7.4-15.6-12-15.3-20.6 12 2.7 24 9.2 24.8 22.2.8 13.7-8.1 17.7-16 22.8 12.6-.9 19.7-7.3 21.5-18.3 1.3-7.9-.9-16.1-3.9-20.6-11.9-17.7-51-9.4-64.3-24.8-7-11.5-14.1-24.6-13.7-42.4 3.5 10.1 9.9 17.3 23.8 17 3.1-4.8 9 .3 10.1 2.9-2.6.1-3-2-5.2-2.3-8.6 4.1-19.3-1.1-24.8-5.2 1.3 7.7 9.5 13.9 18.3 12.7 2.8-.4 5.4-1.7 8.5-1.6 3.7 0 6.8 1.2 10.4 1.3 0-2.4-2.2-4.3-3.3-6.9-.4-1.1-.3-2.6-1-3.6-2.5-3.5-7.7-2-13.7-2.6-13.9-1.4-20-10.3-19.6-26.4.2-8.3 1.4-21.2 9.5-16 .3 2.9 1.2 6.1 1.6 9.5.8 6 .3 13 4.6 15.7 1.3-.7.9-3.1 2.3-3.6 1.7-.4 2 2 3.3 1 1.9-5.7 2.5-12.5 4.6-17.9 1.7-.9 2.8.7 4.9.3-3.3-12.8-13.5-19.2-14.4-33.9-.3-4.2.1-8.7.7-13.7 1.9-17.6 5.8-37.8 4.9-56.8-.2-4.7-.3-11.6-1.6-15.7-2.6-7.6-11-11.7-19.9-7.2 3.6-6.3 5.8-15.1 5.2-24.5 3.4 5.6 1.2 14.8-.7 20.6 1.1 0 1.6-.6 2.9-.3-1.5-5.3.8-9.1 3.9-11.4-1.7-11.2 5.8-17.4 4.9-27.7 1.3-2.1 2.1-6.4 4.2-6.5-1.8 4.9-6.2 16.5 2.3 17.3-4.1-10.9 5.9-24.3 1-36.9 2.6 1.7 2.8 5.7 6.9 5.9-5.4-7.7-5.9-20.2-14-25.1-6.6-.2-10.4-8.9-16.6-5.2.1 1.6 3.1.4 3.3 2-3.1.6-6.9 3.3-10.4 2.6-2.5-.5-3.4-2.7-5.2-3.9 4.7-6.2 19.7-.5 24.1-7.2-2.4.3-5.3-.7-8-.1m98.5 4.5c-10.4.5-21.3 0-30.3.7-15.3 1-22.9 11.9-18.6 28.4.7-.4 1.2.8 1.3 0-2.3-4.1-.6-12.7 2.9-13.1-.8 1.6-1.1 3-1.3 4.6-1.6 16.2 9.8 20 19.9 25.1-1.2-.2-1.4.5-1.3 1.6-1.1 34.6-18.8 52.5-52.2 54.8.3 1.2.3 2.8.7 3.9 32.2-.5 52.4-20.2 54.8-50.9.4-5.5-.4-9.8-1.6-14.4-10.4 4.4-14.9-12.8-3.9-12.4-6.9-12.5 18.4-12.2 11.1 0 11.1-2.3 9.4 14.4 0 12.7 1.7 46.9-20.7 69.8-58.7 77-1.4 9.8-1.8 21.6-1.3 33 .3 6.3 1.7 12.4 2.3 18.3 1.3 13.5 1.1 26 8.2 34.3 2.3.9 5.1.1 6.5-1 1.8-4.3 2.1-9.5 2.3-14.7.6-14.5 2.1-26.8 4.9-37.9.6-2.6.8-5.5 2.3-7.5-2 41.3 6.4 72.4 22.8 95.3 4.7 3.5 9.2 8.9 17.3 7.8-8.4-36.5-13.3-76.5-14.4-120.4-1.4.5-2.9 1.5-4.9 1.3-3.6-.3-5.7-4.9-7.5-4.6 3.3 34.4 7.1 69.9 13.1 100.5-4-6.2-4.3-14.6-5.9-22.5-4.1-20.5-4.6-44.9-8.8-65.6-4 3-11.3.2-13.7-3.3.4 7.4-2.9 11-10.1 10.8-2.3 16.4 1.1 34.2.7 49.9-3-14.9-5.5-35-2-50.9-4.1-4.5-9.7-9.3-8.2-18.3 4.1 6 4.2 17.7 15 16 1.9-2.3 2.7-4.8 2.6-8.5-.1-4.5-3.1-9.9 0-12.1 2.7 6.5 3.1 16.8 13.1 15 2.4-3.2 2.6-9.6 1.6-14.7-.5-2.7-2.9-6 0-6.9 3.9 4.4 5.2 14.4 14 11.7 2.6-5.4-.1-10-2-13.4-1.1-2-3-4.2-2.3-5.9 4.7 1.3 6.4 8.3 14.4 7.5 2.5-1.5 1.3-5.6 0-7.8-2.2-3.8-7.8-6.5-6.5-9.5 3.6.4 7.9 4.7 13.1 3.6 3.9-6.5-5.6-9.2-8.2-13.4 2.9-1 9.9 3.7 13.1-.3.8-7.1-8-6.3-9.1-10.4 3.8-.8 8.6-.7 10.8-3.3 1-6.3-6.1-4.3-9.5-6.2 1.9-3.9 10.7-1.1 9.5-6.5-.8-3.4-7.4-1-8.5-3.6 5.3-2.9 9.3 1.5 11.4 4.6 4.4 6.3 9.6 10.4 16 16 4.7 4.1 9.9 8.7 15.3 10.1 4.8 1.2 13.3 1.1 17.3-2.9-16-12.7-33-26.2-45.7-41.1 14.6 6.1 44.2 8.9 46-9.5-20.4-2.5-39.6-6.3-55.8-13.1 20.2-.4 39.4-3.6 40.1-22.5-8.6 1.7-19.9 4.1-32.1 4.6m-94 0c1.4 3.4 6 3.6 9.1 5.2 1.4 1.4 4.9 5.3 5.9 4.9-1.1-7-7.9-15.1-15-10.1m-3.2 34c2.7-2.1 5.9-7.2 4.9-12.1-.9-4.5-7.2-9.2-12.1-11.1-8.6-3.4-20-2.4-21.5-11.7-3.6-2.7-4.7 2.4-6.2 3.9-6.8.8-13.4 6.4-10.1 14 1.4-8.5 15.4-8.7 20.9-3.6 7.5-5.4 21.4-1.1 24.1 6.2.8 2 1.4 6.6 0 9.5-4.3 8.7-20.3.2-28.7 4.2 7.3 2.7 21.4 6.3 28.7.7M64.5 46.7C48.4 52.9 30.4 57.3 12 61.3c2.3 19.4 30.5 12.5 43.7 7.5C43.4 85 26.8 96.7 13.6 111.9c14 6.7 24-2.3 32.3-10.1 5.5-5.1 10.8-10.9 14-15.7 1.1-1.7 1-2.9 2.6-3.9 1.8-1.2 6.4-2.7 8.2 0-2.6 1.8-8.1.3-8.5 3.6-.2 1.6 1.7 3.3 3.6 3.9 2 .6 5.5-.8 6.2 1.6-3 2.5-10.3 1.2-9.8 5.9.4 3.9 7.4 3.2 11.7 4.2-2.5 2.9-11 4.7-9.5 9.8 1.7 5.7 11.8-1.7 13.4.7-2.7 4.3-9.1 5.1-9.1 12.1 4.8 5.2 10.9-3.4 14.7-2.3-.2 2.6-3.1 4.9-4.9 7.5-1.8 2.5-4.3 5.5-2 9.1 3.7 1 6.4-.3 8.5-2 2.4-1.9 3.6-5.5 6.2-5.9.8 3-4.2 8.2-4.9 13.4-.5 3.9.9 6.5 3.6 6.9 7.2.8 7.8-8.9 11.4-12.7 2.8 1.4.3 6.4 0 10.4-.6 7.7 2.9 15.2 9.5 9.5 3.2-2.9 3.6-10 5.5-13.7 3.6 2.1-.1 8.1.3 13.1.3 2.8 1.3 4.7 2.3 6.9 11 3.2 11.3-9.7 15-16 2 8.1-3.9 13.9-7.5 18.6 4 14.3 2.3 36.4-.3 50.9-1.4-15.5 2.6-38-1.3-50.6-7.5 2-9.8-3.5-10.4-9.5-1.6.3-2.6 2.9-5.2 3.9s-5.6 1-8.2-.7c-3.7 24.9-3.8 55.9-8.5 79.3-.7 3.3-.6 7.3-3.3 9.5 4.7-20.8 5-44.7 7.2-67.5 1.1-11.4 4.1-22.4 2.3-34.3-2.3 3.8-7.4 7.7-12.4 4.2 1.5 43.9-3 84.1-9.5 121.1 5.9-.2 10.8-2.6 14-5.9 18.7-19 24.1-60.4 23.2-97.9 3.2 8.5 4.5 19.3 5.5 30.3 1 10.8 1.5 22.1 6.5 29.4 7.5 3.2 10-7 10.8-13.1.8-6.9 1.2-15.9 2-24.8 1.4-16.9.8-34.3-1.6-48.3-40.8-5.4-62.1-30.4-61.7-77-9.3 2.7-11.3-14.3-1-12.1-.5-1.8-.9-3.7-1.3-5.5 2.2-7.8 16.8-3.6 12.1 5.5 10.4-.9 8.9 15.5-2.6 12.1-3.1 18.5 2.7 37.1 12.4 48.3s23.8 17.1 43.1 17c.4-1.1.9-2.2.7-3.9-34.2-1.6-52.2-19.4-54.2-53.2.5-1.6-1.5-.7-1.3-2 5.1-3.3 13.2-4.9 16.6-10.4 3.1-5 3.1-13.3 1.3-19.3 4.3 1.8 3.4 9.2 3.9 13.1 3.6-8.8-.7-19.3-5.5-23.8-8.8-4.2-20.6-4.4-32.6-3.9-15.9.7-30.2-.2-42.7-2.9.9 19.7 20.7 20.6 40.1 21.9m122.1-19.6c-1.8 0-2.4 1.3-3.9 1.6-1.3 0-1.3-1.3-2.3-1.6-.8 4.1 7.7 3 6.2 0m2.6 20.9c1.2.5 2.7.6 3.9 1-.4-4.9-2.7-8-6.9-9.1 1.2 2.4 2.7 4.6 3 8.1m73.7 6.8c-3-.4-4.8.4-6.2 1.6-2.8 7.1 5.1 9.8 9.5 7.8 6.1 20.8-2 42.8-13.7 53.8-10 9.4-23.9 13.8-39.8 16 .2 1.9.6 3.5 1 5.2 39.5-4 60.3-30 57.1-74.4 10.7 3 11.4-13.3 0-10.1 1-2.2 2.4-5 1-7.8-6.4-4.6-13.1 2.4-8.9 7.9m-179.8.3c5.9-5.2-2.7-13-7.8-7.5-1.1 2.6.5 5.9.7 7.2-10.5-.9-6.9 13.5 1.6 9.8-.3 4.7-.5 9.5 0 14 1.7 16 6.3 31 15.7 41.4 9.5 10.7 25.4 19.6 44.4 18.9 0-2 .1-4-.3-5.5-39.4-1-61-28.7-56.1-69.5 10.4 5.8 13.5-11.3 1.8-8.8m67.9-2.6c11.1-3 27.4-3.5 39.8-2.3-11.8-3.5-30.7-3.8-39.8 2.3m36.9 3.6c2-.6 4.1-1.1 4.2-3.6-3.3-.6-3.8 1.5-4.2 3.6m50.9 40.5c-1.3.3-4.7-.2-5.9 1.3s-.2 3.6 1 4.9c13.5-.8 21.5-11.6 22.5-24.5.2-3.1-.2-6.7-2-8.8 1.4 14-5.1 24.8-15.6 27.1m-139.7-.3c4.8 3 9.5 9.1 17.3 6.9 2.9-6.7-4.3-4.8-8.8-5.9-4-.9-8.6-5.9-10.8-10.4-2.3-4.7-2.9-9.3-3.3-15.3-2.9 9.2 1.7 19 5.6 24.7m228.1 65.5c-8-7.9-14.9-18.2-21.5-30.3-4.2-7.7-9.9-16.2-14.4-24.5-2.3-4.3-4.4-10.8-8.8-6.2 6.4 2.8 7.4 12.9-2 12.4 1.3 2.8 4.3 5.1 3.3 9.1 9.8 12.6 20.9 28.4 32.3 40.5 7.1 7.6 13.4 16.4 27.1 15.3-1.6-3.9-4.5-7.3-6.9-10.8-17.6-25.4-32.4-54-47.6-81.6-.7 1.5-2.2 2.1-3.9 2.6 2.4 1.6 5.9 4.8 3.6 9.1 12.6 22.4 26.2 45.6 40.1 65.6 0-.3-.3-.4-.3-.7-.4 0-.8-.2-1-.5M11.3 182.7c11.9-.8 18.8-10.3 25.1-17.6 8.2-9.5 16.6-19.3 22.5-30.3 3.9-2.4 5.7-7.5 7.5-12.1 1.1-2.8 2.9-5.4 2.6-7.2-9.3.6-7.9-9.3-2-12.4-1.3-.4-2.3-1.2-3.9-1.3C49.4 123.5 40 151.1 22.6 168c14.3-21.3 26.8-44.3 38.2-68.5-.3-1.1-1-1.8-1-3.3 1-2.2 2.6-3.7 4.6-4.9-1.9-.5-3-1.8-4.6-2.6-14.6 32.8-31.7 63.3-48.5 94m268.3-38.8c6.4 22.1 13.3 44.6 21.2 65.3 3.2 8.4 8 16.2 9.1 25.5-7.7-14.2-13.3-30-18.9-46-5.7-16.2-10.5-33.1-14.4-50.9-2.9 1.6-7.7.9-10.4-.3 0 12.2 3.6 22.9 7.5 33 9.4 24.3 16.8 51.2 28.7 72.8 6.1 11 13.2 21.8 27.7 22.2C321.6 244 310 221 305 195.1c-1.7-8.9-2.7-18.1-4.9-27.1-1.2-5-3.4-10.4-5.2-15.7-3.7-10.8-8-19.9-14-27.4-1.8 1.6-5.5-.3-7.2.3 4.1 4.4 3.9 12 5.9 18.7m-210.2-16c0-.2 0-.4-.3-.3-6.6 10.1-11.2 20.1-14.4 33-4.2 17.5-5.6 40.7-10.8 58.1-5.1 17.1-13.2 34.7-18.3 51.2 2.6-.3 4.5-1.2 7.2-1.3 9.8-4.5 14.9-13.6 19.3-23.2 13.3-29.1 23.7-63.1 33-95.3-1.6-2.6-1-7.6-.3-10.8-2.9 1.7-6.3 2.3-10.1 1-6.1 30.7-14.9 60.2-25.1 86.8-1.5 3.8-2.1 8.2-5.2 11.1 7.8-24.7 16.4-50.4 23.2-75.7 1.2-4.5 2.1-9 3.3-13.4 1.3-4.7 1.7-9.1 2.6-14 .6-3 2.8-6.1 2.6-7.5-2.3.3-4.4.9-6.7.3M214 261.7c7.8 11.8 18.9 24.4 26.8 37.2 1.7 2.8 4.5 6.1 2.3 7.8-4 .6-8 1.1-12.4 1.3-1 3.4-5.2 3.5-6.9 6.2 3.5 4.3 7-1.7 10.4-2.3 2.2-.4 5 .6 7.5.3s4.4-1.2 6.9-1.6c.8 2.3 4.3 2 7.2 2.3 2.9 4.2 10.6 3.6 11.7 9.5 5.3-.3 4.4 7.3 9.1 6.5 1.3-1.6-1.4-4.8 0-7.5-.9-2.1-3.4-1.9-5.2-2.9-1.2-.7-1.8-2.1-2.9-2.9-1.8-1.4-4.5-2.7-6.5-3.9-2.1-1.2-5.1-2.1-5.2-4.6 6.7 5.2 17-.8 25.5-1.3-.2 4.4 5.4 4.3 5.5.3 2.4.7 3.6 2.8 7.2 2.3.8 2.9 4.3 8.2 7.5 4.6-.9-3.2-4.5-3.6-5.5-6.5.6-.6.9-1.5 1-2.6-7 1.9-9.8-3.9-15.3-3.9-6.7 0-13.7 8-21.2 2.6 1.6-1.8 3.3-3.5 3.6-6.5 1.3-.1 2.4-.5 3.3-1 .7-1.8-.7-2.3-1-3.9 1.5-.4 2.6-1.3 4.2-1.6 1.3 2.2 7.9 1.8 7.8-1.3-4.5-2.1-12.7-2.9-15.3 1-1.5 2.3-1.3 6.1-2.9 8.5-2.5 3.7-6.4 4.2-12.1 3.6-9.4-16.3-19.8-31.5-29.4-47.6-4.7-.2-5.5 3.6-5.7 7.9m-74.8 1.6c-1.8-.1-3.6-1.5-4.9-1-.2 0-.4 0-.3.3-6.4 7.8-15.7 19.9-22.5 28.7-2.7 3.4-4.7 7.2-7.2 10.1-6.1 7.4-10-5.5-12.1-10.8-3.8-2.7-10.1-2.9-14.7-4.9-1.7 2-5.4 2-5.9 5.2 1.5 2.3 4.1-.3 5.9-.7 1.8 2.2 6.1.6 8.5 1 .9.7.4 2.6 1 3.6 5.1.3 3.4 7.4 6.9 9.5-3.9.8-7-.8-10.1-1.6-3.2-.9-7.4-2.7-10.1-2.6-3.7.2-6.4 4.3-10.4 5.2-1.3.3-2.4-.5-3.9.7-.8 1 .8 1.8.3 3.6-3.3 1.5-6.4 8 1.3 6.9 2-1.4 2.2-4.8 3.9-6.5 3.2-.5 5-2.4 8.2-2.9 1 3.7 4.6 1.9 5.9-.3 3.9 1.9 10.4 1.3 15 2.6-4.3 7.8-12.9 11.4-18.9 17.6 4 2.4.8 7.1.7 10.1 5.1.8 4.4-6.8 6.2-10.4 5.9-1 9-4.7 11.4-9.1 3.8-.4 6.3-2.1 7.5-5.2 4.1-.2 10.5-2.5 13.1.7 2 .1 3.6-.1 5.2-.3 1.4 1.4 6.2 4.5 8.2 1.3 0-1.6-1.9-1.1-2.9-1.6-1-1.4-1.7-3.1-2.6-4.6-3.2-1-11.7 2.5-12.7-1.3-.4-1.4 2.5-4.6 3.3-5.5 9.4-11.6 21.1-23.6 28.4-34.9-1-1-1.4-1.8-1.7-2.9M274 284.2c.6.5 1.2 1 2.3 1 .5-1.1 3.1-2.9 1.6-3.9-1.1 1.1-3.8.7-3.9 2.9m-199.7 2c.6-.5 1.2-1 1-2.3-1.6-.7-3.3-1.3-5.5-1.3.5 2.1 2.1 3.2 4.5 3.6m224.8 20.5c.4.1.5.4.7.7 2.3-.7 4.5-1.3 5.5-3.3-2.1-2.4-6.3-.9-6.2 2.6m-71.1 2c.5-.5 1.2-.8 1-2-.3-.1-.4-.3-.3-.7-4.4-1.8-4.6 2.5-.7 2.7m-103.1 0c1.8 0 2.9-.8 3.3-2.3-1.7-1.1-4.9.2-3.3 2.3M52.8 310c2.3.9 6.1 0 4.6-2.9-2.5-.7-4.3.5-4.6 2.9m225.8 14.7c1.4.4 3 .7 4.9.7.4-3.1-5.3-5.1-4.9-.7m-208.5 9.1c1.8-.8 3.4-1.8 5.2-2.6.2-1.2-.7-1.3-.7-2.3-3 .1-4.8 1.4-4.5 4.9M274.7 34.3c1.3-1.7 3.4-2.5 4.6-4.2-2.4-.5-5.1-.5-7.5-1h-2.6c-1.1-.4.9-.4 1.3-.3 4.6.2 10-.4 14 .3-.9 1.7-3.6 1.7-4.2 3.6 11.9 1.3 25.5-1.3 34.6-4.9 2-.6-.7.9-1.6 1.3-9.5 4.3-23.9 5.5-38.6 5.2m13.7 18.9c-.6-.1-.8.4 0 .3 12 4.4 27.4 10.3 43.7 7.2-16.5.6-30.4-3.9-43.7-7.5m35.9 49.6c-11.7-7.7-21.9-18.5-31.6-27.1 8.7 10.5 19.4 21 31.6 27.1M77.3 31c-2.7 1-6.8.6-9.1 2 1 1.5 2.8 2.2 4.6 2.9-14.2 2.5-31.1.2-41.4-4.2 9.6 2.3 23.1 4.8 35.9 3.9-.8-1.8-3.1-2.2-4.6-3.3 4.2-.8 10.3-1.5 14.6-1.3M60.9 56.4c0-.4-.1-.8-.7-.7-13.2 4.6-26.8 8.9-43.7 9.8 18.3 1.8 31.2-4.7 44.4-9.1M56 78.6c-8.5 11.2-18.6 20.8-30.3 28.7 1.4-2.1 3.8-3.4 5.9-5.2C37.6 97 44 91 49.2 84.8c3.3-1 3.9-4.8 6.8-6.2"/><path fill="#f5d306" d="M219.5 253.5c9.6 16.1 20 31.3 29.4 47.6 5.7.6 9.5.1 12.1-3.6 1.7-2.4 1.4-6.2 2.9-8.5 2.6-3.9 10.9-3.1 15.3-1 0 3.1-6.5 3.5-7.8 1.3-1.7.3-2.7 1.2-4.2 1.6.3 1.6 1.7 2.2 1 3.9-.9.5-2 .9-3.3 1-.3 3-2 4.8-3.6 6.5 7.5 5.3 14.5-2.6 21.2-2.6 5.6 0 8.3 5.8 15.3 3.9-.1 1.1-.3 2.1-1 2.6 1.1 3 4.7 3.4 5.5 6.5-3.2 3.7-6.7-1.7-7.5-4.6-3.6.5-4.8-1.5-7.2-2.3-.1 4-5.7 4.1-5.5-.3-8.5.5-18.7 6.5-25.5 1.3.1 2.5 3.1 3.3 5.2 4.6 2 1.2 4.8 2.5 6.5 3.9 1.1.9 1.7 2.3 2.9 2.9 1.8 1 4.4.8 5.2 2.9-1.4 2.8 1.3 5.9 0 7.5-4.7.8-3.8-6.9-9.1-6.5-1.2-5.9-8.8-5.3-11.7-9.5-2.9-.3-6.3 0-7.2-2.3-2.5.4-4.3 1.3-6.9 1.6-2.5.3-5.3-.7-7.5-.3-3.4.6-6.9 6.6-10.4 2.3 1.7-2.7 5.9-2.8 6.9-6.2 4.4-.2 8.4-.7 12.4-1.3 2.2-1.8-.5-5-2.3-7.8-7.9-12.8-19-25.4-26.8-37.2.4-4 1.2-7.8 5.7-7.9m54.5 30.7c.6.5 1.2 1 2.3 1 .5-1.1 3.1-2.9 1.6-3.9-1.1 1.1-3.8.7-3.9 2.9m25.1 22.5c.4.1.5.4.7.7 2.3-.7 4.5-1.3 5.5-3.3-2.1-2.4-6.3-.9-6.2 2.6m-71.1 2c.5-.5 1.2-.8 1-2-.3-.1-.4-.3-.3-.7-4.4-1.8-4.6 2.5-.7 2.7m50.6 16c1.4.4 3 .7 4.9.7.4-3.1-5.3-5.1-4.9-.7m-137.264-58.532c-5.567 10.064-32.662 36.886-31.967 40.333 1 3.8 9.131.1 12.231 1.099.9 1.5 1.6 3.2 2.6 4.6 1 .5 3 .1 2.9 1.6-1.9 3.2-6.7.1-8.2-1.3-1.6.2-3.3.4-5.2.3-2.6-3.1-8.9-.8-13.1-.7-1.2 3.1-3.7 4.8-7.5 5.2-2.5 4.4-5.5 8.2-11.4 9.1-1.8 3.6-1.1 11.3-6.2 10.4.2-3.1 3.3-7.7-.7-10.1 6-6.2 14.6-9.8 18.9-17.6-4.6-1.3-11.1-.7-15-2.6-1.3 2.2-4.8 4-5.9.3-3.2.5-4.9 2.5-8.2 2.9-1.7 1.8-1.9 5.1-3.9 6.5-7.7 1.1-4.6-5.4-1.3-6.9.5-1.8-1.1-2.5-.3-3.6 1.5-1.2 2.6-.4 3.9-.7 4-.9 6.7-5 10.4-5.2 2.7-.1 7 1.7 10.1 2.6 3.2.9 6.3 2.5 10.1 1.6-3.4-2-1.7-9.1-6.9-9.5-.6-.9-.1-2.9-1-3.6-2.3-.3-6.7 1.2-8.5-1-1.8.4-4.3 3-5.9.7.5-3.2 4.2-3.2 5.9-5.2 4.6 2 10.9 2.2 14.7 4.9 2 5.3 5.9 18.1 12.1 10.8 2.5-2.9 4.5-6.7 7.2-10.1 6.8-8.8 16.2-20.9 22.5-28.7-.1-.3.1-.3.3-.3 1.3-.5 3.1.9 4.9 1 .6 1.4 1.736 2.468 2.436 3.168M74.3 286.2c.6-.5 1.2-1 1-2.3-1.6-.7-3.3-1.3-5.5-1.3.5 2.1 2.1 3.2 4.5 3.6m53.9 20.2c-.3 1.5-1.5 2.2-3.3 2.3-1.6-2.1 1.6-3.4 3.3-2.3m-70.9.6c1.5 2.9-2.2 3.8-4.6 2.9.4-2.3 2.2-3.5 4.6-2.9m17.3 21.9c-.1 1 .9 1.1.7 2.3-1.8.8-3.4 1.8-5.2 2.6-.3-3.5 1.5-4.8 4.5-4.9M271.7 47c1.4 2.8 0 5.6-1 7.8 11.4-3.2 10.7 13.2 0 10.1 3.2 44.4-17.6 70.4-57.1 74.4-.3-1.7-.8-3.3-1-5.2 15.9-2.2 29.8-6.5 39.8-16 11.7-11.1 19.8-33 13.7-53.8-4.4 2-12.2-.7-9.5-7.8 1.4-1.2 3.2-2 6.2-1.6-4.1-5.6 2.6-12.6 8.9-7.9M81.2 64c-4.9 40.8 16.7 68.5 56.1 69.5.4 1.5.3 3.6.3 5.5-19 .7-34.9-8.3-44.4-18.9-9.3-10.5-14-25.5-15.7-41.4-.5-4.6-.3-9.3 0-14-8.5 3.7-12.2-10.7-1.6-9.8-.2-1.2-1.7-4.5-.7-7.2 5.1-5.5 13.7 2.3 7.8 7.5 11.8-2.6 8.7 14.5-1.8 8.8m84.1-5.6c8.4-4 24.4 4.5 28.7-4.2 1.4-2.9.8-7.4 0-9.5-2.8-7.3-16.6-11.6-24.1-6.2-5.5-5.1-19.4-4.9-20.9 3.6-3.3-7.6 3.3-13.3 10.1-14 1.5-1.5 2.6-6.6 6.2-3.9 1.5 9.3 13 8.4 21.5 11.7 4.9 1.9 11.2 6.6 12.1 11.1 1 4.9-2.2 10-4.9 12.1-7.2 5.6-21.3 2-28.7-.7" style="fill:#fcdd09"/><path fill="#e64625" d="M190.8 50.2c-12.4-1.2-28.8-.7-39.8 2.3 9.1-6.1 28-5.8 39.8-2.3" style="fill:#da121a"/><path d="M283.8 83.2c-.4 1.4-3.9 1.2-5.2.7.2-2.2 3.9-1.3 5.2-.7m-6.9 11.1c2.1-.2 5 .4 6.5-.3-1.8-.3-5.6-2.4-6.5.3m-1.9 11.4c2.4.4 4.5 2.5 7.2 1.6-1.7-1.8-4.9-2-7.2-3.3zm-4.6 10.8c3.1.7 5 2.6 8.2 3.3-2-2.3-5.3-3.4-8.2-4.9zm-6.5 10.4c2.9 1.1 4.7 5.1 7.8 4.9-2.3-2.8-4.6-5.7-7.8-7.5-.8.8 0 1.6 0 2.6m-3.3 17.3c-1.6-4-2.8-8.5-6.2-10.8 1.5 4.2 3 8.4 6.2 10.8m-15.3 9.5c-.3-3.9-1.6-9.4-3.9-12.4 0 4.2 2.1 9 3.9 12.4m-16.3 4.9c-.3-4.5-1.7-7.9-2.3-12.1h-1.6c.8 4.5 1.2 9.4 3.9 12.1M70.4 86.5c-1.2-1-5.1.7-5.2-1.3 1.6-.3 5.1-1 5.2 1.3m-4.6 10.7c2.4-.2 5.3.1 6.5-1.3-1.9-1.7-5.3.2-6.5 1.3m1.7 12.8c3.1-.7 7.2-.4 7.8-3.6-2.5 1.3-6.4 1.2-7.8 3.6m4.2 11.7c3.2.2 7.2-1.5 8.2-4.6-3.2 1.1-5.7 2.9-8.2 4.6m7.5 12.4c3.1-.6 7.5-4.4 7.5-8.2-3.1 2.1-5.2 5.3-7.5 8.2m11.4 11.8c2.2-.4 2.5-3.3 3.3-4.9.9-2 1.9-4 2.6-5.9-.4 0-.5-.4-1-.3-1.8 3.4-3.7 6.9-4.9 11.1m16 9.1c1-4 3.3-8.4 3.3-12.4h-1c-.9 3.6-2.9 9.5-2.3 12.4m16.7 4.2c1.7-3.3 2.7-7.3 2.6-12.4h-1c-.8 3.7-2.1 8.6-1.6 12.4m53.1 74.7c.8 5 1.4 11.4.7 17-1.6-4.4-1.6-11.8-.7-17m-.3 55.2c-2-16.4-3.6-33.2-5.9-49.3-.6 12.3 1.1 23.1 2.9 35.2 1.4 9.4 2.3 19.3 2.9 29 1.1 18.3 0 37.3 1 55.8.1 2.1.2 4.3 1.3 6.5-3.7-44.1 3.5-86.7 5.9-126.9-1.5 17.8-1.9 36.6-8.1 49.7m20.6-205.2c.9 0-.3 4.9 1 5.5.6.1 1-1.5 1.3-.7-.3 1.7-1.1 2.8-1.3 4.6-2.8-1.6-1.1-6.2-1-9.4m-7.5 26.7c.2-2.7 2.2-5.2 2-7.2-.9.5-.9 1.9-2 2.3-.9-1.1.3-4.2-.7-5.2-1.1 2.5-2.6 8.8.7 10.1m-16.3 25.5c.3-2 1.4-3.1 1-5.9-1.7-.4.4 3-1.3 2.6-3.7-3.1-.8-13.2-2-17.3-.4 6.7-2.9 17.2 2.3 20.6m-5.3-8.8c-.2-2.2-2.4-1.6-3.6-2.6-2.1-1.9-1.6-4.6-2.3-8.2-1 5.4.1 11.1 5.9 10.8m14.1 5.8c.1-.3.3-.4.7-.3.3-1.2.6-2.8 0-3.9-1.4-.5-.1 1.7-1 1.6-2.9-1.6-2.8-6.1-3.9-9.5.3 5.1-.3 11.2 4.2 12.1m-6.9 32.3c5.3-.6 5.9-11.6 5.9-17.6-1.5 3.9-1.3 16.3-6.5 16-4.9-.3-4.9-11.7-6.2-16 .4 6.9.6 18.4 6.8 17.6m11.1 8.8c.8 6.4-1.8 15.9 1 21.5 5 .9 7.2-5.3 8.8-8.8 1.9-4.1 3.3-8.1 3.9-11.4.3 8.9-4 16-8.2 21.5-3.7 2.1-6.2-.7-7.5-2.9-2.8 3.2-3.6 9-8.5 9.1-5.5.2-6.7-7-8.8-11.7-2.3 2.4-1.2 6.7-5.5 6.9-6.8.2-9.3-15.4-11.1-20.9 1.8 3.2 2.7 6.7 4.6 10.8 1.2 2.7 3.5 8.5 6.5 8.5 5.6-.1 3.7-16 3.6-21.5 1.8 10.1 3.6 20.3 9.8 26.1 9.4-3.5 9.1-16.7 11.4-27.2m-2 30.4c1.9 4.4-3 13.6 2.3 16 6.2-1.8 6.3-9.8 8.8-15.3.1 8-3.6 20-12.7 16.6-1.2 2-2.3 4.1-3.9 5.5-2.1.4-3 .1-5.2 0-1.6-1.8-2.9-3.9-3.9-6.2-6.2 7.4-11.6-6.5-12.4-13.4 2.3 4.3 3 14 8.5 13.4 5.5-.7 1.2-10.4 2-16 1.6 6 2.1 20.7 9.5 19.9 5.9-.6 5-15.5 7-20.5m-.6-92.7c-.3 5.8.2 13.4 4.2 16 1.8.7 1.6-1.8 2.6-1 .8 1.1-.3 2.3-1 2.9-6.2-1.4-6.6-10.4-5.8-17.9m-32.6 31.7c1.7 5.1 2.9 13.2 5.2 17.6.5 1 2.1 3.4 3.6 3.3 3.4-.4 4.4-11.8 4.6-16 .1-1.3 0-2.9 0-4.2 2.3 7.2 2 18.9 6.5 23.8 1.8 1.9 3.8 2.3 6.2.7 5.5-3.9 6.9-15.2 7.8-24.1 1 4.4-.7 16.1 3.3 19.6 6.7-2.1 7-10.6 8.2-18.3 1.5 4 .1 10.8 2.9 13.4 5.3-2.6 6.1-9.8 7.5-16.3.7 3.5-1.9 19.5-7.2 18.6-2.2-.4-1.6-3.9-3.6-5.2-.9 6.7-8.4 15.8-11.7 5.2-3.6 3.7-3.6 11-11.4 10.4-4.3-3-5.6-9-8.2-13.7-1.4 2.5-2.2 5.4-3.3 8.2-5.7 1.3-6.6-4.6-8.2-8.5-1.9.5-2.1 2.6-3.6 3.6-6.1-2.5-5.6-11.5-6.2-19.6 1.5 6.8 1.3 15.2 6.5 18.3 3.3-3.4 1.1-11.8 1.1-16.8m17.9 40.1c2.6 3.6 2.8 9.6 6.2 12.4 4.4-1.7 4.6-7.6 6.2-12.1 0 5.5-1 14.3-7.5 13.4-2.4-3.8-3.8-8.6-4.9-13.7m13.1 23.8c-.5 5.3-1.5 12.9-5.5 13.4-4.6.6-5-7.9-6.2-12.4 2 3.4 2.3 8.6 5.9 10.4 2.982-3.065 5.81-11.4 5.8-11.4"/><path fill="#fff" d="M180.4 27.1c1 .3 1 1.6 2.3 1.6 1.5-.4 2.1-1.6 3.9-1.6 1.5 3-7 4.1-6.2 0"/></svg>