<svg xmlns="http://www.w3.org/2000/svg" width="841.047" height="595.896"><g style="display:inline"><path d="M263.75 650.934c14.821-6.608 22.5-18.75 25.357-36.786s-13.036-30-27.857-28.214c-14.821 1.785-19.107 21.964-3.75 29.464s20.714-8.929 20.714-8.929c19.465 13.75 2.482 34.286-12.5 34.286s-37.857-4.821-42.321-32.679c-4.464-27.857 16.964-50.178 40.714-47.857 23.75 2.322 44.573 14.498 48.929 42.322 5 31.935-15.411 75.893-70.536 75.893s-91.083-56.691-115.821-79.513c-24.739-22.822-53.554-25.487-53.554-25.487 8.127 12.052 3.688 25.477.09 28.303-8.75-2.232-13.75-11.34-13.75-11.34-1.43 9.912-9.554 15-9.554 15-12.411-5.267-10.357-21.696-10.357-21.696-1.518 1.072-5.09 1.786-5.983 1.608 0 0-3.84-7.125-.535-16.34s17.41-9.91 17.41-9.91 49.812-6.091 69.888 15.501c0 0 0-7.829.632-11.617 0 0 9.344.758 15.53 15.405 0 0 .885-7.955 2.653-13.384 0 0 9.596 4.545 14.394 18.182 0 0 1.39-3.661 3.03-6.566 0 0 14.774 7.955 3.536 21.971 0 0 5.809-.757 8.208-.757 0 0 2.399 4.671 2.273 14.52 0 0 4.545-2.272 4.924-8.965.336-5.937-2.02-8.712-2.02-8.712s5.43-1.137 7.576 3.535c0 0 1.263-8.46-3.03-15.53 0 0 15.025-2.4 19.319 14.015 0 0 3.409-5.935 4.293-11.364 0 0 7.45 3.535 9.344 14.268s-.884 17.93-.884 17.93 5.682-3.914 6.44-9.217c0 0 6.06 7.576 5.934 15.278s-3.788 11.996-3.788 11.996 5.05 21.087 25.001 22.223c0 0-5.05-4.545-6.945-9.849 0 0 13.08-6.478 26.996 3.012z" style="color:#000;fill:#fcdd09;fill-opacity:1;stroke:#000;stroke-width:2;stroke-linecap:butt;stroke-linejoin:miter;stroke-miterlimit:4;stroke-opacity:1;stroke-dasharray:none;stroke-dashoffset:0;marker:none;visibility:visible;display:inline;overflow:visible" transform="translate(106.823 -83.538)"/><path d="M262.857 650.487s9.107 7.59 18.214 9.464c9.108 1.875 13.393-.892 13.393-.892m-50.625-1.429s7.041 6.834 21.072 9.732 22.589-1.875 22.589-1.875" style="color:#000;fill:none;stroke:#000;stroke-width:1.5;stroke-linecap:butt;stroke-linejoin:miter;stroke-miterlimit:4;stroke-opacity:1;stroke-dasharray:none;stroke-dashoffset:0;marker:none;visibility:visible;display:inline;overflow:visible" transform="translate(106.823 -83.538)"/><path d="m37.446 584.531 1.5.125s.456-6.618 3.906-12.562c-4.943 5.484-5.406 12.437-5.406 12.437m19.968 6.313 1.407-.532s-2.325-6.168-.36-13.578c-3.57 7.412-1.047 14.11-1.047 14.11m94.875-8.813-1.5.25c.487 3.288.926 6.945 1.172 10.172 1.21-3.596.87-6.912.328-10.422m27.907 23.125c.473-3.404.612-6.597.375-9.937h-1.5c.24 3.142.065 6.88-.344 9.718-.743 5.308-1.13 11.81 4.578 13.938-3.572-4.043-3.756-9.175-3.11-13.719m16.156-9.25-1.469.25s2.325 13.937-.515 23.797c5.87-8.256 1.984-24.047 1.984-24.047m13 20.969-1.344-.656c-1.728 2.896-3.576 6.317-6.14 8.86 3.811-.946 5.617-4.73 7.484-8.204" style="font-size:medium;font-style:normal;font-variant:normal;font-weight:400;font-stretch:normal;text-indent:0;text-align:start;text-decoration:none;line-height:normal;letter-spacing:normal;word-spacing:normal;text-transform:none;direction:ltr;block-progression:tb;writing-mode:lr-tb;text-anchor:start;baseline-shift:baseline;color:#000;fill:#000;fill-opacity:1;stroke:none;stroke-width:1.5;marker:none;visibility:visible;display:inline;overflow:visible;font-family:Sans;-inkscape-font-specification:Sans" transform="translate(108.44 -83.538)"/><path d="M263.75 650.934c14.821-6.608 22.5-18.75 25.357-36.786s-13.036-30-27.857-28.214c-14.821 1.785-19.107 21.964-3.75 29.464s20.714-8.929 20.714-8.929c19.465 13.75 2.482 34.286-12.5 34.286s-37.857-4.821-42.321-32.679c-4.464-27.857 16.964-50.178 40.714-47.857 23.75 2.322 44.573 14.498 48.929 42.322 5 31.935-15.411 75.893-70.536 75.893s-91.083-56.691-115.821-79.513c-24.739-22.822-53.554-25.487-53.554-25.487 8.127 12.052 3.688 25.477.09 28.303-8.75-2.232-13.75-11.34-13.75-11.34-1.43 9.912-9.554 15-9.554 15-12.411-5.267-10.357-21.696-10.357-21.696-1.518 1.072-5.09 1.786-5.983 1.608 0 0-3.84-7.125-.535-16.34s17.41-9.91 17.41-9.91 49.812-6.091 69.888 15.501c0 0 0-7.829.632-11.617 0 0 9.344.758 15.53 15.405 0 0 .885-7.955 2.653-13.384 0 0 9.596 4.545 14.394 18.182 0 0 1.39-3.661 3.03-6.566 0 0 14.774 7.955 3.536 21.971 0 0 5.809-.757 8.208-.757 0 0 2.399 4.671 2.273 14.52 0 0 4.545-2.272 4.924-8.965.336-5.937-2.02-8.712-2.02-8.712s5.43-1.137 7.576 3.535c0 0 1.263-8.46-3.03-15.53 0 0 15.025-2.4 19.319 14.015 0 0 3.409-5.935 4.293-11.364 0 0 7.45 3.535 9.344 14.268s-.884 17.93-.884 17.93 5.682-3.914 6.44-9.217c0 0 6.06 7.576 5.934 15.278s-3.788 11.996-3.788 11.996 5.05 21.087 25.001 22.223c0 0-5.05-4.545-6.945-9.849 0 0 13.08-6.478 26.996 3.012z" style="color:#000;fill:#fcdd09;fill-opacity:1;stroke:#000;stroke-width:2;stroke-linecap:butt;stroke-linejoin:miter;stroke-miterlimit:4;stroke-opacity:1;stroke-dasharray:none;stroke-dashoffset:0;marker:none;visibility:visible;display:inline;overflow:visible" transform="matrix(-1 0 0 1 734.424 -83.538)"/><path d="M262.857 650.487s9.107 7.59 18.214 9.464c9.108 1.875 13.393-.892 13.393-.892m-50.625-1.429s7.041 6.834 21.072 9.732 22.589-1.875 22.589-1.875" style="color:#000;fill:none;stroke:#000;stroke-width:1.5;stroke-linecap:butt;stroke-linejoin:miter;stroke-miterlimit:4;stroke-opacity:1;stroke-dasharray:none;stroke-dashoffset:0;marker:none;visibility:visible;display:inline;overflow:visible" transform="matrix(-1 0 0 1 734.424 -83.538)"/><path d="m37.446 584.531 1.5.125s.456-6.618 3.906-12.562c-4.943 5.484-5.406 12.437-5.406 12.437m19.968 6.313 1.407-.532s-2.325-6.168-.36-13.578c-3.57 7.412-1.047 14.11-1.047 14.11m94.875-8.813-1.5.25c.487 3.288.926 6.945 1.172 10.172 1.21-3.596.87-6.912.328-10.422m27.907 23.125c.473-3.404.612-6.597.375-9.937h-1.5c.24 3.142.065 6.88-.344 9.718-.743 5.308-1.13 11.81 4.578 13.938-3.572-4.043-3.756-9.175-3.11-13.719m16.156-9.25-1.469.25s2.325 13.937-.515 23.797c5.87-8.256 1.984-24.047 1.984-24.047m13 20.969-1.344-.656c-1.728 2.896-3.576 6.317-6.14 8.86 3.811-.946 5.617-4.73 7.484-8.204" style="font-size:medium;font-style:normal;font-variant:normal;font-weight:400;font-stretch:normal;text-indent:0;text-align:start;text-decoration:none;line-height:normal;letter-spacing:normal;word-spacing:normal;text-transform:none;direction:ltr;block-progression:tb;writing-mode:lr-tb;text-anchor:start;baseline-shift:baseline;color:#000;fill:#000;fill-opacity:1;stroke:none;stroke-width:1.5;marker:none;visibility:visible;display:inline;overflow:visible;font-family:Sans;-inkscape-font-specification:Sans" transform="matrix(-1 0 0 1 732.808 -83.538)"/><path d="M-8.081 474.106h650.033v16.162H-8.081z" style="fill:#fcdd09;fill-opacity:1;fill-rule:evenodd;stroke:#000;stroke-width:2;stroke-linecap:butt;stroke-linejoin:miter;stroke-miterlimit:4;stroke-opacity:1;stroke-dasharray:none;stroke-dashoffset:0" transform="translate(103.688 -85.538)"/><path d="M-31.081 505.2h696.033l-23-16.717H-8.081z" style="fill:#fcdd09;fill-opacity:1;fill-rule:evenodd;stroke:#000;stroke-width:2;stroke-linecap:butt;stroke-linejoin:miter;stroke-miterlimit:4;stroke-opacity:1;stroke-dasharray:none;stroke-dashoffset:0" transform="translate(103.688 -85.538)"/><path d="M10.354 545.322h613.163v16.162H10.354z" style="fill:#fcdd09;fill-opacity:1;fill-rule:evenodd;stroke:#000;stroke-width:1.99999988;stroke-linecap:butt;stroke-linejoin:miter;stroke-miterlimit:4;stroke-opacity:1;stroke-dasharray:none;stroke-dashoffset:0" transform="translate(103.688 -85.538)"/><path d="M-80.788 519.128c40.748 12.454 36.548 26.46 82.746 26.46h612.969c46.197 0 41.997-14.006 82.745-26.46z" style="color:#000;fill:#fcdd09;fill-opacity:1;stroke:#000;stroke-width:2;stroke-linecap:butt;stroke-linejoin:miter;stroke-miterlimit:4;stroke-opacity:1;stroke-dasharray:none;stroke-dashoffset:0;marker:none;visibility:visible;display:inline;overflow:visible" transform="translate(103.688 -85.538)"/><path d="M-93.744 501.11h821.359v18.94H-93.744z" style="fill:#fcdd09;fill-opacity:1;fill-rule:evenodd;stroke:#000;stroke-width:1.99999952;stroke-linecap:butt;stroke-linejoin:miter;stroke-miterlimit:4;stroke-opacity:1;stroke-dasharray:none;stroke-dashoffset:0" transform="translate(103.688 -85.538)"/><path stroke-miterlimit="2.414" d="M243.099 19.97s9.25-3.076 17.282.347c2.274 6.633.13 16.043.13 16.043s9.914-1.025 14.217 2.383c2.3 8.524-2.822 16.07-2.822 16.07s7.664 1.345 10.82 5.982c-.87 10.093-7.22 15.075-7.22 15.075s5.989 6.29 6.177 12.312c-3.892 6.612-10.906 10.412-20.099 9.503 0 2.919-.376 6.382-3.375 9.487-2.812 2.549-6.937 4.009-11.439 2.912-1.502 12.044 9.187 21.712 23.443 23.534 13.132 1.094 28.513-4.375 32.453-16.601-4.504.731-9.195-1.822-10.692-5.836-1.877-5.839 2.436-12.222 2.436-12.222-.25-.307-3.896-2.569-6.743-10.203 1.243-7.983 9.583-14.022 9.583-14.022s-3.956-9.424-2.46-14.71c4.766-7.273 12.427-7.273 12.427-7.273s1.705-12.72 5.454-15.64c6.567-2.188 11.81-.706 11.81-.706s.997-12.092 7.284-16.376c6.358.051 11.789 3.725 11.789 3.725s7.351-8.893 13.65-8.308c5.328 3.328 5.576 14.493 5.576 14.493s6.744-.034 11.918 3.362c2.34 6.863-4.6 17.179-4.6 17.179s5.189 1.637 9.097 6.956c1.162 4.388-5.607 15.595-5.607 15.595s6.193 4.142 5.389 12.6c-2.175 5.082-11.41 10.562-11.41 10.562s2.875 9.392-1.232 16.519c-7.192 4.633-12.098 4.697-12.413 4.82 0 0-2.836 9.57-13.18 7.877-2.252 4.014-4.125 17.873 8.253 20.789 16.42 1.53 21.571-13.493 21.571-13.493s-3.66-8.59-1.769-18.601c4.832-4.547 9.704-5.022 9.704-5.022s-.804-8.397 2.253-14.038c2.065-1.648 9.999-1.53 9.999-1.53s1.711-8.781 6.451-12.041c6.628.207 11.094 2.794 11.094 2.794s4.48-6.257 12.892-9.41c6.476 2.668 11.271 6.771 11.271 6.771s11.257-3.098 16.699-2.004c6.749.733 10.875 5.474 12.002 10.578-7.504-.91-13.129 1.825-17.077 6.387-3.561 4.013-5.441 10.399-10.692 14.775-6.752 6.93-8.44 6.749-15.195 9.299-.745 3.833-2.061 8.759-5.814 12.041-3.563 3.281-9.938 4.922-15.57 5.292-5.813 8.932-10.69 17.33-15.565 27.356 0 .185-21.192 49.066-21.192 48.888-36.764-18.057-88.986-27.541-129.947-27.178-40.962-.363-93.183 9.121-129.947 27.178 0 .178-21.192-48.703-21.192-48.888-4.875-10.026-9.752-18.424-15.565-27.356-5.632-.37-12.007-2.011-15.57-5.292-3.753-3.282-5.069-8.208-5.814-12.041-6.755-2.55-8.443-2.369-15.195-9.299-5.251-4.376-7.131-10.762-10.692-14.775-3.948-4.562-9.573-7.297-17.077-6.387 1.127-5.104 5.253-9.845 12.002-10.578 5.442-1.094 16.699 2.004 16.699 2.004s4.795-4.103 11.271-6.77c8.412 3.152 12.892 9.409 12.892 9.409s4.466-2.587 11.094-2.794c4.74 3.26 6.451 12.042 6.451 12.042s7.934-.119 10 1.53c3.056 5.64 2.252 14.037 2.252 14.037s4.872.475 9.704 5.022c1.89 10.011-1.769 18.601-1.769 18.601s5.152 15.023 21.571 13.493c12.378-2.916 10.505-16.775 8.253-20.789-10.344 1.693-13.18-7.878-13.18-7.878-.315-.122-5.22-.186-12.413-4.819-4.107-7.127-1.232-16.519-1.232-16.519s-9.235-5.48-11.41-10.562c-.805-8.458 5.39-12.6 5.39-12.6s-6.77-11.207-5.608-15.595c3.908-5.32 9.097-6.956 9.097-6.956s-6.94-10.316-4.6-17.179c5.174-3.396 11.918-3.362 11.918-3.362s.248-11.165 5.576-14.493c6.299-.585 13.65 8.308 13.65 8.308s5.431-3.674 11.79-3.725c6.286 4.284 7.283 16.376 7.283 16.376s5.243-1.482 11.81.706c3.749 2.92 5.454 15.64 5.454 15.64s7.66 0 12.427 7.274c1.496 5.285-2.46 14.71-2.46 14.71s8.34 6.038 9.583 14.021c-2.847 7.634-6.319 9.7-6.743 10.203 0 0 4.313 6.383 2.436 12.222-1.497 4.014-6.188 6.567-10.692 5.836 3.94 12.226 19.321 17.695 32.453 16.601 14.256-1.822 24.945-11.49 23.443-23.534-4.502 1.097-8.627-.363-11.439-2.912-2.999-3.105-3.375-6.568-3.375-9.487-9.193.909-16.207-2.89-20.099-9.503.188-6.021 6.177-12.312 6.177-12.312s-6.35-4.982-7.22-15.075c3.156-4.637 10.82-5.982 10.82-5.982s-5.121-7.546-2.822-16.07c4.303-3.408 14.217-2.383 14.217-2.383s-2.144-9.41.13-16.043c8.032-3.423 17.354-.347 17.354-.347S216.508 5.808 230.11-1c13.602 6.808 12.989 20.97 12.989 20.97z" style="fill:#fcdd09;fill-opacity:1;stroke:#000;stroke-width:2.7662;stroke-miterlimit:2.4142" transform="matrix(.61657 0 0 .67106 278.745 1.56)"/><path stroke-miterlimit="2.414" d="M90.202 223.937c-3.185 1.271-6.381-.551-7.506-3.104-1.125-2.739-.372-6.021 3.002-7.48 41.458-18.059 97.635-28.459 144.412-28.459s102.954 10.4 144.412 28.459c3.374 1.459 4.127 4.741 3.002 7.48-1.125 2.553-4.321 4.375-7.506 3.104-41.074-17.514-90.704-27.551-139.908-27.551s-98.834 10.037-139.908 27.551z" style="fill:#fcdd09;fill-opacity:1;stroke:#000;stroke-width:2.76620007;stroke-miterlimit:2.41420007" transform="matrix(.61657 0 0 .67106 278.745 1.56)"/><path d="M251.938 132.375a3.6 3.6 0 0 0-1.25.344c-3.583 1.592-3.945 7.107-2.094 12.125 2.195 4.776 6.03 7.724 9.5 6.375 3.24-1.84 3.702-6.857 1.969-11.75-1.422-4.076-5.07-7.394-8.125-7.094zm131.156 0c-2.9.188-6.118 3.31-7.438 7.094-1.734 4.893-1.272 9.91 1.969 11.75 3.47 1.349 7.274-1.599 9.469-6.375 1.85-5.018 1.52-10.533-2.063-12.125-.607-.298-1.268-.387-1.937-.344z" style="fill:#078930;fill-opacity:1;stroke:#000;stroke-width:1.5;stroke-miterlimit:2.41420007;stroke-dasharray:none" transform="translate(102.772 -85.538)"/><path d="M317.844 123.719c-4.665.364-6.854 5.884-6.969 10.781.116 4.77 3.229 9.907 6.969 10.031 3.74-.124 6.884-5.262 7-10.031-.116-4.897-2.336-10.417-7-10.781zm-109.75 41.5c-2.082-.015-4.412.775-6.205 1.939.23 2.569 1.223 6.242 3.767 8.936 2.66 2.323 6.59 2.944 9.25 3.187 1.85-1.71 2.544-7.956-1.156-11.75-1.561-1.59-3.574-2.297-5.656-2.312zm219.531 0c-2.082.015-4.126.722-5.687 2.312-3.7 3.794-3.006 10.04-1.157 11.75 2.66-.243 6.621-.864 9.281-3.187 2.544-2.694 3.497-6.09 3.728-8.66-1.794-1.164-4.083-2.23-6.165-2.215z" style="fill:#da121a;fill-opacity:1;stroke:#000;stroke-width:1.5;stroke-miterlimit:2.4142;stroke-dasharray:none" transform="translate(102.772 -85.538)"/><path d="m317.219 152.719.656.781.625-.781 3.672-6-4.297 3.969-4.344-3.97zm-58.313 7.094.906.718.407-1.156 1.265-6.797-2.515 5.016-5-2.844zm117.813-2.22-2.516-5.015 1.297 6.797.375 1.156.938-.719 4.921-5.062z" style="font-size:medium;font-style:normal;font-variant:normal;font-weight:400;font-stretch:normal;text-indent:0;text-align:start;text-decoration:none;line-height:normal;letter-spacing:normal;word-spacing:normal;text-transform:none;direction:ltr;block-progression:tb;writing-mode:lr-tb;text-anchor:start;baseline-shift:baseline;color:#000;fill:#000;fill-opacity:1;stroke:none;stroke-width:2.76620007;marker:none;visibility:visible;display:inline;overflow:visible;font-family:Sans;-inkscape-font-specification:Sans" transform="translate(102.772 -85.538)"/><path d="m131.366 140.033 23.224-5.17c-7-4.837-16.894-15.422-16.894-15.422s-2.969 13.229-6.33 20.592z" style="fill:none;stroke:#000;stroke-width:2.33196;stroke-miterlimit:2.4142;stroke-dasharray:none" transform="matrix(.61657 0 0 .67106 278.745 1.56)"/><path d="m317.844 187.906-11.438 11.5 11.438 11.625 11.437-11.625zm-45.781 3.975-9.125 13.844 12.593 9.531 9.156-13.937zm91.562 0-12.594 9.438 9.125 13.937 12.625-9.53zm-135.969 13.556-5.125 15.313 13.313 5.625 7.031-14.437zm180.407 0-15.25 6.5 7.03 14.438 13.313-5.625z" style="fill:#078930;fill-opacity:1;stroke:#000;stroke-width:1.5;stroke-miterlimit:2.4142;stroke-dasharray:none" transform="translate(102.772 -85.538)"/><path d="M294.875 195.313c-2.81 0-5.062 2.432-5.062 5.406s2.252 5.375 5.062 5.375 5.094-2.402 5.094-5.375c0-2.974-2.284-5.406-5.094-5.406zm45.938 0c-2.81 0-5.094 2.432-5.094 5.406s2.283 5.375 5.094 5.375c2.81 0 5.093-2.402 5.093-5.375 0-2.974-2.284-5.406-5.094-5.406zm-88.75 8.53c-2.81 0-5.094 2.402-5.094 5.376s2.283 5.375 5.094 5.375c2.81 0 5.093-2.401 5.093-5.375s-2.283-5.375-5.094-5.375zm131.562 0c-2.81 0-5.094 2.402-5.094 5.376s2.283 5.375 5.094 5.375c2.81 0 5.094-2.401 5.094-5.375s-2.284-5.375-5.094-5.375z" style="fill:#da121a;fill-opacity:1;stroke:#000;stroke-width:1.5;stroke-miterlimit:2.41420007;stroke-dasharray:none" transform="translate(102.772 -85.538)"/><path stroke-miterlimit="2.414" d="M389.059 167.716c3.189 1.094 4.129 4.561 2.818 7.296-.749 2.373-3.566 4.014-6.381 3.098-52.707-19.145-104.301-27.908-155.386-27.908s-102.679 8.763-155.386 27.908c-2.815.916-5.632-.725-6.381-3.098-1.311-2.735-.371-6.202 2.818-7.296 52.705-19.883 105.057-29.366 158.949-29.366s106.244 9.483 158.949 29.366z" style="fill:#fcdd09;fill-opacity:1;stroke:#000;stroke-width:2.76620007;stroke-miterlimit:2.41420007" transform="matrix(.61657 0 0 .67106 278.745 1.56)"/><path d="m328.854 140.033-23.224-5.194c6.924-4.604 16.894-15.398 16.894-15.398s2.969 13.229 6.33 20.592zm-84.931-11.964c-5.515-6.388-13.813-18.702-13.813-18.702s-7.537 12.453-13.357 18.702z" style="fill:none;stroke:#000;stroke-width:2.33196;stroke-miterlimit:2.4142;stroke-dasharray:none" transform="matrix(.61657 0 0 .67106 278.745 1.56)"/><path d="M343.164 114.837c-4.505-1.463-8.256 7.296-2.063 9.846 5.25 1.826 9.754-.909 11.629-6.748 1.312-4.561-1.689-11.309-9.377-11.309-6.755.184-11.631 6.017-11.631 14.414 0 6.563 1.877 10.762 6.19 17.145 2.812 3.467 4.125 4.927 11.067 8.393 12.378 4.919 28.507-3.835 31.698-16.601-3.19 2.554-6.394 3.283-9.956 2.735m-71.337-25.831c2.627-2.55 7.313-1.456 7.878 2.92.563 5.292-7.316 9.668-12.946 4.564-6-6.021-1.5-13.5 2.253-15.873 3.939-2.003 9.004-2.917 13.879 1.093 4.502 4.561 5.441 13.32-1.311 22.075-7.692 9.483-20.449 13.494-37.89 12.403-10.13-.913-16.507-5.473-22.321-11.309-5.25-5.84-10.316-16.051-9.194-23.169 1.503-8.57 10.507-11.305 16.698-7.658 5.813 3.83 5.254 11.488 1.31 15.323-2.999 2.551-8.253 3.648-11.25.91-3.571-3.645-2.256-10.762 5.064-8.937m-134.498 15.614c4.505-1.463 8.256 7.296 2.063 9.846-5.25 1.826-9.754-.909-11.629-6.748-1.312-4.561 1.689-11.309 9.377-11.309 6.755.184 11.631 6.017 11.631 14.414 0 6.563-1.877 10.762-6.19 17.145-2.812 3.467-4.125 4.927-11.067 8.393-12.378 4.919-28.507-3.835-31.698-16.601 3.19 2.554 6.702 3.377 10.264 2.83m71.029-25.926c-2.627-2.55-7.313-1.456-7.878 2.92-.563 5.292 7.316 9.668 12.946 4.564 6-6.021 1.5-13.5-2.253-15.873-3.939-2.003-9.004-2.917-13.879 1.093-4.502 4.561-5.441 13.32 1.311 22.075 7.692 9.483 20.449 13.494 37.89 12.403 10.13-.913 16.507-5.473 22.321-11.309 5.25-5.84 10.316-16.051 9.194-23.169-1.503-8.57-10.507-11.305-16.698-7.658-5.813 3.83-5.254 11.488-1.31 15.323 2.999 2.551 8.253 3.648 11.25.91 3.571-3.645 2.256-10.762-5.064-8.937" style="fill:none;stroke:#000;stroke-width:2.33195734;stroke-linecap:round;stroke-linejoin:round;stroke-miterlimit:2.41420007;stroke-dasharray:none" transform="matrix(.61657 0 0 .67106 278.745 1.56)"/><path d="m422.564 100.573-6.563 17.145m-2.755-18.914-3.94 17.73m-6.82-9.653 1.127 10.215m-9.206-4.298 4.878 6.748m-9.746 2.928 6.75 1.456m-12.201 7.875 10.51-1.823m-80.113-74.507 10.318 19.702m-14.161-4.51 12.565 9.305m-.884 2.963-15.566.362m15.265 5.185-13.883 4.383m29.592-.241 8.629 8.39m6.108-7.317-10.502-6.749m12.43-2.017-11.069-1.094m16.238-7.85-15.569 3.829m.114-5.165 16.881-12.95m-19.141 7.871 15.757-19.513m-19.243 17.564 9.943-31.559m-12.162 7.146-2.44 24.835m-6.817-17.642 2.063 20.064m-82.856 13.725-6.663-4.983m18.47 2.754-17.51-6.129m.929-5.481 21.267-2.977m-23.198-6.473 17.344-9.002m-19.381 5.439 12.677-12.213m-1.596-13.515-13.521 24.005m-3.074-1.072 3.91-14.636m5.068 25.546 13.757-3.326m-13.323 10.91 14.771 2.262M37.656 100.573l6.563 17.145m2.755-18.914 3.939 17.73m6.821-9.653-1.127 10.215m9.206-4.298-4.878 6.748m9.746 2.928-6.75 1.456m12.201 7.875-10.51-1.823m80.113-74.507-10.318 19.702m14.161-4.51-12.565 9.305m.884 2.963 15.566.362m-15.265 5.185 13.883 4.383m-29.592-.241-8.629 8.39m-6.108-7.317 10.502-6.749m-12.43-2.017 11.069-1.094m-16.238-7.85 15.569 3.829m-.114-5.165-16.881-12.95m19.141 7.871-15.757-19.513m19.243 17.564-9.943-31.559m12.162 7.146 2.44 24.835m6.817-17.642-2.063 20.064m98.776-48.038v32.246m-15.92 29.517 6.663-4.983m-18.47 2.754 17.51-6.129m-.929-5.481-21.267-2.977m23.198-6.473-17.344-9.002m19.381 5.439L210.19 45.127m1.596-13.515 13.521 24.005m3.074-1.072-3.91-14.636m-5.068 25.546-13.757-3.326m13.323 10.91-14.771 2.262" style="fill:none;stroke:#000;stroke-width:1.86557;stroke-linecap:round;stroke-miterlimit:2.4142;stroke-dasharray:none" transform="matrix(.61657 0 0 .67106 278.745 1.56)"/><path d="M57.163 226.007v229.407c0 86.636 77.284 161.24 174.377 161.24 97.089 0 174.093-74.604 174.093-161.24V226.007z" style="fill:#da121a;fill-opacity:1;stroke:#000;stroke-width:3.84209991" transform="matrix(.61657 0 0 .67106 277.95 1.56)"/><path d="M67.087 234.432v218.286c0 82.439 72.85 153.425 164.37 153.425S395.56 535.161 395.56 452.718V234.432z" style="fill:#da121a;fill-opacity:1;stroke:#000;stroke-width:3.20160007" transform="matrix(.61657 0 0 .67106 277.95 1.56)"/><path d="M184.868 381.645c7.529-7.244 15.604-14.271 23.279-21.328-4.447-4.678-14.619-13.313-14.619-13.313l-7.659 6.825 8.09 8.006-6.454 5.938-14.511-12.832 21.749-19.447 27.232 24.458s-20.303 18.415-30.139 27.791m-43.896-39.43c22.011-20.482 44.822-40.649 67.261-60.68-9.211-8.91-29.051-26.168-29.051-26.168l-21.106 19.096 14.784 13.154 7.133-6.355-8.162-8.166 5.584-5.099 15.979 14.126-19.722 17.711-29.124-26.015 33.281-30 .403-.059 79.43 71.613-33.286 30.166-27.305-24.574 19.684-17.719 14.491 12.891-5.767 5.201-9.127-7.314-7.102 6.472 14.721 13.212s14.313-12.781 21.222-19.103c-9.345-8.938-29.112-26.088-29.112-26.088l-67.533 60.462m-43.94-39.657 30.815-27.086 28.975 26.039-21.748 19.441-15.878-14.14 6.503-5.927 9.246 7.338 7.632-6.689-15.017-13.461-23.372 20.911" style="fill:#f3f2f2;stroke:#000;stroke-width:2.07480001" transform="matrix(.6273 0 0 .68274 274.134 2.2)"/><path d="M329.333 520.067c-.518-.313-.295-.022-.554-.224 3.939-5.44-1.436-12.358-8.397-10.881.808-3.228-3.296-5.073-6.161-3.731l-1.021.768c-9.697-12.507-6.534-40.088 2.598-53.579l.545.191c2.816 1.572 6.317-.648 5.911-3.566 7.438 2.327 12.85-5.279 8.546-10.875l-.11-.323c5.646-2.615 7.758-2.874 11.529-5.401 7.993-5.354 7.859-13.428 1.985-18.916-8.2-7.657-22.241-3.122-25.639 7.851-.146.46-.358 2.12-1.278 2.339l-1.39-.567c-5.622-2.763-12.219 1.811-11.296 7.448-3.221-.924-5.724 2.244-4.646 4.887l.451 1.093c-18.47 9.303-42.47 7.466-59.925-2.953l.531-.753c1.774-2.926-1.082-5.803-4.318-5.999 1.764-5.804-4.398-10.829-10.561-10.274.14-1.809-1.031-3.605-2.738-4.646-2.042-1.45-6.006.64-6.006.64L94.849 301.302l-14.714 11.979 120.266 114.021-1.018 1.684c-1.354 2.979 1.39 5.381 4.46 5.8l-.363 3.51c.53 4.805 6.01 7.653 10.923 7.075-.782 3.126 2.633 5.54 5.858 4.691l.874-.279c11.656 14.783 13.69 35.529 5.503 51.88l-.742-.383c-2.83-1.677-6.352.409-6.264 3.358-7.447-1.848-12.881 5.814-8.367 11.362-4.872 2.429-8.74 3.215-12.29 5.931-15.005 11.474 4.418 28.406 18.257 19.546 3.746-2.396 6.053-7.872 7.611-11.443l2.027.934c5.518 2.653 11.655-2.702 10.547-7.879 3.306.919 5.797-2.358 4.61-5.03l.025-1.487c17.551-6.673 39.639-5.425 55.596 3.991l-.274.45c-1.683 2.687.756 5.981 4.148 5.363-1.899 7.383 7.075 10.786 13.098 6.731 2.986 8.494 13.899 19.755 24.757 12.69 10.49-6.825 6.813-24.764-10.044-25.73zm-44.586-30.98c-3.492 5.078-11.813-.271-15.104-3.905-3.528 3.674-12.14 9.077-15.863 2.837-1.059-4.246 2.563-7.794 5.673-10.393-3.334-2.896-10.53-12.298-4.289-14.701 5.34-2.052 9.782 4.708 13.888 6.756 3.288-3.401 9.338-7.974 14.004-5.263 6.055 3.516.319 11.127-4.656 13.813 3.655 2.473 9.096 6.856 6.347 10.856z" style="fill:#f3f2f2;stroke:#000;stroke-width:2.6407001" transform="matrix(.6273 0 0 .68274 274.134 2.2)"/><path d="M312.433 448.462c-13.067 18.164-15.075 42.663-3.536 61.77m-72.159-73.24c20.068 12.287 46.424 13.581 67.934 3.312M230.3 505.823c10.152-18.906 8.687-42.062-4.811-59.377m75.895 70.862c-18.729-11.566-43.804-13.793-64.136-4.379" style="fill:none;stroke:#000;stroke-width:1.88619995;stroke-linecap:round" transform="matrix(.6273 0 0 .68274 274.134 2.2)"/><path d="M297.343 504.397a82 82 0 0 0-8.032-3.179 75 75 0 0 0-7.27-2.035 79 79 0 0 0-3.427-.686 71 71 0 0 0-6.604-.833 71 71 0 0 0-6.494-.197 70 70 0 0 0-3.287.133 67 67 0 0 0-3.36.3 68 68 0 0 0-3.47.479 73 73 0 0 0-7.399 1.592 78 78 0 0 0-4.001 1.184 87 87 0 0 0-4.248 1.503 70 70 0 0 0 1.939-3.73 66 66 0 0 0 1.572-3.529 61 61 0 0 0 1.258-3.357q.558-1.638.989-3.211.434-1.574.759-3.097c.217-1.021.399-2.023.551-3.016a51 51 0 0 0 .556-5.896q.05-1.464.02-2.939a53 53 0 0 0-.15-2.973 50 50 0 0 0-.333-3.04 54 54 0 0 0-1.281-6.404 60 60 0 0 0-1.008-3.424 64 64 0 0 0-1.308-3.617 71 71 0 0 0-1.664-3.839 82 82 0 0 0 8.039 3.175c1.269.428 2.502.804 3.713 1.141a72 72 0 0 0 6.981 1.581 71 71 0 0 0 6.602.836c1.084.083 2.162.142 3.242.175a69 69 0 0 0 6.532-.114 71 71 0 0 0 6.831-.775 73 73 0 0 0 3.612-.68 79 79 0 0 0 7.79-2.097 89 89 0 0 0 4.249-1.502 70 70 0 0 0-1.938 3.73 66 66 0 0 0-1.572 3.526 58 58 0 0 0-2.248 6.57 54 54 0 0 0-.758 3.097 51 51 0 0 0-.916 5.972q-.141 1.47-.191 2.937t-.02 2.938q.03 1.476.148 2.978.119 1.499.332 3.04a54 54 0 0 0 .531 3.139c.214 1.063.461 2.15.752 3.262a60 60 0 0 0 1.012 3.427c.383 1.17.816 2.376 1.307 3.617a70 70 0 0 0 1.662 3.838zm-71.312-2.568 16.101 16.425m55.04 3.611 17.716-17.107m-90.27 24.803-13.355-13.563m8.369-11.36 17.784 18.449m94.009-84.022-13.979-15.127m-12.846 6.655 17.651 18.451m-20.728 77.331 18.858-17.411m-6.345 24.301 14.894-13.798m-114.531-74.099 22.292-18.497m-32.611 7.767 22.054-18.046m90.082 35.661-16.019-16.81m-79.948 14.432 20.271-17.101m-40.437-4.777 17.638-15.535" style="fill:none;stroke:#000;stroke-width:2.26340008;stroke-linecap:round" transform="matrix(.6273 0 0 .68274 274.134 2.2)"/><path d="M164.024 256.488s5.682 4.34 8.46 11.158c0 0 5.432 3.977 13.892-4.989s20.958-24.857 20.958-24.857.631-9.975 10.354-12.879 9.905 2.4 18.491-.126c7.911-2.327 12.69 5.556 10.228 11.364 0 0 2.343 5.578-2.568 9.596 0 0-1.696-5.09-4.643-6.875 0 0-.753.682-1.964.982 0 0 .893 5.179-1.34 8.304 0 0-4.017-5.357-6.07-6.25 0 0-.983 1.25-2.947 1.607 0 0-.179 4.553.179 7.321 0 0-4.688.357-7.813-3.928 0 0-5.67 2.143-8.17-1.518v27.5s-2.589 4.286-7.589 5.803c0 0 5.357 7.59.536 17.59 0 0-3.036-6.34-8.036-7.59 0 0 6.964 13.125-2.143 21.429 0 0-1.696-8.929-7.053-13.482 0 0 3.482 13.036-3.929 20.09 0 0-.625-8.037-2.321-10.447-2.85 3.825-6.17 6.16-13.036 6.25-3.75-1.161-11.964-15.447-11.964-15.447s-4.453-29.515 8.488-40.606z" style="color:#000;fill:#fcdd09;fill-opacity:1;stroke:#000;stroke-width:2;stroke-linecap:butt;stroke-linejoin:miter;stroke-miterlimit:4;stroke-opacity:1;stroke-dasharray:none;stroke-dashoffset:0;marker:none;visibility:visible;display:inline;overflow:visible" transform="translate(102.071 -85.538)"/><path d="M219.324 246.772s-2.141-5.562 4.551-6.383c0 0 2.254.66 2.773 4.695m3.288-3.559s-.379-4.735 4.23-5.997c0 0 2.43.947 3.03 4.798m2.077-1.894s.063-2.368 1.262-4.388c0 0 4.988-.947 6.061 2.967" style="color:#000;fill:none;stroke:#000;stroke-width:1.5;stroke-linecap:butt;stroke-linejoin:miter;stroke-miterlimit:4;stroke-opacity:1;stroke-dasharray:none;stroke-dashoffset:0;marker:none;visibility:visible;display:inline;overflow:visible" transform="translate(102.071 -85.538)"/><path d="m234.308 235.994 1.547.39c-.65-5.933-5.407-8.307-10.011-5.915 4.413-1.133 7.753 1.14 8.464 5.525m-10.96 4.506 1.531.351c-.621-6.134-4.799-7.897-9.207-6.71 4.356.056 6.809 2.441 7.676 6.359m-13.053 5.295 2.049-.398s-2.377-3.057-2.938-6.585c-1.06 4.064.889 6.983.889 6.983" style="font-size:medium;font-style:normal;font-variant:normal;font-weight:400;font-stretch:normal;text-indent:0;text-align:start;text-decoration:none;line-height:normal;letter-spacing:normal;word-spacing:normal;text-transform:none;direction:ltr;block-progression:tb;writing-mode:lr-tb;text-anchor:start;baseline-shift:baseline;color:#000;fill:#000;fill-opacity:1;stroke:none;stroke-width:1;marker:none;visibility:visible;display:inline;overflow:visible;font-family:Sans;-inkscape-font-specification:Sans" transform="translate(102.071 -85.538)"/><path d="M37.123 367.352s5.43 17.047 20.708 18.562c15.279 1.515 29.926 2.652 40.533 17.173 0 0 10.297-.01 11.011-5.903s-3.66-7.322-5.536-6.875c-1.875.446-.714 3.303-.714 3.303s-6.607.268-5.804-5.803c.804-6.072 9.643-6.697 14.554-1.518 4.91 5.178 6.071 19.285-11.429 22.232 0 0 9.554 4.821 16.25-3.84.685.514 4.494 10.625-11.785 11.25 0 0 6.16 4.197 13.214-.892 0 0 1.16 10.268-14.196 9.107 0 0 3.75 3.928 12.41 2.5 0 0-3.125 8.393-12.009 5.714 0 0-5.937 26.16 24.241 27.143 0 0 1.786-2.59 6.072-1.071 0 0 3.036-5.983 10.625-1.518 0 0 6.786-1.875 9.643 3.303 2.857 5.179-1.697 9.375-1.697 9.375s-1.071-7.768-7.41-5.714c0 0 .625 3.304-1.697 4.375 0 0 3.66 10-3.928 13.393 0 0-.268-4.643-4.286-7.679 0 0-8.304 4.197-16.697-.625 0 0-1.696 1.786-3.66 1.786 0 0-.893 6.518-4.554 8.75 0 0-1.071-5.625-4.553-8.482 0 0-5.715 2.5-8.572-.893s-1.428-8.482-1.428-8.482l-3.572-.625s-4.464 4.553-4.643 10.268c0 0-7.678-3.929-3.66-13.572 0 0-1.875-2.589.357-5.714 0 0-4.732-6.25-8.572-9.375 0 0-9.464 7.768-10 18.304 0 0-10.803-7.143-.268-22.59 0 0-10.535 1.786-11.785 14.732 0 0-11.697-10 5.803-24.464 0 0-13.393.625-15.535 14.554 0 0-4.822-10.536 2.321-19.286 2.639-3.232 6.605-5.343 10.558-6.721 0 0 1.138-6.761-6.45-8.19-7.59-1.428-24.733-5.893-30.18-13.035s.675-30.198 16.32-32.957z" style="color:#000;fill:#fcdd09;fill-opacity:1;stroke:#000;stroke-width:2;stroke-linecap:butt;stroke-linejoin:miter;stroke-miterlimit:4;stroke-opacity:1;stroke-dasharray:none;stroke-dashoffset:0;marker:none;visibility:visible;display:inline;overflow:visible" transform="translate(102.071 -85.538)"/><path d="M106.445 474.997s-1.2-2.589.316-6.25c0 0 7.45-1.831 8.586 6.124m20.897-.758s-5.177-4.925-1.641-10.796c0 0 8.081-.19 9.407 5.366m1.83-5.05s-2.967-2.905-1.199-6.756m-59.788 5.367s5.808-2.084 7.765 2.967m41.164-6.945s4.988 1.705 5.493 5.809" style="color:#000;fill:none;stroke:#000;stroke-width:1.5;stroke-linecap:butt;stroke-linejoin:miter;stroke-miterlimit:4;stroke-opacity:1;stroke-dasharray:none;stroke-dashoffset:0;marker:none;visibility:visible;display:inline;overflow:visible" transform="translate(102.071 -85.538)"/><path d="M112.5 463.406c4.535 1.493 5.853 5.559 6 9.875l1.5.031c1.067-6.193-2.898-10.413-7.219-11.375-5.64-.922-9.125-4.49-11.515-8.843 1.246 6.207 6.032 9.258 11.234 10.312" style="font-size:medium;font-style:normal;font-variant:normal;font-weight:400;font-stretch:normal;text-indent:0;text-align:start;text-decoration:none;line-height:normal;letter-spacing:normal;word-spacing:normal;text-transform:none;direction:ltr;block-progression:tb;writing-mode:lr-tb;text-anchor:start;baseline-shift:baseline;color:#000;fill:#000;fill-opacity:1;stroke:none;stroke-width:1.5;marker:none;visibility:visible;display:inline;overflow:visible;font-family:Sans;-inkscape-font-specification:Sans" transform="translate(102.071 -85.538)"/><path d="M48.866 308.385s-34.045 30.406-70.295 40.049c-36.25 9.642-51.545.665-51.724-15.228-.179-15.892 18.904-20.099 36.903-16.915 19.825 3.506 53.432-8.723 57.918-35.144 4.822-28.393-6.516-39.811-6.516-39.811s3.536-4.672 7.955-5.682c-.442-3.365-5.896-5.256-9.975-3.662 0 0 5.808-9.218-1.515-15.279 0 0-1.768 10.86-10.228 9.85 0 0 7.324-5.304 2.02-14.016-5.303-8.713-.252-15.658 4.672-13.259 4.925 2.4 3.35 6.573-1.54 7.555 1.37 4.469 8.234 4.99 10.419-.935 2.616-7.093-5.048-18.23-15.306-13.93-10.258 4.298-5.113 13.63-5.806 21.025-.614 6.561-6.572 8.182-6.572 8.182.507-.884 2.719-8.425.456-16.68-2.517-9.186-10.501-10.455-13.84-9.018 0 0 4.108 5 3.483 9.464 0 0-8.214-13.392-22.946-4.553 0 0 15.625 4.196 13.482 20.803 0 0-7.947-.714-11.34 4.822s-10.803 2.59-8.571-3.125 1.429-11.875-4.91-12.857-6.161 5.357-9.822 7.5-7.143-1.161-5.179-6.072c0 0-7.143 2.59-6.16 9.554s10.535 7.946 13.303 3.214 5.625-.982 4.286 1.34c-1.34 2.32-7.232 5.089-4.286 10.267 2.947 5.179 10.648 6.679 13.125 2.857s6.983-3.007 7.59.179c.589 3.095-1.5 5.412-6.697 3.393 0 0-1.099 7.366 8.66 4.732 5.626-1.518 6.786-9.018 12.322-12.5s8.304 2.321 7.5 5.09c-.803 2.767-4.954 3.223-9.018 3.75-7.842 1.015-13.375 8.307-13.303 15.981.072 7.679 4.196 15.536 13.571 13.84 9.375-1.697 9.464-12.232 2.947-15.268 0 0-.358 8.036-5.358 6.071s-2.767-11.964 2.947-12.946 17.678.536 22.232-4.286 1.154-9.636 1.154-9.636c7.056-.955 16.628 12.494 16.176 29.969-.451 17.495-16.259 42.792-46.437 36.185 0 0 6.063-8.002 1.643-17.346 0 0-3.283 4.167-6.818 5.556 0 0 3.03-12.122-5.051-15.784 0 0-.379 9.092-2.652 12.375 0 0-.757-15.405-8.334-15.91.2 3.55.994 10.063-2.777 14.142 0 0 1.136-8.965-7.703-11.87s-10.606-3.156-14.773-8.46c0 0-3.03 7.071.505 11.238s16.92 3.41 13.132 17.552c0 0-2.526-8.334-11.365-9.344-8.838-1.01-10.606 7.07-10.606 7.07s10.859-3.408 13.258 7.83c0 0-10.859-6.061-16.415 4.672 0 0 11.617 1.136 14.016 9.343 0 0-11.278 7.085-9.81 22.329 1.38 14.327 11.607 21.25 17.678 23.214 0 0-.292 7.238-9.257 11.531 0 0 8.208 5.43 15.026-.884 0 0-.858 4.71-4.072 7.478 0 0 10 2.768 14.107-7.857 0 0 .179 4.732-2.143 8.929 0 0 9.286.803 12.947-11.161 0 0 .892 6.428-2.143 12.857 3.118.367 15.47-.827 15-17.321 0 0 2.589 7.857 0 12.767 2.503.386 13.175-4.229 13.571-17.41 0 0 6.16 1.082-.988 18.009-7.15 16.926-12.828 26.524-24.434 34.747-9.4 6.659-16.29 4.545-21.087 1.01 0 0-3.157 9.217 3.788 11.364 0 0-17.19 9.513-26.922-1.827 0 0-6.071 14.554 10.715 16.786 0 0-13.125 4.286-19.643-2.679 0 0-3.84 16.25 14.732 13.84 0 0-5.536 6.785-18.84 7.589 0 0 1.34 6.518 12.59 5.357s16.786-10.536 16.786-10.536-1.875 19.018-6.161 24.733-12.857 8.303-12.768 15.625c.09 7.321 6.25 6.875 6.25 6.875s1.429 3.66 7.321 3.392l.447 5.179s7.053-.536 8.036-5.982c0 0 4.553.982 5.535-1.607 0 0 10.893 2.41 15-.625 0 0 3.125 4.107 3.125 8.125 0 0 5.893-2.59 5.179-8.482-.714-5.893-3.84-8.125-3.84-8.125s5.804-.983 7.5 5.714c0 0 2.947-3.482 1.43-9.197-1.519-5.714-10-5.446-10-5.446s-2.233-6.16-9.108-2.5c0 0-5.714-.982-4.732-10.446s14.821-16.518 21.428-17.947c0 0-5.246 17.01 12.558 15.368 0 0-9.85-8.965-.126-18.94 0 0-3.789 18.561 13.51 17.677 0 0-9.47-10.606-.378-20.581 0 0-3.662 19.697 14.015 17.298 0 0-12.88-9.722-1.515-21.465 0 0-4.42 21.97 16.163 17.677 0 0-15.658-5.934-7.324-21.97 0 0 2.778 20.708 16.036 14.52 0 0-11.364-7.828-7.955-21.34 0 0 5.682-3.03 4.293-16.414s-3.03-32.577 14.648-46.34c0 0 46.81-.143 59.977-5.304 15.784-6.187 24.584-11.594 24.584-11.594s14.324-5.804 24.804-7.32c10.48-1.515 16.443-14.754 14.657-26.004s-24.107-32.857-59.464-33.214-52.563 24.594-52.563 24.594z" style="color:#000;display:inline;overflow:visible;visibility:visible;fill:#fcdd09;fill-opacity:1;stroke:#000;stroke-width:2;stroke-linecap:butt;stroke-linejoin:miter;stroke-miterlimit:4;stroke-dasharray:none;stroke-dashoffset:0;stroke-opacity:1;marker:none" transform="translate(102.071 -85.538)"/><path d="M-76.745 504.037s-.709-7.338 3.193-9.658c0 0 5.18 1.015 4.94 8.03m21.247-1.66c-1.749-4.16-6.06-3.573-3.648-10.916 0 0 4.672-.757 7.829 2.4m-1.175-1.065s-3.939-4.807-.277-8.658" style="color:#000;fill:none;stroke:#000;stroke-width:1.5;stroke-linecap:butt;stroke-linejoin:miter;stroke-miterlimit:4;stroke-opacity:1;stroke-dasharray:none;stroke-dashoffset:0;marker:none;visibility:visible;display:inline;overflow:visible" transform="translate(102.071 -85.538)"/><path d="M-52.844 484.969c3.314.211 5.117 2.22 6.032 5.156l1.468-.312c-1.044-3.558-4.288-6.316-7.5-6.344-5.24.06-8.015-2.656-8.015-2.656s2.144 4.222 8.015 4.156m-13.562 6.625c2.823 2.46 3.042 5.828 2.406 9.25l1.469.344c.635-3.838-.09-8.766-3.032-10.844-3.622-2.118-5.04-5.314-6.093-8.719-.598 4.688 2.07 7.814 5.25 9.969m-18.219 8.937 1.438-.406c-.804-3.958 1.528-7.542-.079-11.234-.269 4.516-2.276 8.204-1.359 11.64m4.759-63.08s7.857 1.563 13.393-2.99c-3.036 5.089-13.572 6.07-13.572 6.07zm6.428 15.983s2.233-3.661 2.59-6.295c0 0 1.652 1.473-.223 8.125zm15.447-80.313s2.5-5 2.812-8.527c0 0 2.143 2.947.358 8.482zm11.071-2.277s1.786-3.348 1.295-8.348c0 0 3.125 2.366 1.875 9.598zm13.795-2.41s.67-6.384-.848-10.045c0 0 3.794 2.366 3.973 10.625z" style="font-size:medium;font-style:normal;font-variant:normal;font-weight:400;font-stretch:normal;text-indent:0;text-align:start;text-decoration:none;line-height:normal;letter-spacing:normal;word-spacing:normal;text-transform:none;direction:ltr;block-progression:tb;writing-mode:lr-tb;text-anchor:start;baseline-shift:baseline;color:#000;fill:#000;fill-opacity:1;stroke:none;stroke-width:1.5;marker:none;visibility:visible;display:inline;overflow:visible;font-family:Sans;-inkscape-font-specification:Sans" transform="translate(102.071 -85.538)"/><path d="M146.22 327.83s4.166 5.051 5.682 12.122c12.038 4.098 16.709 13.458 34.345 28.537l9.472.576s3.745-4.65 2.942-10.185c-.804-5.536 4.643-10.179 8.571-7.768 0 0 9.107-6.786 14.643 4.375 0 0-5.357-.625-7.857 1.964 0 0 1.607 6.34-6.25 6.161 0 0-1.964 3.572-2.768 5.268h1.875s2.857-3.304 7.143-1.34c4.286 1.965 3.482 7.769 3.482 7.769s8.482 4.464 4.821 13.571c0 0-3.482-4.286-8.571-4.643 0 0-.893 2.59-5 3.036 0 0 2.768 6.16-1.071 9.91 0 0 1.16 9.376-7.054 9.733 0 0 .982-5.179-1.607-8.929 0 0-6.638.175-5.982-4.821.714-5.447-1.429-7.411-1.429-7.411s-4.553.982-8.66.09c-.183 1.277-2.267 10.508-15.626 9.374 0 0 5.536-4.464 5.358-9.821-.594.594-5.523 9.183-15.625 6.964.263-.352 7.762-4.963 6.16-11.607-.987 3.135-6.946 9.964-16.25 8.125.09-.286 8.125-4.13 7.143-10.09-.846.763-7.834 10.454-16.071 6.072 0 0 8.571-5.58 6.785-11.16-3.392 5.133-11.428 9.91-17.946 6.517 5.944-4.051 8.546-6.093 8.66-10.446-2.57 2.375-15.076 9.053-21.428 1.786 5.722-1.429 11.118-4.197 11.518-8.483 0 0-3.388-5.312-13.031-8.437 0 0-2.773-7.634-1.433-19.777" style="color:#000;display:inline;overflow:visible;visibility:visible;fill:#fcdd09;fill-opacity:1;stroke:#000;stroke-width:2;stroke-linecap:butt;stroke-linejoin:miter;stroke-miterlimit:4;stroke-dasharray:none;stroke-dashoffset:0;stroke-opacity:1;marker:none" transform="translate(102.071 -85.538)"/><path d="M207.208 369.12s-9.85.947-13.511-.063m20.14-11.806s-4.04-.568-7.387.631c0 0-1.578-2.336.947-6.818m6.06 32.956s-2.714-3.283-2.588-6.819c0 0 2.652-1.957 6.63-1.578m-18.213 22.364s.982-3.214 3.035-5.178c0 0 3.881.315 5.22 4.69" style="color:#000;fill:none;stroke:#000;stroke-width:1.5;stroke-linecap:butt;stroke-linejoin:miter;stroke-miterlimit:4;stroke-opacity:1;stroke-dasharray:none;stroke-dashoffset:0;marker:none;visibility:visible;display:inline;overflow:visible" transform="translate(102.071 -85.538)"/><path d="M198.313 381.5c7.449.307 9.718 6.469 9.718 6.469l1.375-.563s-2.747-6.81-10.969-7.406c-7.46-.541-11.312-5.89-11.312-5.89s1.349 6.984 11.188 7.39" style="font-size:medium;font-style:normal;font-variant:normal;font-weight:400;font-stretch:normal;text-indent:0;text-align:start;text-decoration:none;line-height:normal;letter-spacing:normal;word-spacing:normal;text-transform:none;direction:ltr;block-progression:tb;writing-mode:lr-tb;text-anchor:start;baseline-shift:baseline;color:#000;fill:#000;fill-opacity:1;stroke:none;stroke-width:1.5;marker:none;visibility:visible;display:inline;overflow:visible;font-family:Sans;-inkscape-font-specification:Sans" transform="translate(102.071 -85.538)"/><path d="M80.923 213.279s.904 4.066 6.332 5.781l-.822-6.468z" style="color:#000;fill:#fff;stroke:#000;stroke-width:1;stroke-linecap:butt;stroke-linejoin:miter;stroke-miterlimit:4;stroke-opacity:1;stroke-dasharray:none;stroke-dashoffset:0;marker:none;visibility:visible;display:inline;overflow:visible" transform="translate(102.071 -85.538)"/><path d="M94.554 206.201c2.393 2.363 5.725 6.6 4.732 13.661 0 0-5.268-3.84-13.929.09-8.66 3.928-9.318 12.469-15.536 13.839-6.217 1.37-9.464-2.5-7.589-7.947 1.875-5.446-1.696-10-4.732-11.518 0 0-8.388 1.25-6.429 12.68 1.96 11.428 20.625 17.41 27.233 7.142 6.607-10.268 13.928-14.286 20.267-6.697 0 0-.625 5.715-3.303 9.375 0 0 6.25 2.233 6.786 1.965s6.428-7.41 6.428-7.768v-24.464z" style="color:#000;fill:#da121a;fill-opacity:1;stroke:#000;stroke-width:2;stroke-linecap:butt;stroke-linejoin:miter;stroke-miterlimit:4;stroke-opacity:1;stroke-dasharray:none;stroke-dashoffset:0;marker:none;visibility:visible;display:inline;overflow:visible" transform="translate(102.071 -85.538)"/><path d="M86.421 212.12s.752 4.094 6.108 6.007l-.58-6.489z" style="color:#000;fill:#fff;stroke:#000;stroke-width:1;stroke-linecap:butt;stroke-linejoin:miter;stroke-miterlimit:4;stroke-opacity:1;stroke-dasharray:none;stroke-dashoffset:0;marker:none;visibility:visible;display:inline;overflow:visible" transform="translate(102.071 -85.538)"/><path d="M159.464 300.576s16.965 12.679 11.072 31.608c-5.893 18.928-25.715 8.571-25.715 8.571s10.893-.893 11.786-14.464c.772-11.725-10.893-15.893-10.893-15.893s6.25 9.286 1.25 20.178-16.964 6.965-18.214 6.429c17.5-17.143-1.429-28.929-1.429-28.929 5.715 39.822-32.857 34.465-32.857 34.465s5.982-4.926 8.215-10.357c-11.608 8.571-26.965 2.678-26.965 2.678 6.429-3.036 11.429-10.178 11.429-10.178-15.714 6.785-23.929 0-23.929 0 7.857-.536 12.143-6.786 12.322-8.75-15 6.607-24.822-.179-24.822-.179 13.215-1.429 14.643-11.607 14.643-11.607s-6.607 6.607-16.964 6.25-12.5-8.929-12.5-8.929c9.464 1.25 15-5.714 15-5.714-4.464-1.964-12.5-1.071-12.5-1.071.893-7.5 12.5-10 12.5-10-3.393-2.5-7.835-2.058-7.835-2.058 3.662-9.597 23.6-9.396 23.6-9.396-4.799-3.41-13.499-3.736-13.499-3.736 6.44-7.576 20.456-8.965 32.325-8.081s8.965-6.566 8.965-6.566c-4.798 2.02-8.965-.884-8.965-.884 5.809-1.137 6.27-7.305 6.27-7.305s-3.266-.016-4.92-2.146c3.406-2.802 4.711-7.09 4.711-7.09-4.42-2.02-7.702-7.198-2.273-8.334 5.43-1.137 7.45 5.934 7.45 5.934 4.925-.757 10.733-9.09 8.208-19.571-2.526-10.48-13.385-7.829-13.385-7.829 2.02 6.692-4.59 8.587-9.964 6.699-5.372-1.888-5.062-11.245-5.062-11.245-3.788-4.293-5.556-11.616-5.556-11.616s4.925-4.42 13.385-8.208v-5.934s7.394-7.281 21.284-11.827c0 0 2.454-6.356-4.238-11.786 0 0 4.798-3.535 10.102.884 0 0-.127-5.43-2.778-8.46 0 0 11.364-4.546 16.415 9.344 0 0 2.399-4.42-.505-11.87 0 0 14.268-1.893 13.51 16.037 0 0 3.662-.631 2.4-10.733 0 0 14.015 1.641 8.46 15.657 0 0 6.818-.126 6.818-10.101 0 0 7.955.631 7.702 8.334-.252 7.702-5.177 9.47-5.177 9.47s12.375 2.904 11.996-9.975c6.843.7 10.311 16.349-1.263 19.192 0 0 14.774 4.167 17.93-8.08 0 0 9.976 9.722-.505 15.151 0 0 17.804 3.41 13.637 21.466 0 0-3.914-6.566-13.51-6.44 0 0 11.364 7.324 5.682 16.668 0 0-2.273-7.955-11.112-7.576 0 0 1.263 16.289 15.405 16.289 0 0-10.354 13.51-25.633-3.788 0 0 1.01 14.268 14.395 13.763 0 0-3.157 11.364-17.678 2.778 0 0 1.768 11.49 14.395 10.985 0 0-6.692 10.354-18.183 2.273 0 0-2.651 9.596 6.566 15.405 0 0-1.768 5.682-10.48 3.914 0 0 2.652 9.597 14.268 8.334 0 0-1.01 9.344-11.995 5.05 0 0 2.11 5.739 9.685 6.749 0 0-1.407 7.78-12.477 6.151z" style="color:#000;display:inline;overflow:visible;visibility:visible;fill:#fcdd09;fill-opacity:1;stroke:#000;stroke-width:2;stroke-linecap:butt;stroke-linejoin:miter;stroke-miterlimit:4;stroke-dasharray:none;stroke-dashoffset:0;stroke-opacity:1;marker:none" transform="translate(102.071 -85.538)"/><path d="M105.687 165.448s14.774 1.515 16.036 12.248c0 0 4.546-9.344 11.87-6.313S135.234 183 135.234 183c3.48 27.987-9.326 29.391-25.127 42.047 0 0 3.156 13.132.505 19.95 0 0 7.955-.378 9.091-9.974 2.756 2.073 2.402 6.562 2.4 7.954 6.436-.122 11.363-5.682 10.732-19.319 0 0 6.945 1.516 4.04 17.047 3.994-.444 17.94-7.662 5.809-31.568 0 0 10.607 3.41 10.733 14.269 4.732-.919 11.951-16.033-2.4-26.77 0 0 8.082-1.136 11.618 5.178 0 0 5.313-16.264-8.334-21.087S135.234 183 135.234 183M59.33 270.355s6.546 1.019 13.501 5.75c-3.196 4.938-12.027 8.757-12.027 8.757 15.803 9.822 32.5-2.143 32.5-2.143-1.965 7.857-13.125 12.857-13.125 12.857 5.803 3.215 14.732 0 14.732 0-.078 3.122-2.703 5.72-6.161 7.411 16.429 4.375 22.946-11.071 22.946-11.071 2.057 2.952 1.522 9.754-.803 14.107 10.803-1.25 14.375-16.25 14.375-16.25 2.053 4.464.803 12.321.803 12.321 12.322-3.035 10.893-18.66 10.893-18.66 5.804 4.464 5.268 15.357 5.268 15.357 4.286-2.232 4.375-10 4.375-10 6.26 11.17 14.018 12.232 14.018 12.232m-68.214-45.804s9.643-2.321 12.41-8.75c0 0 2.322 13.215-3.571 17.59 0 0 9.554 2.767 13.75-7.768 0 0 1.518 10-3.214 14.375.625 0 15.178.803 16.785-12.054 0 0 2.143 5.268-.625 12.5 0 0 10.893.536 11.34-11.607 0 0 3.75 6.071 1.25 13.393 0 0 10.357-2.322 8.571-18.393 0 0 3.84 3.214 3.75 13.482 3.572-.446 7.458-2.678 8.036-17.946 0 0 2.768 5.357 7.321 7.053" style="color:#000;display:inline;overflow:visible;visibility:visible;fill:none;stroke:#000;stroke-width:1.5;stroke-linecap:butt;stroke-linejoin:miter;stroke-miterlimit:4;stroke-dasharray:none;stroke-dashoffset:0;stroke-opacity:1;marker:none" transform="translate(102.071 -85.538)"/><path d="M105.785 180.618c-1.625-.972-4.19-2.674-7.442-1.247-2.761 1.212-4.644-.022-5.956-1.435-.009 3.076 1.8 4.564 5.274 3.76 3.473-.803 5.642.107 6.964.898 1.322.79 2.085 1.867 3.406 2.89-.018-1.833-.621-3.894-2.246-4.866m30.5-1.4c-.877 2.484-2.908 3.74-4.973 3.313-2.243-.464-3.854-.145-4.78.813-.927.957-.95 2.358.171 3.312-.039-1.322.136-1.838.565-2.281s1.756-.784 3.732-.375c2.537.525 4.323-.486 5.281-1.625zM80.32 198.407c-.06.33-.56 1.448 1.024 1.75s1.871-2.34.782-3.156c-1.09-.816-2.772-.512-3.719.688-.946 1.199-.44 2.583.61 3.78-.427-1.963.005-3.266 1.303-3.062" style="font-size:medium;font-style:normal;font-variant:normal;font-weight:400;font-stretch:normal;text-indent:0;text-align:start;text-decoration:none;line-height:normal;letter-spacing:normal;word-spacing:normal;text-transform:none;direction:ltr;block-progression:tb;writing-mode:lr-tb;text-anchor:start;baseline-shift:baseline;color:#000;fill:#000;fill-opacity:1;stroke:none;stroke-width:1.5;marker:none;visibility:visible;display:inline;overflow:visible;font-family:Sans;-inkscape-font-specification:Sans" transform="translate(102.071 -85.538)"/><path d="M104.204 181.01c-.442-2.272-6.061-.473-6.061-.473s-1.105 4.546 1.862 5.809c1.556.662 4.429 1.018 6.387-1.237-1.652.642-3.203.427-3.611-1.315s.202-2.035 1.423-2.783" style="color:#000;fill:#000;stroke:none;stroke-width:2;marker:none;visibility:visible;display:inline;overflow:visible" transform="translate(102.071 -85.538)"/><path d="M164.024 256.488s5.682 4.34 8.46 11.158c0 0 5.432 3.977 13.892-4.989s20.958-24.857 20.958-24.857.631-9.975 10.354-12.879 9.905 2.4 18.491-.126c7.911-2.327 12.69 5.556 10.228 11.364 0 0 2.343 5.578-2.568 9.596 0 0-1.696-5.09-4.643-6.875 0 0-.753.682-1.964.982 0 0 .893 5.179-1.34 8.304 0 0-4.017-5.357-6.07-6.25 0 0-.983 1.25-2.947 1.607 0 0-.179 4.553.179 7.321 0 0-4.688.357-7.813-3.928 0 0-5.67 2.143-8.17-1.518v27.5s-2.589 4.286-7.589 5.803c0 0 5.357 7.59.536 17.59 0 0-3.036-6.34-8.036-7.59 0 0 6.964 13.125-2.143 21.429 0 0-1.696-8.929-7.053-13.482 0 0 3.482 13.036-3.929 20.09 0 0-.625-8.037-2.321-10.447-2.85 3.825-6.17 6.16-13.036 6.25-3.75-1.161-11.964-15.447-11.964-15.447s-4.453-29.515 8.488-40.606z" style="color:#000;fill:#fcdd09;fill-opacity:1;stroke:#000;stroke-width:2;stroke-linecap:butt;stroke-linejoin:miter;stroke-miterlimit:4;stroke-opacity:1;stroke-dasharray:none;stroke-dashoffset:0;marker:none;visibility:visible;display:inline;overflow:visible" transform="matrix(-1 0 0 1 739.176 -85.538)"/><path d="M219.324 246.772s-2.141-5.562 4.551-6.383c0 0 2.254.66 2.773 4.695m3.288-3.559s-.379-4.735 4.23-5.997c0 0 2.43.947 3.03 4.798m2.077-1.894s.063-2.368 1.262-4.388c0 0 4.988-.947 6.061 2.967" style="color:#000;fill:none;stroke:#000;stroke-width:1.5;stroke-linecap:butt;stroke-linejoin:miter;stroke-miterlimit:4;stroke-opacity:1;stroke-dasharray:none;stroke-dashoffset:0;marker:none;visibility:visible;display:inline;overflow:visible" transform="matrix(-1 0 0 1 739.176 -85.538)"/><path d="m234.308 235.994 1.547.39c-.65-5.933-5.407-8.307-10.011-5.915 4.413-1.133 7.753 1.14 8.464 5.525m-10.96 4.506 1.531.351c-.621-6.134-4.799-7.897-9.207-6.71 4.356.056 6.809 2.441 7.676 6.359m-13.053 5.295 2.049-.398s-2.377-3.057-2.938-6.585c-1.06 4.064.889 6.983.889 6.983" style="font-size:medium;font-style:normal;font-variant:normal;font-weight:400;font-stretch:normal;text-indent:0;text-align:start;text-decoration:none;line-height:normal;letter-spacing:normal;word-spacing:normal;text-transform:none;direction:ltr;block-progression:tb;writing-mode:lr-tb;text-anchor:start;baseline-shift:baseline;color:#000;fill:#000;fill-opacity:1;stroke:none;stroke-width:1;marker:none;visibility:visible;display:inline;overflow:visible;font-family:Sans;-inkscape-font-specification:Sans" transform="matrix(-1 0 0 1 739.176 -85.538)"/><path d="M37.123 367.352s5.43 17.047 20.708 18.562c15.279 1.515 29.926 2.652 40.533 17.173 0 0 10.297-.01 11.011-5.903s-3.66-7.322-5.536-6.875c-1.875.446-.714 3.303-.714 3.303s-6.607.268-5.804-5.803c.804-6.072 9.643-6.697 14.554-1.518 4.91 5.178 6.071 19.285-11.429 22.232 0 0 9.554 4.821 16.25-3.84.685.514 4.494 10.625-11.785 11.25 0 0 6.16 4.197 13.214-.892 0 0 1.16 10.268-14.196 9.107 0 0 3.75 3.928 12.41 2.5 0 0-3.125 8.393-12.009 5.714 0 0-5.937 26.16 24.241 27.143 0 0 1.786-2.59 6.072-1.071 0 0 3.036-5.983 10.625-1.518 0 0 6.786-1.875 9.643 3.303 2.857 5.179-1.697 9.375-1.697 9.375s-1.071-7.768-7.41-5.714c0 0 .625 3.304-1.697 4.375 0 0 3.66 10-3.928 13.393 0 0-.268-4.643-4.286-7.679 0 0-8.304 4.197-16.697-.625 0 0-1.696 1.786-3.66 1.786 0 0-.893 6.518-4.554 8.75 0 0-1.071-5.625-4.553-8.482 0 0-5.715 2.5-8.572-.893s-1.428-8.482-1.428-8.482l-3.572-.625s-4.464 4.553-4.643 10.268c0 0-7.678-3.929-3.66-13.572 0 0-1.875-2.589.357-5.714 0 0-4.732-6.25-8.572-9.375 0 0-9.464 7.768-10 18.304 0 0-10.803-7.143-.268-22.59 0 0-10.535 1.786-11.785 14.732 0 0-11.697-10 5.803-24.464 0 0-13.393.625-15.535 14.554 0 0-4.822-10.536 2.321-19.286 2.639-3.232 6.605-5.343 10.558-6.721 0 0 1.138-6.761-6.45-8.19-7.59-1.428-24.733-5.893-30.18-13.035s.675-30.198 16.32-32.957z" style="color:#000;fill:#fcdd09;fill-opacity:1;stroke:#000;stroke-width:2;stroke-linecap:butt;stroke-linejoin:miter;stroke-miterlimit:4;stroke-opacity:1;stroke-dasharray:none;stroke-dashoffset:0;marker:none;visibility:visible;display:inline;overflow:visible" transform="matrix(-1 0 0 1 739.176 -85.538)"/><path d="M106.445 474.997s-1.2-2.589.316-6.25c0 0 7.45-1.831 8.586 6.124m20.897-.758s-5.177-4.925-1.641-10.796c0 0 8.081-.19 9.407 5.366m1.83-5.05s-2.967-2.905-1.199-6.756m-59.788 5.367s5.808-2.084 7.765 2.967m41.164-6.945s4.988 1.705 5.493 5.809" style="color:#000;fill:none;stroke:#000;stroke-width:1.5;stroke-linecap:butt;stroke-linejoin:miter;stroke-miterlimit:4;stroke-opacity:1;stroke-dasharray:none;stroke-dashoffset:0;marker:none;visibility:visible;display:inline;overflow:visible" transform="matrix(-1 0 0 1 739.176 -85.538)"/><path d="M112.5 463.406c4.535 1.493 5.853 5.559 6 9.875l1.5.031c1.067-6.193-2.898-10.413-7.219-11.375-5.64-.922-9.125-4.49-11.515-8.843 1.246 6.207 6.032 9.258 11.234 10.312" style="font-size:medium;font-style:normal;font-variant:normal;font-weight:400;font-stretch:normal;text-indent:0;text-align:start;text-decoration:none;line-height:normal;letter-spacing:normal;word-spacing:normal;text-transform:none;direction:ltr;block-progression:tb;writing-mode:lr-tb;text-anchor:start;baseline-shift:baseline;color:#000;fill:#000;fill-opacity:1;stroke:none;stroke-width:1.5;marker:none;visibility:visible;display:inline;overflow:visible;font-family:Sans;-inkscape-font-specification:Sans" transform="matrix(-1 0 0 1 739.176 -85.538)"/><path d="M48.866 308.385s-34.045 30.406-70.295 40.049c-36.25 9.642-51.545.665-51.724-15.228-.179-15.892 18.904-20.099 36.903-16.915 19.825 3.506 53.432-8.723 57.918-35.144 4.822-28.393-6.516-39.811-6.516-39.811s3.536-4.672 7.955-5.682c-.442-3.365-5.896-5.256-9.975-3.662 0 0 5.808-9.218-1.515-15.279 0 0-1.768 10.86-10.228 9.85 0 0 7.324-5.304 2.02-14.016-5.303-8.713-.252-15.658 4.672-13.259 4.925 2.4 3.35 6.573-1.54 7.555 1.37 4.469 8.234 4.99 10.419-.935 2.616-7.093-5.048-18.23-15.306-13.93-10.258 4.298-5.113 13.63-5.806 21.025-.614 6.561-6.572 8.182-6.572 8.182.125-.256 2.719-8.425.456-16.68-2.517-9.186-10.501-10.455-13.84-9.018 0 0 4.108 5 3.483 9.464 0 0-8.214-13.392-22.946-4.553 0 0 15.625 4.196 13.482 20.803 0 0-7.947-.714-11.34 4.822s-10.803 2.59-8.571-3.125 1.429-11.875-4.91-12.857-6.161 5.357-9.822 7.5-7.143-1.161-5.179-6.072c0 0-7.143 2.59-6.16 9.554s10.535 7.946 13.303 3.214 5.625-.982 4.286 1.34c-1.34 2.32-7.232 5.089-4.286 10.267 2.947 5.179 10.648 6.679 13.125 2.857s6.983-3.007 7.59.179c.589 3.095-1.5 5.412-6.697 3.393 0 0-1.099 7.366 8.66 4.732 5.626-1.518 6.786-9.018 12.322-12.5s8.304 2.321 7.5 5.09c-.803 2.767-4.954 3.223-9.018 3.75-7.842 1.015-13.375 8.307-13.303 15.981.072 7.679 4.196 15.536 13.571 13.84 9.375-1.697 9.464-12.232 2.947-15.268 0 0-.358 8.036-5.358 6.071s-2.767-11.964 2.947-12.946 17.678.536 22.232-4.286 1.154-9.636 1.154-9.636c7.056-.955 16.628 12.494 16.176 29.969-.451 17.495-16.259 42.792-46.437 36.185 0 0 6.063-8.002 1.643-17.346 0 0-3.283 4.167-6.818 5.556 0 0 3.03-12.122-5.051-15.784 0 0-.379 9.092-2.652 12.375 0 0-.757-15.405-8.334-15.91.2 3.55.994 10.063-2.777 14.142 0 0 1.136-8.965-7.703-11.87s-10.606-3.156-14.773-8.46c0 0-3.03 7.071.505 11.238s16.92 3.41 13.132 17.552c0 0-2.526-8.334-11.365-9.344-8.838-1.01-10.606 7.07-10.606 7.07s10.859-3.408 13.258 7.83c0 0-10.859-6.061-16.415 4.672 0 0 11.617 1.136 14.016 9.343 0 0-11.278 7.085-9.81 22.329 1.38 14.327 11.607 21.25 17.678 23.214 0 0-.292 7.238-9.257 11.531 0 0 8.208 5.43 15.026-.884 0 0-.858 4.71-4.072 7.478 0 0 10 2.768 14.107-7.857 0 0 .179 4.732-2.143 8.929 0 0 9.286.803 12.947-11.161 0 0 .892 6.428-2.143 12.857 3.118.367 15.47-.827 15-17.321 0 0 2.589 7.857 0 12.767 2.503.386 13.175-4.229 13.571-17.41 0 0 6.16 1.082-.988 18.009-7.15 16.926-12.828 26.524-24.434 34.747-9.4 6.659-16.29 4.545-21.087 1.01 0 0-3.157 9.217 3.788 11.364 0 0-17.19 9.513-26.922-1.827 0 0-6.071 14.554 10.715 16.786 0 0-13.125 4.286-19.643-2.679 0 0-3.84 16.25 14.732 13.84 0 0-5.536 6.785-18.84 7.589 0 0 1.34 6.518 12.59 5.357s16.786-10.536 16.786-10.536-1.875 19.018-6.161 24.733-12.857 8.303-12.768 15.625c.09 7.321 6.25 6.875 6.25 6.875s1.429 3.66 7.321 3.392l.447 5.179s7.053-.536 8.036-5.982c0 0 4.553.982 5.535-1.607 0 0 10.893 2.41 15-.625 0 0 3.125 4.107 3.125 8.125 0 0 5.893-2.59 5.179-8.482-.714-5.893-3.84-8.125-3.84-8.125s5.804-.983 7.5 5.714c0 0 2.947-3.482 1.43-9.197-1.519-5.714-10-5.446-10-5.446s-2.233-6.16-9.108-2.5c0 0-5.714-.982-4.732-10.446s14.821-16.518 21.428-17.947c0 0-5.246 17.01 12.558 15.368 0 0-9.85-8.965-.126-18.94 0 0-3.789 18.561 13.51 17.677 0 0-9.47-10.606-.378-20.581 0 0-3.662 19.697 14.015 17.298 0 0-12.88-9.722-1.515-21.465 0 0-4.42 21.97 16.163 17.677 0 0-15.658-5.934-7.324-21.97 0 0 2.778 20.708 16.036 14.52 0 0-11.364-7.828-7.955-21.34 0 0 5.682-3.03 4.293-16.414s-3.03-32.577 14.648-46.34c0 0 46.81-.143 59.977-5.304 15.784-6.187 24.584-11.594 24.584-11.594s14.324-5.804 24.804-7.32c10.48-1.515 16.443-14.754 14.657-26.004s-24.107-32.857-59.464-33.214-52.563 24.594-52.563 24.594z" style="color:#000;display:inline;overflow:visible;visibility:visible;fill:#fcdd09;fill-opacity:1;stroke:#000;stroke-width:2;stroke-linecap:butt;stroke-linejoin:miter;stroke-miterlimit:4;stroke-dasharray:none;stroke-dashoffset:0;stroke-opacity:1;marker:none" transform="matrix(-1 0 0 1 739.176 -85.538)"/><path d="M-76.745 504.037s-.709-7.338 3.193-9.658c0 0 5.18 1.015 4.94 8.03m21.247-1.66c-1.749-4.16-6.06-3.573-3.648-10.916 0 0 4.672-.757 7.829 2.4m-1.175-1.065s-3.939-4.807-.277-8.658" style="color:#000;fill:none;stroke:#000;stroke-width:1.5;stroke-linecap:butt;stroke-linejoin:miter;stroke-miterlimit:4;stroke-opacity:1;stroke-dasharray:none;stroke-dashoffset:0;marker:none;visibility:visible;display:inline;overflow:visible" transform="matrix(-1 0 0 1 739.176 -85.538)"/><path d="M-52.844 484.969c3.314.211 5.117 2.22 6.032 5.156l1.468-.312c-1.044-3.558-4.288-6.316-7.5-6.344-5.24.06-8.015-2.656-8.015-2.656s2.144 4.222 8.015 4.156m-13.562 6.625c2.823 2.46 3.042 5.828 2.406 9.25l1.469.344c.635-3.838-.09-8.766-3.032-10.844-3.622-2.118-5.04-5.314-6.093-8.719-.598 4.688 2.07 7.814 5.25 9.969m-18.219 8.937 1.438-.406c-.804-3.958 1.528-7.542-.079-11.234-.269 4.516-2.276 8.204-1.359 11.64m4.759-63.08s7.857 1.563 13.393-2.99c-3.036 5.089-13.572 6.07-13.572 6.07zm6.428 15.983s2.233-3.661 2.59-6.295c0 0 1.652 1.473-.223 8.125zm15.447-80.313s2.5-5 2.812-8.527c0 0 2.143 2.947.358 8.482zm11.071-2.277s1.786-3.348 1.295-8.348c0 0 3.125 2.366 1.875 9.598zm13.795-2.41s.67-6.384-.848-10.045c0 0 3.794 2.366 3.973 10.625z" style="font-size:medium;font-style:normal;font-variant:normal;font-weight:400;font-stretch:normal;text-indent:0;text-align:start;text-decoration:none;line-height:normal;letter-spacing:normal;word-spacing:normal;text-transform:none;direction:ltr;block-progression:tb;writing-mode:lr-tb;text-anchor:start;baseline-shift:baseline;color:#000;fill:#000;fill-opacity:1;stroke:none;stroke-width:1.5;marker:none;visibility:visible;display:inline;overflow:visible;font-family:Sans;-inkscape-font-specification:Sans" transform="matrix(-1 0 0 1 739.176 -85.538)"/><path d="M146.22 327.83s4.166 5.051 5.682 12.122c12.038 4.098 16.709 13.458 34.345 28.537l9.472.576s3.745-4.65 2.942-10.185c-.804-5.536 4.643-10.179 8.571-7.768 0 0 9.107-6.786 14.643 4.375 0 0-5.357-.625-7.857 1.964 0 0 1.607 6.34-6.25 6.161 0 0-1.964 3.572-2.768 5.268h1.875s2.857-3.304 7.143-1.34c4.286 1.965 3.482 7.769 3.482 7.769s8.482 4.464 4.821 13.571c0 0-3.482-4.286-8.571-4.643 0 0-.893 2.59-5 3.036 0 0 2.768 6.16-1.071 9.91 0 0 1.16 9.376-7.054 9.733 0 0 .982-5.179-1.607-8.929 0 0-6.638.175-5.982-4.821.714-5.447-1.429-7.411-1.429-7.411s-4.553.982-8.66.09c-.183 1.277-2.267 10.508-15.626 9.374 0 0 5.536-4.464 5.358-9.821-.594.594-5.523 9.183-15.625 6.964.263-.352 7.762-4.963 6.16-11.607-.987 3.135-6.946 9.964-16.25 8.125.09-.286 8.125-4.13 7.143-10.09-.846.763-7.834 10.454-16.071 6.072 0 0 8.571-5.58 6.785-11.16-3.392 5.133-11.428 9.91-17.946 6.517 5.944-4.051 8.546-6.093 8.66-10.446-2.57 2.375-15.076 9.053-21.428 1.786 5.722-1.429 11.118-4.197 11.518-8.483 0 0-2.952-5.47-12.595-8.595 0 0-3.209-7.476-1.87-19.619" style="color:#000;display:inline;overflow:visible;visibility:visible;fill:#fcdd09;fill-opacity:1;stroke:#000;stroke-width:2;stroke-linecap:butt;stroke-linejoin:miter;stroke-miterlimit:4;stroke-dasharray:none;stroke-dashoffset:0;stroke-opacity:1;marker:none" transform="matrix(-1 0 0 1 739.176 -85.538)"/><path d="M207.208 369.12s-9.85.947-13.511-.063m20.14-11.806s-4.04-.568-7.387.631c0 0-1.578-2.336.947-6.818m6.06 32.956s-2.714-3.283-2.588-6.819c0 0 2.652-1.957 6.63-1.578m-18.213 22.364s.982-3.214 3.035-5.178c0 0 3.881.315 5.22 4.69" style="color:#000;fill:none;stroke:#000;stroke-width:1.5;stroke-linecap:butt;stroke-linejoin:miter;stroke-miterlimit:4;stroke-opacity:1;stroke-dasharray:none;stroke-dashoffset:0;marker:none;visibility:visible;display:inline;overflow:visible" transform="matrix(-1 0 0 1 739.176 -85.538)"/><path d="M198.313 381.5c7.449.307 9.718 6.469 9.718 6.469l1.375-.563s-2.747-6.81-10.969-7.406c-7.46-.541-11.312-5.89-11.312-5.89s1.349 6.984 11.188 7.39" style="font-size:medium;font-style:normal;font-variant:normal;font-weight:400;font-stretch:normal;text-indent:0;text-align:start;text-decoration:none;line-height:normal;letter-spacing:normal;word-spacing:normal;text-transform:none;direction:ltr;block-progression:tb;writing-mode:lr-tb;text-anchor:start;baseline-shift:baseline;color:#000;fill:#000;fill-opacity:1;stroke:none;stroke-width:1.5;marker:none;visibility:visible;display:inline;overflow:visible;font-family:Sans;-inkscape-font-specification:Sans" transform="matrix(-1 0 0 1 739.176 -85.538)"/><path d="M80.923 213.279s.904 4.066 6.332 5.781l-.822-6.468z" style="color:#000;fill:#fff;stroke:#000;stroke-width:1;stroke-linecap:butt;stroke-linejoin:miter;stroke-miterlimit:4;stroke-opacity:1;stroke-dasharray:none;stroke-dashoffset:0;marker:none;visibility:visible;display:inline;overflow:visible" transform="matrix(-1 0 0 1 739.176 -85.538)"/><path d="M94.554 206.201c2.393 2.363 5.725 6.6 4.732 13.661 0 0-5.268-3.84-13.929.09-8.66 3.928-9.318 12.469-15.536 13.839-6.217 1.37-9.464-2.5-7.589-7.947 1.875-5.446-1.696-10-4.732-11.518 0 0-8.388 1.25-6.429 12.68 1.96 11.428 20.625 17.41 27.233 7.142 6.607-10.268 13.928-14.286 20.267-6.697 0 0-.625 5.715-3.303 9.375 0 0 6.25 2.233 6.786 1.965s6.428-7.41 6.428-7.768v-24.464z" style="color:#000;fill:#da121a;fill-opacity:1;stroke:#000;stroke-width:2;stroke-linecap:butt;stroke-linejoin:miter;stroke-miterlimit:4;stroke-opacity:1;stroke-dasharray:none;stroke-dashoffset:0;marker:none;visibility:visible;display:inline;overflow:visible" transform="matrix(-1 0 0 1 739.176 -85.538)"/><path d="M86.421 212.12s.752 4.094 6.108 6.007l-.58-6.489z" style="color:#000;fill:#fff;stroke:#000;stroke-width:1;stroke-linecap:butt;stroke-linejoin:miter;stroke-miterlimit:4;stroke-opacity:1;stroke-dasharray:none;stroke-dashoffset:0;marker:none;visibility:visible;display:inline;overflow:visible" transform="matrix(-1 0 0 1 739.176 -85.538)"/><path d="M159.464 300.576s16.965 12.679 11.072 31.608c-5.893 18.928-25.715 8.571-25.715 8.571s10.893-.893 11.786-14.464c.772-11.725-10.893-15.893-10.893-15.893s6.25 9.286 1.25 20.178-16.964 6.965-18.214 6.429c17.5-17.143-1.429-28.929-1.429-28.929 5.715 39.822-32.857 34.465-32.857 34.465s5.982-4.926 8.215-10.357c-11.608 8.571-26.965 2.678-26.965 2.678 6.429-3.036 11.429-10.178 11.429-10.178-15.714 6.785-23.929 0-23.929 0 7.857-.536 12.143-6.786 12.322-8.75-15 6.607-24.822-.179-24.822-.179 13.215-1.429 14.643-11.607 14.643-11.607s-6.607 6.607-16.964 6.25-12.5-8.929-12.5-8.929c9.464 1.25 15-5.714 15-5.714-4.464-1.964-12.5-1.071-12.5-1.071.893-7.5 12.5-10 12.5-10-3.393-2.5-7.835-2.058-7.835-2.058 3.662-9.597 23.6-9.396 23.6-9.396-4.799-3.41-13.499-3.736-13.499-3.736 6.44-7.576 20.456-8.965 32.325-8.081s8.965-6.566 8.965-6.566c-4.798 2.02-8.965-.884-8.965-.884 5.809-1.137 6.27-7.305 6.27-7.305s-3.266-.016-4.92-2.146c3.406-2.802 4.711-7.09 4.711-7.09-4.42-2.02-7.702-7.198-2.273-8.334 5.43-1.137 7.45 5.934 7.45 5.934 4.925-.757 10.733-9.09 8.208-19.571-2.526-10.48-13.385-7.829-13.385-7.829 2.02 6.692-4.59 8.587-9.964 6.699-5.372-1.888-5.062-11.245-5.062-11.245-3.788-4.293-5.556-11.616-5.556-11.616s4.925-4.42 13.385-8.208v-5.934s7.48-7.251 21.37-11.797c0 0 2.368-6.386-4.324-11.816 0 0 4.798-3.535 10.102.884 0 0-.127-5.43-2.778-8.46 0 0 11.364-4.546 16.415 9.344 0 0 2.399-4.42-.505-11.87 0 0 14.268-1.893 13.51 16.037 0 0 3.662-.631 2.4-10.733 0 0 14.015 1.641 8.46 15.657 0 0 6.818-.126 6.818-10.101 0 0 7.955.631 7.702 8.334-.252 7.702-5.177 9.47-5.177 9.47s12.375 2.904 11.996-9.975c6.843.7 10.311 16.349-1.263 19.192 0 0 14.774 4.167 17.93-8.08 0 0 9.976 9.722-.505 15.151 0 0 17.804 3.41 13.637 21.466 0 0-3.914-6.566-13.51-6.44 0 0 11.364 7.324 5.682 16.668 0 0-2.273-7.955-11.112-7.576 0 0 1.263 16.289 15.405 16.289 0 0-10.354 13.51-25.633-3.788 0 0 1.01 14.268 14.395 13.763 0 0-3.157 11.364-17.678 2.778 0 0 1.768 11.49 14.395 10.985 0 0-6.692 10.354-18.183 2.273 0 0-2.651 9.596 6.566 15.405 0 0-1.768 5.682-10.48 3.914 0 0 2.652 9.597 14.268 8.334 0 0-1.01 9.344-11.995 5.05 0 0 2.11 5.739 9.685 6.749 0 0-1.407 7.78-12.477 6.151z" style="color:#000;display:inline;overflow:visible;visibility:visible;fill:#fcdd09;fill-opacity:1;stroke:#000;stroke-width:2;stroke-linecap:butt;stroke-linejoin:miter;stroke-miterlimit:4;stroke-dasharray:none;stroke-dashoffset:0;stroke-opacity:1;marker:none" transform="matrix(-1 0 0 1 739.176 -85.538)"/><path d="M105.687 165.448s14.774 1.515 16.036 12.248c0 0 4.546-9.344 11.87-6.313S135.234 183 135.234 183c3.48 27.987-9.326 29.391-25.127 42.047 0 0 3.156 13.132.505 19.95 0 0 7.955-.378 9.091-9.974 2.756 2.073 2.402 6.562 2.4 7.954 6.436-.122 11.363-5.682 10.732-19.319 0 0 6.945 1.516 4.04 17.047 3.994-.444 17.94-7.662 5.809-31.568 0 0 10.607 3.41 10.733 14.269 4.732-.919 11.951-16.033-2.4-26.77 0 0 8.082-1.136 11.618 5.178 0 0 5.313-16.264-8.334-21.087S135.234 183 135.234 183M59.33 270.355s6.546 1.019 13.501 5.75c-3.196 4.938-12.027 8.757-12.027 8.757 15.803 9.822 32.5-2.143 32.5-2.143-1.965 7.857-13.125 12.857-13.125 12.857 5.803 3.215 14.732 0 14.732 0-.078 3.122-2.703 5.72-6.161 7.411 16.429 4.375 22.946-11.071 22.946-11.071 2.057 2.952 1.522 9.754-.803 14.107 10.803-1.25 14.375-16.25 14.375-16.25 2.053 4.464.803 12.321.803 12.321 12.322-3.035 10.893-18.66 10.893-18.66 5.804 4.464 5.268 15.357 5.268 15.357 4.286-2.232 4.375-10 4.375-10 6.38 11.607 14.018 12.232 14.018 12.232m-68.214-45.804s9.643-2.321 12.41-8.75c0 0 2.322 13.215-3.571 17.59 0 0 9.554 2.767 13.75-7.768 0 0 1.518 10-3.214 14.375.625 0 15.178.803 16.785-12.054 0 0 2.143 5.268-.625 12.5 0 0 10.893.536 11.34-11.607 0 0 3.75 6.071 1.25 13.393 0 0 10.357-2.322 8.571-18.393 0 0 3.84 3.214 3.75 13.482 3.572-.446 7.59-2.988 8.036-17.946 0 0 2.768 5.357 7.321 7.053" style="color:#000;display:inline;overflow:visible;visibility:visible;fill:none;stroke:#000;stroke-width:1.5;stroke-linecap:butt;stroke-linejoin:miter;stroke-miterlimit:4;stroke-dasharray:none;stroke-dashoffset:0;stroke-opacity:1;marker:none" transform="matrix(-1 0 0 1 739.176 -85.538)"/><path d="M105.785 180.618c-1.625-.972-4.19-2.674-7.442-1.247-2.761 1.212-4.644-.022-5.956-1.435-.009 3.076 1.8 4.564 5.274 3.76 3.473-.803 5.642.107 6.964.898 1.322.79 2.085 1.867 3.406 2.89-.018-1.833-.621-3.894-2.246-4.866m30.5-1.4c-.877 2.484-2.908 3.74-4.973 3.313-2.243-.464-3.854-.145-4.78.813-.927.957-.95 2.358.171 3.312-.039-1.322.136-1.838.565-2.281s1.756-.784 3.732-.375c2.537.525 4.323-.486 5.281-1.625zM80.32 198.407c-.06.33-.56 1.448 1.024 1.75s1.871-2.34.782-3.156c-1.09-.816-2.772-.512-3.719.688-.946 1.199-.44 2.583.61 3.78-.427-1.963.005-3.266 1.303-3.062" style="font-size:medium;font-style:normal;font-variant:normal;font-weight:400;font-stretch:normal;text-indent:0;text-align:start;text-decoration:none;line-height:normal;letter-spacing:normal;word-spacing:normal;text-transform:none;direction:ltr;block-progression:tb;writing-mode:lr-tb;text-anchor:start;baseline-shift:baseline;color:#000;fill:#000;fill-opacity:1;stroke:none;stroke-width:1.5;marker:none;visibility:visible;display:inline;overflow:visible;font-family:Sans;-inkscape-font-specification:Sans" transform="matrix(-1 0 0 1 739.176 -85.538)"/><path d="M104.204 181.01c-.442-2.272-6.061-.473-6.061-.473s-1.105 4.546 1.862 5.809c1.556.662 4.429 1.018 6.387-1.237-1.652.642-3.203.427-3.611-1.315s.202-2.035 1.423-2.783" style="color:#000;fill:#000;stroke:none;stroke-width:2;marker:none;visibility:visible;display:inline;overflow:visible" transform="matrix(-1 0 0 1 739.176 -85.538)"/></g></svg>