<svg xmlns="http://www.w3.org/2000/svg" xmlns:xlink="http://www.w3.org/1999/xlink" width="500" height="450"><use xlink:href="#a" transform="matrix(-1 0 0 1 500 0)"/><path fill="#fcdd09" stroke="#000" stroke-width="1.96" d="M6 381.6h488l-14.74 22.93c-29.97-6.594-57.93-4.431-83.52 8.189-24.49 11.82-46.79 27.3-86.81 13.1-36.05 26.2-83.52 26.2-117.9-.655-32.75 13.76-63.93-1.268-88.44-14.09-24.74-12.11-52.35-12.44-81.89-4.913z"/><g id="a" transform="translate(-387.9 -156.9)scale(2.551)"><use xlink:href="#b" transform="rotate(-15.37 249.921 99.106)"/><g stroke="#000"><g stroke-linejoin="round"><path fill="#fff" d="M249.7 116.8h-12.6s-25.9 22.5-34.9 25.1c-28.65 9.167-44-15.41-27.81-27.2 1.952-1.421 4.247-3.109 7.265-3.623l18.24-.551c-.181-2.996-.257-4.585-1.541-8.438-2.82-8.093-2.152-12.9 6.421-10.27l5.329.513c-1.284-2.568-1.484-9.464 4.302-4.366 8.263 4.723 15.94 9.373 25.47 9.848l9.848 1.71"/><path fill="#da121a" d="M180.3 138.4c12.59 7.658 24.51 4.901 38.4-8.294l17.5-16.1 1.284 2.568c-11.02 9.075-26.32 24.4-39.17 26.97-7.893 1.985-17.98 0-22.47-3.852zm19.6-27.9-13.72.392c4.704 3.528 10.19 6.272 13.72-.392z"/></g><path fill="none" d="M204.7 91.8c10.1 10.84 28.42 8.48 44.94 7.7"/><g fill="#da121a"><path d="M250.5 136.4h-30.52v57.56c0 17 13.5 30.79 30.35 30.79"/><path stroke-linejoin="round" d="m210.1 92.47-5.44-.64 3.85 3.21c.84-.36 1.93-1.28 1.58-2.57z"/><path d="M236 126.6c-6.66 1.57-10.98.78-10.98 9H236"/></g><path fill="none" d="M186.9 111.3c9 9 26.9-1.6 62.8-11.86"/></g><g id="b" stroke="#000" stroke-width=".5"><g fill="#da121a"><path d="m248.4 97.47-2.582-30.76-5.907 3.21-.012 5.829.245.095 6.2-2.97-.5-6.73"/><path d="m246.9 80.47-2.757 1.205 3.564 14.72-1.326-13.58.777-.205z"/><g fill="#fff" stroke-width="5" transform="matrix(.00977 -.00455 .00374 .00802 239.2 70.98)"><path d="M267 67s.4-9.5-9.4-13.9v-15h15.7V22.2h-15.8V5.5h-15v16.7h-14.7v15.9h14.7v15c-8.4 6.3-7.9 13.9-7.9 13.9"/><path d="M289 103c0-21.8-19.6-39-39-39s-39 17.5-39 39m-6 0v17.8l4.4 1.6h81l4.4-1.6V103z"/><path d="M290 290V122h-79v168m209 157c-2.4-9.3-4.9-18.7-7.5-30.7-13-60.9-12.4-121-12.4-121h-300s.033 60-13 121c-2.4 11-4.7 22-6.9 30.7z"/><path d="M203 446v-79c0-9.7 12.8-44.8 47-44.8s47 35 47 44.8v79"/><g id="c" stroke="#000"><path d="M123 100h11.3V79.7h14.8V100h9.53V79.7h15.3V100h10.1V79.7h14.7v39.9l-5.43 2.2h-80.2l-6-2V79.5h15zm-10 190V122h80v168M169 43l7.3 13h-14.6l-7.3 13-7.3-13h-14.6l7.3-13-7.3-13h14.6l7.3-13 7.3 13h14.6zm49 403v-80.4c0-9.67 12.7-28.6 32.4-28.6v109M218 376h9"/><path d="M227 376c0-4.6 1.7-4.6 3-4.6s-.2 1.9-.2 4.4 1.5 4.8.2 4.8-3-.4-3-4.6zm-9 53h9m0 0c0-4.6 1.7-4.6 3-4.6s-.2 1.9-.2 4.4 1.5 4.8.2 4.8-3-.4-3-4.6z"/></g><use xlink:href="#c" transform="matrix(-1 0 0 1 500 0)"/><path d="M357 273v-23.8h-23.7V273h-23.7v-23.8h-23.7V273h-23.7v-23.8h-23.7V273h-23.7v-23.8h-23.7V273h-23.7v-23.8h-23.7V273H120v-23.8H96.3v45.1l5.18 1.71h298l5.18-1.71v-45.1h-23.7V273z"/></g><path d="m242.7 74.63-2.7 1.33 1 3.15 5.9.92-.2-2.54-4.1-1.08z"/></g><path fill="#fcdd09" d="m245.5 63.84.7 1.11-.4 1.44-.8-1.24z"/></g><use xlink:href="#b" transform="rotate(-45.32 248.94 100.973)"/><use xlink:href="#e" transform="matrix(.279 -.276 .276 .279 152.6 141.5)"/></g><g id="e" transform="translate(-387.7 -156.9)scale(2.551)"><g stroke="#000" stroke-width=".5"><path fill="#078930" d="M245.8 67.52c0-5.778 8.347-5.778 8.347 0l-4.174 47.88z"/><path fill="none" d="M250 70.7v25m-1.9-2.5 1.9.98 1.9-.98m-3.93-2 2 1.37 2.1-1.37m-4.28-2 2.19 1.71 2.27-1.71m-4.63-2 2.36 1.92 2.45-1.92m-4.99-2 2.54 2.26 2.63-2.26m-5.34-2 2.71 2.37 2.8-2.37m-5.69-2 2.89 2.44 2.98-2.44m-6-2 3.06 2.63 3.15-2.63m-6.4-2 3.24 2.59 3.33-2.59m-6.75-2 3.42 2.48 3.51-2.48m-7.1-2 3.59 2.68 3.52-2.67m-3.52-6.23c1.52 1.43 1.03 2.56 0 3.84-1.21-1.39-1.31-2.63 0-3.84zm-3.845 4.223c2.25 2.94 5.38 2.94 7.63 0"/></g><path id="f" d="M249.3 71.5a.32.32 0 0 1-.64 0 .32.32 0 1 1 .64 0m1-6.3a.32.32 0 0 1-.64 0 .32.32 0 1 1 .64 0m-1 .52a.32.32 0 0 1-.64 0 .32.32 0 1 1 .64 0m-.8.68a.32.32 0 0 1-.64 0 .32.32 0 1 1 .64 0m-.1 4.1a.32.32 0 0 1-.64 0 .32.32 0 1 1 .64 0m-.6-1.1a.32.32 0 0 1-.64 0 .32.32 0 1 1 .64 0m.1-1.1a.32.32 0 0 1-.64 0 .32.32 0 1 1 .64 0m.3-1a.32.32 0 0 1-.64 0 .32.32 0 1 1 .64 0"/><use xlink:href="#f" transform="matrix(-1 0 0 1 500 0)"/></g><g stroke="#000"><g fill="#fff"><path stroke-width="1.99" d="M256.483 227.026s.16-3.743-3.69-5.434v-5.944h6.144v-6.224h-6.19v-6.551h-5.93v6.55h-5.755v6.225h5.755v5.944c-3.276 2.462-3.115 5.433-3.115 5.433"/><path stroke-width="2.551" d="M265.156 242.332c0-8.572-7.653-15.306-15.28-15.306-7.577 0-15.281 6.862-15.281 15.306"/><path stroke-width="3.63" d="M86.31 65.75v9.75l2.5.8h45.7l2.5-.8v-9.75zm47.79 98.65V76.34H89.25v88.06" transform="matrix(.691 0 0 .714 172.81 195.648)"/><path stroke-width="2.551" d="M308.013 390.29c4.566-5.587 8.571-12.45 8.571-12.45a320 320 0 0 1-2.959-12.525c-5.102-23.852-3.12-47.5-3.12-47.5H189.588s1.743 23.623-3.385 47.5a293 293 0 0 1-2.705 11.556s3.623 6.786 8.546 12.755c4.44 5.51 10.204 10.434 10.204 10.434s19.03 17.806 48.47 17.806c27.805 0 47.601-17.806 47.601-17.806s5.102-4.286 9.694-9.898z"/></g><g fill="none"><path stroke-width="3.8" d="M77.98 305.9v-78.7c0-6.687 9.094-30.81 33.65-30.81 24.55 0 33.65 24.12 33.65 30.81v78.41" transform="matrix(.691 0 0 .714 172.81 194.883)"/><path stroke-width="2.84" d="M111.6 206v106.1" transform="matrix(.691 0 0 .714 172.81 194.883)"/></g><g fill="#fff" stroke-width="2.551"><path d="M189.391 317.586h120.254"/><path stroke-linejoin="round" d="m250.105 194.883 37.55 4.847c-.91-9.822-4.76-29.566 16.133-29.566l-29.081-13.01 9.821-19.643c4.618-5.66 8.34-20.26 4.911-26.199-3.742-6.482-7.96-12.117-15.842-16.377-6.556-9.822-42.576-9.822-49.132 0-5.714 5.102-10.883 10.316-13.648 16.377-2.328 5.105-2.516 12.684 4.91 26.199l9.822 19.643-29.209 13.038c19.487 0 17.174 19.377 16.133 29.566z"/></g><path fill="none" stroke-width="2.551" d="M214.391 135.7c23.622 10.892 46.785 11.377 71.122 0m-35.408 8.418v50.892m-29.847-95.535 23.186 5.307c3.608-2.077 9.181-1.516 13.113 0l23.214-5.358"/><path fill="#da121a" stroke-width="1.276" d="M223.065 107.894c17.953 5.6 40 5.084 54.08 0 11.94 6.581 8.853 15.459 3.266 23.75-24.745 8.775-31.122 6.556-60.612 0-9.474-13.842-5.722-19.431 3.266-23.75z"/></g><use xlink:href="#g" transform="matrix(-1 0 0 1 500 0)"/><path fill="#fff" stroke="#000" stroke-width="1.38" d="M248.2 137.1c-.41.43-.66 1.02-.66 1.66 0 1.35 1.1 2.45 2.45 2.45s2.45-1.1 2.45-2.45c0-.82-.38-1.5-.99-1.96 3.82-7.72 3.67-16.87.19-26.84.51-.46.82-1.1.82-1.84 0-1.35-1.1-2.45-2.44-2.44-1.53 0-2.55 1.28-2.49 2.51.06.7.36 1.33.87 1.79-2.98 7.12-5.62 16.81-.19 27.1z"/><g id="g"><g stroke="#000"><g stroke-width="1.276"><path fill="#fff" d="m84.035 171.669-.31 6.26c-2.546-.664-3.567-3.301-3.95-7m11.205 2.566c-.003 1.735-.051 3.47-.944 5.434-1.786-.485-3.056-2.434-3.056-6.434m13.01 1.02c-.077 1.48-.548 2.934-1.132 4.414-2.602-.74-2.796-2.5-3-4.337m4.847 13.01c-.179-1.403.047-2.908-.897-4.209-2.756.893-2.414 2.704-3 4.566m-2 0c0-1.377 0-2.78-.498-4.923-2.842 1-2.18 3.5-2.768 5.362m-2.237.486c0-1.378 0-2.78-.497-4.924 0 0-3 3-2.768 4.924"/><path fill="#da121a" d="m104.953 178.557-9.872.23c-3.725.076-6.76 1.76-9.822 2.167-6.3.868-10.05 1.684-11.454-1.377-.408-.918-1.3-2.551-1.147-5.74-2.96 1.48-4.72 3.648-5.409 5.485-2.066 5.535 3.266 9.821 10.383 8.189.28-.077 8.724-2.041 10.893-3.266 2.296-1.3 4.668-2.22 7.143-2.22h9.285"/></g><g stroke-width="1.964"><path fill="#fcdd09" d="M89.392 172.434c.995.893 8.52 1.658 8.52 1.658l3.827-.255c1.99-.127 3.342 0 3.342 5.79 0 5.613-2.296 7.399-3.317 7.399l-16.377 1.454c-2.704 6.684 4.49 11.658 10.485 5.638h10c6.122 2.806 10.892 1.046 10.612 1.836-22.857 15-30.179 32.526-29.388 57.27-4.056 10.919-12.602 23.572-21.3 34.388-13.802 17.193-30.587-1.02-23.827-14.745 5.97-12.117 16.025-24.997 23.826-37.678 5.286-8.595-.03-26.99-18.24-24.286-4.318.641-7.923 2.544-11.224 4.592-1.585.983-8.007-.935-9.821-2.449l-4.923-4.107c.663 3.699-1.608 5.97 3.954 11.454-12.5-.306-12.5 7.653-18.7 14.745l13.393-4.005c1.174-1.352 2.858-2.22 4.643-3.01-8.01 3.01-11.071 13.443-6.81 19.948 9.004-19.005 11.553-7.765 20.994-21.99 12.013-18.096 25.97-3.002 19.949 6.557l-20.026 31.734c-13.265 21.173 1.276 39.286 15.561 36.224l2.628-.56c-4.923 1.632-2.628 8.06-5.918 13.672-2.041 3.291-4.414 6.301-9.822 6.557-2.5-.281-5 1.147-7.525 3.01-4.03 3.163-7.602 1.658-10.51 2.73 1.938 3.647 7.627 4.08 11.454 4.08-3.878 3.802-12.985 5.103-11.454 11.455l7.245-2.373c-4.49 7.653-3.827 15.485-4.72 23.674l-7.423 1.632c-3.087.766-4.796 3.827-4.311 6.556.56 3.087 3.75 5.791 7.602 4.924 4.31-3.036 7.525-2.526 9.132 3.265.587 2.934 2.143 5.434 3.98 6.072 1.964.688 4.132-.154 5.05-1.837.613-1.097.69-2.551-.152-4.235l1.632 3.265c2.194 1.659 5.383.003 7.577-1.862-.689-2.5-2.551-3.826-3.24-4.158.587-.332 3.087 2.398 3.24 4.184 4.694-.383 10.842-.817 5.535-6.352-2.449-2.551-6.862-1.403-9.82-1.633-4.159-.23-6.378-2.908-6.557-8.189 0-5.05.638-10.459 4.923-18.112 6.454-4.54 15.179-4.566 22.934-6.556 7.602-2.55 14.77-7.143 21.3-14.745-8.443-5.025-16.122-10.714-18.111-21.3 2.806 11.913 9.898 17.5 18.112 21.3 3.954 1.837 7.092 5.893 13.112 12.092 4.311 4.439 2.449 8.98-.383 12.755-4.234 5.689-1.173 10.204-.51 14.082 2.347-.868 3.342-7.883 5.816-9.158-2.347 6.48.51 10.204 1.276 14.566 3.24-1.301 3.24-2.296 3.648-6.684 3.189 6.148 6.122 12.296 11.148 18.342 2.959 2.627 3.546 2.73 0 4.923l-2.96 2.96c-3.367 4.158 6.225 5.56 7.526 4.591 1.99-1.173 3.826-7.245 7.194-1.964 3.24 2.628 5.382 2.806 7.857 3.265 2.474-.56 4.439 2.373 6.607 3.572 2.704.688 4.235-2.296 4.21-4.056-8.725-7.577-3.776-4.031.637-.817 3.342-.204 2.933-1.887 3.265-3.265-.255-.842-10.995-8.189 1.072-.561 2.525.867 6.275-4.77 2.525-7.322-4.77-1.81-10.536-1.785-16.377-1.632-4.541-.791-8.368-4.541-11.454-11.454-.562-2.78-.74-6.582-.766-10.791 0-4.413-.688-9.796.766-17.066 6.556-18.112-2.322-19.974-6.556-24.566l-11.454-12.398c-5.255-5.714-2.194-10.357 2.474-15.306 6.786-7.347 20-16.224 32.143-28.316 10.637-11.582 21.683-22.347 30-38.52l1.785-28.572-4.949-9.82c-5.689-11.455-10.893-24.414-30.255-33.419-12.474-4.821-15.56-3.775-17.525-9.184-2.449 2.475-4.617 3.776-8.393 4.924v-6.53c-7.321 11.555-25.51 6.989-29.183 17.576-1.174 1.046-6.888 2.959-8.368 3.418-4.005.995-4.005 2.806-4.005 4.439-3.01 6.99 3.827 7.959 5.562 6.734"/><path fill="none" d="M173.32 196.158c-6.895-16.326-18.627-33.596-35.893-40.101"/></g></g><path d="M93.729 155.087c-.28 2.577 2.831 2.424 4.03 1.684.003 1.505.485 2.347 2.143 2.857 3.342-.127 5.357-1.505 5.357-4.49 0-.995 1.658-.995 1.658-1.99-2.193 1.072-5.204 1.48-9.617 1.506-.944 1.913-2.627 1.224-3.571.484z"/><path fill="#fff" d="M103.933 155.598c-.051.969-2.373 2.882-4.005 2.882.433-.842.612-1.071 0-2.627z"/><path fill="none" stroke="#000" stroke-linejoin="bevel" stroke-width="1.786" d="M77.402 164.016c1.225 6.097 5.102 1.377 4.26 3.138-1.862 5.05 5 7.5 9.184 4.26 2.5-1.735 5-1.888 11.429-1.684 4.821.153 7.55 2.143 7.857 9.286.382 8.75-3.776 10.076-6.02 11.046-5 .816-8.827.816-11.455 0-2.908 2.117-5.204 1.454-7.959 1.454m33.01-40c8.036-1.02 14.898 0 20 4.005-1.99 6.99-3.01 9.005-6.99 11.99-.382 4.183-1.53 9.209-6.224 11.224l-1.633 5.74-.153 6.046m-10.714-20.663c2.22 4.464 1.45 12 1.45 12m2.296-11.99c1.97 5.26 1 11 1 11m-10.969-14.796c-3.643 2-5-3-7-2m7.908-3.827c-3 5.516-6 0-9 1m22.45-.255c6.336-3.796 9.076-2.987 13.463-4.398m-10.714 8.674c4.439-3.317 8.694-6.069 10.633-8.85-5.179-.816-11.635-2.436-16.566-.505m54.846 43.877-8.365-1.674 9.072 17.543c-4.847-2.474-12.158-7.874-17.26-7.288 3.367 4.924 5.688 9.822 8.188 14.745l-15.612-7.67c1.556 1.734 3.878 6.037 4.898 15.859-3.597-3.582-7.3-7.01-14.395-8.166 3.571 5 2.435 11.658 2.59 16.53l-12.5-10.459c1.58 5.664 2.795 12.028 1.34 16.289l-11.734-11.919-.59 16.421c-2.832-4.362-6.4-9.074-9.998-13.462l-2.55 15.306-9.473-13.693-1.785 15.05c-3.444-2.55-6.533-8.132-6.533-8.132m81.223-58.494c-4.081-2.628-11.438-7.072-16.285-5.643 4.796 5.612 9.558 11.617 11.829 16.974-5.842-2.168-7.735-5.181-18.814-7.52 5.791 7.168 8.27 13.87 7.939 18.818-5-2.959-11.34-4.428-15.446-10.346l5.446 19.346c-4.288-4.063-11.025-6.316-14.01-11.316l4.01 18.316c-4.977-2.436-10.666-6.716-13.497-11.895l1.02 17.602s-7.85-7.931-11.191-14.077c.536 7.807-.035 16.312-3.301 19.347-1.267-4.813-5.561-8.341-6.556-15.56l-4.58 17.644-4.933-9.8m67.168-58.29-19.798-3.037c9.158 5.868 10.775 10.64 12.408 15.003-5.383-1.964-10.37-6.753-16.544-5.987 6.352 6.148 9.985 12.262 9.934 15.86-4.668-4.72-10.002-5.792-15.59-8.19 3.496 5.077 5.807 9.279 7.975 16.523-7.806-6.224-9.905-6.03-15.135-8.734 3.801 5.97 4.931 11.056 5.314 16.107l-12.85-9.472c5.024 7.477 3.76 9.127 3.003 16.028-3.852-4.439-6.38-8.393-9.645-10.842.663 6.148.965 10.66-1.56 15.023l-6.365-7.27m56.3 42.448-2.012-11.836m-6.952 20.933-1.785-12.5m6.528 7.885-2.209-12.017m10.727 2.274-2.264-11.48m6.528 7.42-2.383-11.82m6.42 7.295-2.412-12.221m6.298 6.193-2.398-11.553M108.46 286.9v11.722m5.102-17.449v10.692m5.102-16.1v10.702m5.102-15.549v10.896m4.069-138.647c-1.684 1.658-5.286 5.015-6.46 7.745m11.763-4.781c-1.275 1.786-3.316 3.571-4.082 5.357m10.27-2.898c-1.275 1.327-3.872 4.061-4.611 5.643m10.969-3.061c-2.066 1.403-4.602 3.115-6.388 5.232m13.265-1.276c-2.653 1.097-5.69 2.832-7.63 4.363m13.73.36c-2.628.23-5.671 2.07-8.146 3.268m12.738 1.834c-2.602.357-5.71 1.81-7.903 3.036m11.474 1.81c-2.5.664-6.03 2.052-7.918 3.353m11.234 2.515c-2.627.051-5.066 1.112-7.26 1.673m10.737 4.768c-1.964 0-5.48.284-7.903.488m10.176 5.97h-6.55m3.47 28.256c-9.694 14.03-21.429 26.275-31.888 36.989-10.535 9.592-33.622 34.285-33.622 34.285-5.536 5.536 2.475 11.48 4.439 13.546"/><g stroke="#000"><path fill="#da121a" stroke-width="2.551" d="M183.269 190.036h-10.33l.256 97.55h10.156"/><path fill="#fcdd09" stroke-linejoin="round" stroke-width="1.964" d="m196.79 192.332 7.882-1.352.51 1.607c2.22-.842 4.311-1.633 6.658-1.633 1.2-4.821-5.689-9.642-19.77-10.918-2.424-.23-5-.587-7.424-.561-3.954.002-5.637 1.964-9.183 4.77l3.495 10.102 6.097-1.199.994-4.005 4.95 3.444z"/><g fill="#fff"><path stroke-width="2.5" d="M193.728 233.658h6.015v8h4.447v-8h5.785v8h3.732v-8h6v8h3.954v-8h5.738v15.714l-1.936.786h-31.377l-2.323-.786zm2.296 79.336v-62.83H227.4v62.83"/><path stroke-width="2.015" d="m214.901 224.475-2.857 5.076-2.831-5.076h-5.664l2.832-5.102-2.832-5.077h5.664l2.831-5.102 2.857 5.102h5.689l-2.857 5.077 2.857 5.102z"/><path stroke-width="1.99" d="M238.626 360.698c0-2.245.816-2.245 1.454-2.245s-.077.918-.077 2.143c0 1.25.714 2.347.077 2.347s-1.454-.204-1.454-2.245z"/></g><g stroke-width="1.99"><path fill="none" d="M233.779 396.412h4.459m-4.46-35.867h4.46m-3.806 56.07V357.05c0-4.747 6.26-14.064 15.887-14.064"/><path fill="#fff" d="M238.626 396.412c0-2.245.816-2.245 1.454-2.245s-.077.918-.077 2.143.714 2.347.077 2.347-1.454-.204-1.454-2.245z"/></g><g fill="#fcdd09" stroke-width="1.964"><path d="m108.27 253.046 19.874 21.42 2.041-.765c-1.275 4.847 2.551 11.99 6.888 18.367l.568-9.642 7.01 9.624-.412-8.8 8.418 5.102c1.743 1.056 2.88 2.426 2.27 4.54-.838 2.906-.637 6.837 2.832 7.5l3.087.179c3.393-.102 1.607-1.99 1.633-3.265-.256-1.455-1.25-3.266 1.632-3.266 2.78-.459 3.572.919 3.265 3.266-1.632 3.954 3.266 3.265 4.924 3.265.663-.28 1.352-.485 1.632-1.633.638-1.632 3.52-3.265 1.633-4.923-1.811-.868-3.24-2.526-4.286-4.924l4.286.536c3.265.74 2.551-8.112 1.633-8.724-.893-.893-2.679-1.072-4.924 0-1.403.433-3.903-3.266-1.632-4.924 1.505-.74 2.908-1.53 3.265-3.265.816-1.633-1.633-4.924-4.923-5.663-3.929-.893-4.312 1.76-4.924 4.03-.408 3.47-2.372 4.847-6.556 3.266-2.704-2.194-5.102-4.363-6.556-6.557-5.306-7.397-8.52-14.107-18.112-22.933"/><path d="m163.116 393.096-3.571-3.827c.788-1.097 1.33-2.194 1.64-3.255 3.359.906 2.38 5.464 1.931 7.082zm-9.627.987c1.454-1.25 2.525-2.373 2.55-3.265 3.534 1.764 1.99 7.627 1.99 7.627zm-4.434 4.75c.765-.51 2.397-1.652 2.842-3.773 2.757 1.458 1.766 6.727 1.023 7.778zm-25.765-4.847-4.924-1.633c-1.326 3.648 2.679 7.653 2.679 7.653zM51.607 380.72c1.3 2.04 2.78 4.056 3.29 6.097 3.419-3.01 4.312-4.592 1.353-8.036zm-8.674 2.55c2.424 1.582 3.546 3.521 3.801 6.327 4.414-2.704 3.138-5.663 1.53-8.571-.79.842-3.188 1.734-5.305 2.245zm-5.357 8.93c4.184-1.71 5.638-5.92 2.347-8.623-1.02 1.275-2.798 1.576-4.546 1.78 2.794 1.964 2.48 4.061 2.2 6.842zm-23.724-21.43-1.99 3.011c-1.403 2.092-.893 5.102 1.327 7.245 1.3-2.194 1.99-5.561 3.75-6.378zm155.1-103.825c2.552-1.403 4.159-3.826 9.822-.306l-4.91 3.316c-1.467-1.224-2.59-2.984-4.911-3.01zm8.93 15.561c2.984-.944 5.453 4.78 5.239 6.084l-5.357-1.02zm-1.787 13.265-2.295 4.337 4.336 2.551c1.072-3.903.173-5.793-2.095-7.018zm-19.132 4.847 4.809-.087.727 6.556c-5.613-1.02-5.357-4.082-5.613-6.633zm48.214-108.162v6.556c3.393-1.429 4.87-5.015 5.87-8.015zm-7.143 0 2.702 6.964c3.01-3.01 4.492-5.51 3.905-8.495-2.117.434-2.984-.153-6.607 1.53zm-1.275-.255c-1.786-.51-3.674-.332-5.638.306l.528 6.964c3.062-1.02 4.592-3.826 5.102-7.143zm-11.48 7.908c-2.04 0-5.79-4.464-6.3-6.25l5.917-1.02z"/></g><g fill="#fff" stroke-width="1.276"><path d="M241.687 106.363c1.352.051 2.398 1.174 2.347 2.5-.003.714-.383 1.327-.893 1.735-4.388 8.546-5.74 17.27-1.225 26.377a2.36 2.36 0 0 1 .587 1.658c-.05 1.327-1.199 2.347-2.55 2.27-1.353-.05-2.399-1.173-2.348-2.5.003-.79.46-1.453 1.072-1.861-3.781-6.954-6.123-14.694 1.199-26.097a2.35 2.35 0 0 1-.74-1.811c.05-1.327 1.199-2.347 2.55-2.27zm-7.908-1.02c1.352.153 2.296 1.3 2.143 2.55-.077.664-.485 1.225-1.046 1.582-5.051 7.755-7.092 15.944-3.317 24.924.357.459.536 1.02.434 1.607-.179 1.25-1.403 2.117-2.73 1.964-1.352-.153-2.295-1.3-2.142-2.55a2.21 2.21 0 0 1 1.224-1.685c-3.01-6.887-3.852-14.49 3.29-24.642-.433-.485-.688-1.123-.586-1.786.179-1.25 1.403-2.117 2.73-1.964z"/><path d="M226.126 103.812c1.326.204 2.245 1.327 2.04 2.526-.127.637-.535 1.173-1.096 1.505-7.393 10.643-6.585 17.676-4.312 24.056.332.433.485.995.383 1.581-.204 1.2-1.48 2.016-2.806 1.837-1.327-.204-2.245-1.326-2.04-2.525.127-.715.611-1.301 1.275-1.608-1.778-6.357-3.857-12.459 4.26-23.8a1.96 1.96 0 0 1-.51-1.735c.204-1.2 1.48-2.015 2.806-1.837z"/></g><g fill="#da121a"><path stroke-width="1.276" d="m243.217 95.649-4.107-7.27-4.923.714 3.265 5.842"/><path stroke-linejoin="round" stroke-width="2.551" d="M248.575 96.16c-8.623.229-13.01-3.164-20.383-4.465-22.398-3.673-45.79-7.73-70.459-25.025 3.113 6.199 1.888 9.642-.484 13.112 28.698 11.454 48.724 12.73 67.27 14.847 7.397 1.556 13.826 5.56 24.897 5.382"/></g><path fill="none" stroke-linecap="round" stroke-width="1.531" d="M193.473 187.485c1.735 1.505 3.954 2.908 3.265 4.923m2.347-6.454c1.964 1.072 6.505 3.444 6.378 6.046"/><g fill="#da121a" stroke-width=".2" transform="translate(-387.9 -156.9)scale(2.551)"><circle cx="250.1" cy="115.9" r=".4"/><circle cx="250.1" cy="103.9" r=".4"/><circle cx="246.8" cy="104.1" r=".4"/><circle cx="243.6" cy="103.7" r=".4"/><circle cx="240.6" cy="103.1" r=".4"/><circle cx="246.2" cy="115.8" r=".4"/><circle cx="242.1" cy="114.7" r=".4"/><circle cx="238.6" cy="113.7" r=".4"/></g><path fill="none" stroke-width="1.964" d="M173.065 215.546c-25.385 22.903-49.54 40.23-85.484 38.035m82.984-63.52c-21.684 28.827-47.194 48.214-82.397 48.214m68.851-67.218c-11.837 25.484-30.51 44.846-64.515 50.841m47.5-64.897c-2.806 16.836-11.99 28.826-23.214 38.775"/></g></g><g stroke="#000"><path fill="#da121a" stroke-width="1.276" d="m244.238 87.613 5.732 15.46 5.732-15.46z"/><path fill="#fff" stroke-width="2.5" d="M226.636 300.24v9.285h-9.296v-9.286h-9.296v9.286h-9.296v-9.286h-9.295v17.643l2.039.714h116.76l2.039-.714v-17.643h-9.296v9.286h-9.296v-9.286h-9.296v9.286h-9.296v-9.286h-9.296v9.286h-9.295v-9.286h-9.296v9.286h-9.296v-9.286z"/></g></svg>