<svg xmlns="http://www.w3.org/2000/svg" xml:space="preserve" width="156.739" height="189.731" viewBox="0 0 41.471 50.2"><defs><clipPath id="a" clipPathUnits="userSpaceOnUse"><path d="M142.441 36h135.354v103.276H142.441Z"/></clipPath><clipPath id="b" clipPathUnits="userSpaceOnUse"><path d="M190.777 106.781c0-7.633 6.19-13.822 13.824-13.822 7.632 0 13.821 6.189 13.821 13.822v19.638l-27.645.004z"/></clipPath><clipPath id="c" clipPathUnits="userSpaceOnUse"><path d="M142.441 36h135.354v103.276H142.441Z"/></clipPath><clipPath id="d" clipPathUnits="userSpaceOnUse"><path d="M190.777 106.781c0-7.633 6.19-13.822 13.824-13.822 7.632 0 13.821 6.189 13.821 13.822z"/></clipPath><clipPath id="e" clipPathUnits="userSpaceOnUse"><path d="M190.777 107.945h27.644v18.478h-27.644z"/></clipPath><clipPath id="f" clipPathUnits="userSpaceOnUse"><path d="M142.441 36h135.354v103.276H142.441Z"/></clipPath><clipPath id="h" clipPathUnits="userSpaceOnUse"><path d="M190.777 107.945h27.644v18.478h-27.644z"/></clipPath><clipPath id="i" clipPathUnits="userSpaceOnUse"><path d="M142.441 36h135.354v103.276H142.441Z"/></clipPath><clipPath id="j" clipPathUnits="userSpaceOnUse"><path d="M190.777 107.945h27.644v18.478h-27.644z"/></clipPath><clipPath id="k" clipPathUnits="userSpaceOnUse"><path d="M142.441 36h135.354v103.276H142.441Z"/></clipPath></defs><g style="opacity:1"><g clip-path="url(#a)" transform="matrix(1.5001 0 0 -1.5001 -286.186 189.648)"><path d="M190.778 126.423h27.644v-18.478h-27.644z" style="fill:#fcd116;fill-opacity:1;fill-rule:nonzero;stroke:none"/><path d="M190.778 124.313h27.644v-1.819h-27.644zm0-3.637h27.644v-1.819h-27.644zm0-3.638h27.644v-1.819h-27.644zm0-3.637h27.644v-1.819h-27.644zm0-3.637h27.644v-1.819h-27.644z" style="fill:#000;fill-opacity:1;fill-rule:nonzero;stroke:none"/></g><g clip-path="url(#b)" transform="matrix(1.5001 0 0 -1.5001 -286.186 189.648)"><path d="M190.778 92.232h27.644v15.713h-27.644z" style="fill:#fff;fill-opacity:1;fill-rule:nonzero;stroke:none"/></g><g clip-path="url(#c)" transform="matrix(1.5001 0 0 -1.5001 -286.186 189.648)"><path d="M209.838 117.038h8.584v9.384h-8.584z" style="fill:#000;fill-opacity:1;fill-rule:nonzero;stroke:none"/><path d="M209.91 117.038h8.511v9.384h-8.511z" style="fill:#fff;fill-opacity:1;fill-rule:nonzero;stroke:none"/><path d="M0 0c-.489-.006-.413.395-.352.691.062.3.151.469.187.718.023.157-.041.217-.14.254-.137.05-.195.05-.318.084-.168.047-.267.145-.427.126-.058-.007-.079-.052-.112-.101-.05.005-.141.013-.249.009-.138-.005-.269-.043-.331-.126a.55.55 0 0 1-.093-.266c-.012-.092-.036-.146-.049-.241.079.054.213.138.305.138a.36.36 0 0 0 .184-.042 1.15 1.15 0 0 0-.754-.155c-.049.006-.1-.003-.117-.05-.035-.098.289-.22.5-.207a.5.5 0 0 1 .212.052c-.015-.036-.05-.073-.083-.119l-.046-.062c.096.022.204-.015.405.155.077.065.125.104.183.187a1.5 1.5 0 0 0-.088-.43c-.059-.173-.113-.31-.209-.42-.106-.123-.333-.199-.496-.195-.317.007-.616.336-.609.662.008.34.226.729.311.943.042.104.084.319-.005.372-.179.109-.552.113-.8.113-.477 0-.613-.018-1.074-.026-.266-.005-.423-.01-.693-.016.016-.389.223-.623.581-.69.24-.045.614-.04.881-.052.044-.002.334.008.337-.042.001-.035-.101-.039-.134-.041-.279-.018-.461-.02-.789-.024-.324-.003-.492 0-.857-.003.01-.165.032-.287.149-.427.176-.211.524-.244.727-.25.219-.006.376.008.543-.002.111-.005.282-.027.281-.057-.003-.046-.122-.035-.221-.037-.49-.009-1.095.006-1.537.011.002-.165.033-.335.168-.481.158-.172.453-.226.668-.234.316-.012.556.015.889-.004.026-.001.067.008.069-.008.002-.014-.039-.021-.067-.025-.326-.046-.553-.081-.908-.125-.32-.04-.5-.06-.821-.093.062-.238.165-.394.38-.505.168-.086.364-.109.613-.097.372.018.678.085 1.077.132.039.005.099.02.102.009.004-.013-.04-.023-.067-.031-.309-.093-.614-.188-1.009-.298a26 26 0 0 0-1.126-.291c.367-.382.534-.49.726-.505.248-.019.582.148.928.309.226.105.426.203.635.298.02.01.051.026.054.02.006-.011-.034-.032-.054-.044-.334-.203-.62-.349-1.005-.588-.254-.158-.396-.25-.644-.417.247-.094.463-.197.745-.202a.64.64 0 0 1 .443.137c.138.109.263.235.429.389.162.151.23.23.412.393.022.019.061.063.07.052.011-.013-.031-.044-.052-.07-.255-.321-.425-.516-.733-.883.324-.006.491-.004.76.107.33.135.472.295.664.541.019.028.022-.04.012-.073-.031-.101-.251-.302-.401-.416-.217-.165-.454-.302-.691-.439a.35.35 0 0 0 .199-.104c-.117-.096-.204-.207-.323-.285a.76.76 0 0 0-.365-.117 1 1 0 0 0-.259.004l-.129.018c-.024.004-.034-.025-.046-.049a.2.2 0 0 1-.092-.022c-.088-.039-.147-.095-.155-.19a.2.2 0 0 1 .094-.2.15.15 0 0 0 .072.121.15.15 0 0 0 .078.028c.002-.026.038-.03.066-.028.03.002.062.017.102.025.043.008.064.009.11.017-.097-.061-.178-.11-.256-.165-.031-.022-.054-.033-.064-.07-.006-.021 0-.038.016-.072a.28.28 0 0 1-.031-.233c.027-.087.123-.157.242-.187a.3.3 0 0 0-.02.148.3.3 0 0 0 .014.073c.034-.005.053-.003.078.027l.097.117.112.133-.063-.22c-.021-.071-.038-.087-.055-.182-.005-.026.015-.039.042-.051-.004-.14.039-.211.141-.266a.6.6 0 0 1 .335-.042.3.3 0 0 0-.164.144.3.3 0 0 0-.038.104c.033.005.055.019.062.068l.04.265c.01.065.034.166.048.162.037-.045.067-.09.111-.16.021-.034.047-.057.083-.048a.07.07 0 0 1 .044.034.14.14 0 0 0 .04-.071c.011-.048.001-.069-.021-.123.108-.017.212.028.246.132.038.117-.025.24-.078.289.021.048.004.082-.028.114-.083.081-.153.105-.172.129-.038.047-.027.075-.002.11a1 1 0 0 0 .14.164 1 1 0 0 0 .171.135 1 1 0 0 0 .09-.102 1 1 0 0 0 .085-.13 3 3 0 0 0 .324.436c.076.081.174.165.196.185.023.034.06-.071.086-.132.02-.051.011-.094-.004-.155-.06-.244-.237-.637-.394-.905-.225-.381-.497-.689-.799-1.032.112-.045.269-.062.442-.052.17.01.357.032.543.074.09-.105.146-.161.249-.253a2.5 2.5 0 0 1 .347-.264c.143.092.22.151.347.264.103.092.159.148.25.253a3.4 3.4 0 0 1 .542-.074c.174-.01.33.007.442.052-.301.343-.573.651-.798 1.032-.158.268-.334.661-.394.905-.016.061-.025.104-.004.155.025.061.062.166.085.132.023-.02.121-.104.197-.185a3 3 0 0 0 .324-.436.9.9 0 0 0 .175.232 1 1 0 0 0 .171-.135 1 1 0 0 0 .14-.164c.024-.035.036-.063-.002-.11-.019-.024-.089-.048-.172-.129-.033-.032-.05-.066-.028-.114a.3.3 0 0 1-.078-.289c.033-.104.138-.149.246-.132-.023.054-.033.075-.021.123a.13.13 0 0 0 .04.071.07.07 0 0 1 .043-.034c.036-.009.062.014.083.048.044.07.074.115.112.16.013.004.037-.097.047-.162l.04-.265c.007-.049.031-.063.062-.068a.3.3 0 0 0-.038-.104.3.3 0 0 0-.164-.144.6.6 0 0 1 .335.042c.102.055.145.126.141.266.028.012.047.025.043.051-.018.095-.034.111-.056.182l-.062.22c.043-.052.069-.081.111-.133.039-.045.06-.071.097-.117.025-.03.043-.032.078-.027a.32.32 0 0 0-.006-.221c.119.03.216.1.242.187a.28.28 0 0 1-.029.233c.014.034.02.051.014.072-.01.037-.033.048-.064.07-.078.055-.159.104-.255.165.045-.008.066-.009.11-.017.039-.008.071-.023.101-.025.029-.002.064.002.066.028a.14.14 0 0 0 .078-.028.15.15 0 0 0 .072-.121.2.2 0 0 1 .094.2c-.008.095-.068.151-.154.19a.2.2 0 0 1-.093.022c-.011.024-.022.053-.046.049l-.129-.018a1 1 0 0 0-.258-.004.75.75 0 0 0-.365.117c-.12.078-.207.189-.324.285a.35.35 0 0 0 .199.104c-.236.137-.473.274-.69.439-.15.114-.371.315-.402.416-.01.033-.006.101.013.073.191-.246.333-.406.664-.541.268-.111.435-.113.759-.107-.308.367-.477.562-.733.883-.021.026-.063.057-.052.07.009.011.048-.033.071-.052.182-.163.25-.242.413-.393.165-.154.291-.28.427-.389a.64.64 0 0 1 .443-.137c.283.005.499.108.747.202-.25.167-.391.259-.645.417-.386.239-.671.385-1.005.588-.021.012-.062.033-.055.044.003.006.034-.01.055-.02.209-.095.408-.193.634-.298.346-.161.681-.328.928-.309.192.015.36.123.728.505-.442.105-.69.169-1.127.291-.396.11-.7.205-1.01.298-.027.008-.071.018-.067.031.004.011.063-.004.103-.009.398-.047.704-.114 1.077-.132.249-.012.444.011.612.097.215.111.318.267.38.505-.321.033-.501.053-.821.093-.354.044-.582.079-.907.125-.028.004-.069.011-.067.025.001.016.042.007.069.008.332.019.572-.008.889.004.215.008.51.062.668.234.134.146.166.316.168.481C2.467.429 1.863.414 1.372.423c-.099.002-.217-.009-.22.037-.002.03.169.052.28.057.167.01.325-.004.543.002.204.006.551.039.727.25.117.14.139.262.15.427-.366.003-.533 0-.857.003-.329.004-.51.006-.788.024-.035.002-.137.006-.135.041.002.05.292.04.336.042.267.012.641.007.882.052.357.067.564.301.581.69-.271.006-.428.011-.694.016-.461.008-.596.026-1.074.026-.248 0-.621-.004-.8-.113-.089-.053-.046-.268-.005-.372.086-.214.303-.603.311-.943C.616.336.318.007 0 0" style="opacity:1;fill:#000;fill-opacity:1;fill-rule:nonzero;stroke:none" transform="translate(215.032 123.129)"/><path d="M0 0a.4.4 0 0 0 .042.066.4.4 0 0 0 .064.068C.159.091.175.037.174-.028.172-.136.137-.144.076-.176a.14.14 0 0 1-.01.098A.14.14 0 0 1 0 0" style="fill:#fff;fill-opacity:1;fill-rule:nonzero;stroke:none" transform="translate(212.66 118.968)"/><path d="M0 0a.4.4 0 0 0-.079.008.3.3 0 0 0-.066.018c0-.047.005-.079.035-.115.046-.055.096-.072.188-.096a.2.2 0 0 0-.053.077A.25.25 0 0 0 0 0" style="fill:#fff;fill-opacity:1;fill-rule:nonzero;stroke:none" transform="translate(212.173 118.597)"/><path d="M0 0c-.02.018-.031.023-.05.04l-.051.057a.2.2 0 0 1-.018-.105.2.2 0 0 1 .104-.168A.27.27 0 0 0 0 0" style="fill:#fff;fill-opacity:1;fill-rule:nonzero;stroke:none" transform="translate(211.694 118.873)"/><path d="M0 0a.16.16 0 0 1-.119-.064.17.17 0 0 1-.029-.178.14.14 0 0 0 .061.077.13.13 0 0 0 .082.025.4.4 0 0 0 0 .07c0 .027.002.043.005.07" style="fill:#fff;fill-opacity:1;fill-rule:nonzero;stroke:none" transform="translate(211.565 119.526)"/><path d="M0 0a.4.4 0 0 0 .068-.055.4.4 0 0 0 .061-.068 1 1 0 0 1-.197-.165C-.126-.348-.16-.378-.2-.454c-.029-.052-.029-.125.005-.165.043-.05.078-.055.125-.092.033-.027.052-.042.084-.071a1 1 0 0 1-.184-.232c-.07.093-.103.134-.14.187-.029.039-.085.053-.117-.034a1 1 0 0 1-.048-.189c-.019-.112-.025-.172-.04-.254a.3.3 0 0 0-.118.002.3.3 0 0 0-.117.049c.025.07.037.109.057.18.023.081.035.11.051.21.006.034.01.071-.015.085-.04.023-.068.002-.107-.049-.046-.058-.073-.09-.12-.147l-.081-.099a.4.4 0 0 0-.102.076.4.4 0 0 0-.084.113l.167.116c.072.049.121.079.186.125.02.015.033.035.026.06-.01.034-.058.028-.088.023-.054-.01-.092-.014-.15-.023l-.112-.015.005.087c.005.044.007.068.014.112.08-.017.126-.023.208-.027a.9.9 0 0 1 .327.031.8.8 0 0 1 .25.111c.075.05.107.091.174.151.057.051.088.081.144.133" style="fill:#ebbd00;fill-opacity:1;fill-rule:nonzero;stroke:none" transform="translate(212.746 119.97)"/><path d="M0 0a.4.4 0 0 1-.042.066.4.4 0 0 1-.064.068C-.159.091-.175.037-.174-.028c.002-.108.037-.116.099-.148a.14.14 0 0 0 .009.098A.14.14 0 0 0 0 0" style="fill:#fff;fill-opacity:1;fill-rule:nonzero;stroke:none" transform="translate(215.516 118.968)"/><path d="M0 0c.031 0 .049.002.08.008a.4.4 0 0 1 .066.018C.145-.021.14-.053.11-.089.064-.144.016-.161-.078-.185a.2.2 0 0 1 .054.077A.24.24 0 0 1 0 0" style="fill:#fff;fill-opacity:1;fill-rule:nonzero;stroke:none" transform="translate(216.004 118.597)"/><path d="M0 0c.021.018.031.023.05.04.021.02.032.033.05.057a.2.2 0 0 0 .019-.105.2.2 0 0 0-.104-.168c.008.032.01.052.008.085A.2.2 0 0 1 0 0" style="fill:#fff;fill-opacity:1;fill-rule:nonzero;stroke:none" transform="translate(216.482 118.873)"/><path d="M0 0a.16.16 0 0 0 .119-.064.17.17 0 0 0 .029-.178.14.14 0 0 1-.061.077.13.13 0 0 1-.082.025.4.4 0 0 1 0 .07C.004-.043.004-.027 0 0" style="fill:#fff;fill-opacity:1;fill-rule:nonzero;stroke:none" transform="translate(216.611 119.526)"/><path d="M0 0a.4.4 0 0 1-.067-.055.4.4 0 0 1-.062-.068 1 1 0 0 0 .197-.165c.058-.06.091-.09.133-.166.028-.052.028-.125-.006-.165C.153-.669.117-.674.07-.711l-.083-.071a1 1 0 0 0 .183-.232c.071.093.103.134.14.187.028.039.085.053.118-.034a1 1 0 0 0 .047-.189c.019-.112.025-.172.04-.254a.3.3 0 0 1 .117.002.3.3 0 0 1 .117.049c-.024.07-.036.109-.057.18-.023.081-.033.11-.05.21-.006.034-.011.071.014.085.041.023.069.002.109-.049.045-.058.072-.09.119-.147l.081-.099a.4.4 0 0 1 .102.076.4.4 0 0 1 .084.113c-.064.046-.102.071-.167.116-.073.049-.121.079-.186.125-.02.015-.033.035-.026.06.009.034.058.028.087.023.055-.01.093-.014.151-.023l.112-.015-.005.087a1 1 0 0 1-.014.112 1 1 0 0 0-.208-.027.9.9 0 0 0-.328.031.8.8 0 0 0-.249.111c-.075.05-.107.091-.174.151z" style="fill:#ebbd00;fill-opacity:1;fill-rule:nonzero;stroke:none" transform="translate(215.43 119.97)"/><path d="M0 0c.116-.014.232-.014.334-.003.214.024.337.08.51.206L.878.189a.55.55 0 0 0-.453-.3C.255-.131.031-.056 0 0" style="fill:#e30613;fill-opacity:1;fill-rule:nonzero;stroke:none" transform="translate(212.854 124.145)"/><path d="M0 0a10 10 0 0 1 .335.436L.269.461C.153.505.09.565-.034.559A.4.4 0 0 1-.268.478c.02.083.018.119.036.194a.34.34 0 0 0 .066.15c.047.063.148.089.246.092.101.003.168.005.253-.006A.5.5 0 0 1 .32.796C.319.686.354.627.388.523A.6.6 0 0 0 .424.345 1 1 0 0 0 .269.176.8.8 0 0 0 0 0" style="fill:#ebbd00;fill-opacity:1;fill-rule:nonzero;stroke:none" transform="translate(213.51 123.93)"/><path d="M0 0a.06.06 0 0 1-.021-.043c-.004-.033.012-.066.045-.073.024-.005.047.002.059.024a.05.05 0 0 1 .002.044c.028.002.045 0 .073-.008.039-.011.057-.012.091-.051.02-.024-.004-.061-.033-.072C.183-.193.149-.156.12-.165.082-.175.09-.222.009-.212c-.067.007-.142.052-.13.126.006.038-.047.047-.031.094.01.028.043.037.072.032C-.059.035-.021.028 0 0" style="fill:#fff;fill-opacity:1;fill-rule:nonzero;stroke:none" transform="translate(214.184 124.725)"/></g><g clip-path="url(#d)" transform="matrix(1.5001 0 0 -1.5001 -286.186 189.648)"><path d="M0 0h3.747v1.018h1.964V0h1.673v1.018h1.964V0h1.673v1.018h1.964V0h1.674v1.018h1.964V0h1.673v1.018h1.964V0h1.673v1.018h1.965V0h3.746v-6.838H0Z" style="fill:#000;fill-opacity:1;fill-rule:nonzero;stroke:none" transform="translate(190.778 99.07)"/><path d="M202.854 98.925h1.673v-.873h-1.673zm-1.819 0h1.673v-.873h-1.673zm-1.818 0h1.673v-.873h-1.673zm-1.819 0h1.673v-.873h-1.673zm-1.818 0h1.673v-.873h-1.673zm-1.819 0h1.673v-.873h-1.673zm-1.819 0h1.673v-.873h-1.673zm12.731 0h1.673v-.873h-1.673zm1.818 0h1.673v-.873h-1.673zm1.819 0h1.673v-.873h-1.673zm1.819 0h1.673v-.873h-1.673zm1.818 0h1.673v-.873h-1.673zm1.819 0h1.673v-.873h-1.673zm1.819 0h1.673v-.873h-1.673zm-13.64-1.019h1.673v-.873h-1.673zm-1.819 0h1.673v-.873h-1.673zm-1.819 0h1.673v-.873h-1.673zm-1.818 0h1.673v-.873h-1.673zm-1.819 0h1.673v-.873h-1.673zm-1.818 0h1.673v-.873h-1.673zm12.73 0h1.673v-.873h-1.673zm1.819 0h1.673v-.873h-1.673zm1.818 0h1.673v-.873h-1.673zm1.819 0h1.673v-.873h-1.673zm1.819 0h1.674v-.873h-1.674zm1.819 0h1.673v-.873h-1.673zm-13.641-1.018h1.673v-.873h-1.673zm-1.818 0h1.673v-.873h-1.673zm-1.819 0h1.673v-.873h-1.673zm-1.818 0h1.673v-.873h-1.673zm-1.819 0h1.673v-.873h-1.673zm12.73 0h1.673v-.873h-1.673zm1.819 0h1.673v-.873h-1.673zm1.819 0h1.673v-.873h-1.673zm1.818 0h1.673v-.873h-1.673zm1.819 0h1.673v-.873h-1.673zm-11.821-1.019h1.673v-.873h-1.673zm-1.819 0h1.673v-.873h-1.673zm-1.819 0h1.673v-.873h-1.673zm-1.818 0h1.673v-.873h-1.673zm-1.819 0h1.673v-.873h-1.673zm10.912 0h1.673v-.873h-1.673zm1.819 0h1.673v-.873h-1.673zm1.818 0h1.673v-.873h-1.673zm1.819 0h1.673v-.873h-1.673zm1.819 0h1.674v-.873h-1.674zm-11.822-1.018h1.673v-.873h-1.673zm-1.818 0h1.673v-.873h-1.673zm-1.819 0h1.673v-.873h-1.673zm9.093 0h1.673v-.873h-1.673zm1.819 0h1.673v-.873h-1.673zm1.819 0h1.673v-.873h-1.673zm-8.184-1.019h1.673v-.873h-1.673zm-1.819 0h1.673v-.873h-1.673zm5.456 0h1.673v-.873h-1.673zm1.819 0h1.673v-.873h-1.673zm-5.456 6.111h1.673v-.873h-1.673zm-3.638 0h1.673v-.873h-1.673zm-3.637 0h1.673v-.873h-1.673zm10.912 0h1.673v-.873h-1.673zm3.637 0h1.673v-.873h-1.673zm3.638 0h1.674v-.873h-1.674zm-9.094-2.037h1.673v-.873h-1.673z" style="fill:#e30613;fill-opacity:1;fill-rule:nonzero;stroke:none"/><path d="M0 0a1.964 1.964 0 0 0 1.964-1.964V-5.82h-3.928v3.856C-1.964-.879-1.085 0 0 0" style="fill:#000;fill-opacity:1;fill-rule:nonzero;stroke:none" transform="translate(204.6 98.052)"/><path d="M202.781 95.864h.582v-.868h-.582zm0-1.013h.582v-.873h-.582zm0-1.017h.582v-1.602h-.582z" style="fill:#e30613;fill-opacity:1;fill-rule:nonzero;stroke:none"/><path d="M0 0c.169.288.415.526.71.685L.982.097a1.24 1.24 0 0 1-.441-.408Z" style="fill:#e30613;fill-opacity:1;fill-rule:nonzero;stroke:none" transform="translate(203.029 97.005)"/><path d="m0 0-.536.306A1.8 1.8 0 0 1-.714-.48v-.073h.581c0 .199.048.387.133.553" style="fill:#e30613;fill-opacity:1;fill-rule:nonzero;stroke:none" transform="translate(203.496 96.568)"/><path d="M205.837 95.864h.581v-.868h-.581zm0-1.013h.581v-.873h-.581zm0-1.017h.581v-1.602h-.581z" style="fill:#e30613;fill-opacity:1;fill-rule:nonzero;stroke:none"/><path d="M0 0a1.83 1.83 0 0 1-.709.685L-.982.097c.179-.098.329-.238.441-.408z" style="fill:#e30613;fill-opacity:1;fill-rule:nonzero;stroke:none" transform="translate(206.17 97.005)"/><path d="m0 0 .536.306C.65.068.714-.199.714-.48v-.073H.133C.133-.354.085-.166 0 0" style="fill:#e30613;fill-opacity:1;fill-rule:nonzero;stroke:none" transform="translate(205.704 96.568)"/><path d="M0 0c.603 0 1.091-.489 1.091-1.091v-3.783h-2.183v3.783C-1.092-.489-.603 0 0 0" style="fill:#fff;fill-opacity:1;fill-rule:nonzero;stroke:none" transform="translate(204.6 97.106)"/><path d="M0 0a1.8 1.8 0 0 1-.731-.154l.27-.589a1.24 1.24 0 0 0 .921 0l.271.589A1.8 1.8 0 0 1 0 0" style="fill:#e30613;fill-opacity:1;fill-rule:nonzero;stroke:none" transform="translate(204.6 97.906)"/></g><g clip-path="url(#e)" transform="matrix(1.5001 0 0 -1.5001 -286.186 189.648)"><path d="M0 0a.726.726 0 0 1-.998-1.021 3 3 0 0 0-.134-.218.726.726 0 0 1-.279.858.727.727 0 1 1-.05-1.237c-.575-.535-1.234-.472-1.68-.171-.442.298-.693.717-.647 1.29A.726.726 0 0 1-3.154.794a.726.726 0 0 1-.965-1.067c-.514-.258-.998-.183-1.439.114-.446.301-.75.906-.466 1.642a.73.73 0 0 1 .309-.716.727.727 0 1 1-.096 1.127q.073.108.163.22a.72.72 0 0 1 .768.3.728.728 0 0 1-1.206.814.72.72 0 0 1 .012-.825 3 3 0 0 0-.134-.218.726.726 0 0 1-.279.858.727.727 0 1 1-.049-1.237c-.576-.535-1.236-.472-1.682-.171-.44.298-.692.717-.646 1.29a.726.726 0 0 1 .635 1.293.727.727 0 0 1-.966-1.068c-.514-.257-.997-.183-1.439.115-.447.301-.75.906-.467 1.642a.727.727 0 1 1 .215.411q.072.109.162.219a.728.728 0 1 1-.437 1.115.72.72 0 0 1 .011-.825 3 3 0 0 0-.134-.218.725.725 0 0 1-.279.857.726.726 0 1 1-.049-1.236c-.576-.536-1.236-.472-1.682-.171-.44.298-.692.717-.646 1.29a.726.726 0 1 1-.33.225c-.515-.257-.998-.183-1.44.115-.447.301-.75.906-.466 1.642a.726.726 0 0 1 1.319-.52.727.727 0 0 1-1.105.931q.071.109.162.219a.727.727 0 1 1-.437 1.114.72.72 0 0 1 .011-.825 3 3 0 0 0-.134-.217.725.725 0 0 1-.279.857.726.726 0 1 1-.049-1.236c-.576-.536-1.236-.472-1.681-.171-.441.298-.693.716-.647 1.289a.727.727 0 1 1-.331.226c-.513-.257-.998-.183-1.439.115-.446.301-.75.906-.467 1.642a.728.728 0 1 1 .214.411q.072.109.163.219a.727.727 0 1 1-.437 1.114.72.72 0 0 1 .011-.825 3 3 0 0 0-.134-.217.725.725 0 0 1-.279.857.726.726 0 1 1-.813-1.206.73.73 0 0 1 .763-.03c-.575-.536-1.234-.472-1.68-.171-.442.297-.693.716-.647 1.289a.728.728 0 1 1-.331.226c-.514-.257-.998-.183-1.439.115-.447.301-.75.906-.466 1.642a.726.726 0 1 1 .213.411q.072.108.162.219a.727.727 0 1 1-.425.289 3 3 0 0 0-.135-.217.724.724 0 0 1-.278.857.726.726 0 1 1-.813-1.206.73.73 0 0 1 .763-.03c-.575-.536-1.235-.472-1.68-.172-.442.298-.693.717-.647 1.29a.728.728 0 1 1-.331.226c-.514-.257-.998-.183-1.439.115-.446.301-.75.905-.467 1.642a.73.73 0 0 1 .311-.717.727.727 0 1 1-.097 1.127q.072.11.163.22a.727.727 0 1 1-.438 1.114.72.72 0 0 1 .012-.825 3 3 0 0 0-.135-.218.728.728 0 1 1-.328-.379c-.575-.535-1.235-.471-1.68-.171-.442.298-.693.717-.647 1.29a.726.726 0 1 1-.331.226c-.514-.257-.998-.183-1.439.115-.447.301-.75.905-.467 1.641a.73.73 0 0 1 .31-.716.728.728 0 0 1 .814 1.206.73.73 0 0 1-.91-.079q.072.108.162.22a.727.727 0 0 1 .572 1.31l-4.048-6.002L-4.046-6.003z" style="fill:#000;fill-opacity:1;fill-rule:nonzero;stroke:none" transform="translate(224.416 108.237)"/><path d="m0 0-2.608-3.867-35.528 23.964 2.608 3.866c-.128-.693.123-1.389.687-1.77.526-.357 1.066-.44 1.636-.248.065-.57.269-1.036.782-1.384.638-.432 1.326-.44 1.974-.023-.128-.694.12-1.388.683-1.769.528-.357 1.067-.44 1.638-.248.064-.57.269-1.036.782-1.384.636-.432 1.326-.439 1.973-.023-.128-.693.12-1.388.684-1.769.527-.357 1.066-.44 1.636-.248.065-.57.27-1.036.782-1.384.638-.432 1.327-.439 1.974-.023-.128-.693.12-1.388.684-1.769.527-.356 1.067-.439 1.637-.248.064-.57.269-1.036.782-1.384.637-.431 1.326-.439 1.973-.023-.128-.693.121-1.387.683-1.769.528-.356 1.068-.439 1.638-.248.064-.57.268-1.036.782-1.383.636-.431 1.324-.438 1.971-.022-.128-.694.123-1.389.686-1.771.526-.356 1.067-.439 1.636-.248.065-.569.269-1.036.782-1.383.638-.431 1.325-.438 1.972-.022-.128-.693.123-1.389.685-1.77.528-.357 1.068-.44 1.637-.249.065-.569.269-1.036.783-1.383C-1.331-.411-.648-.416 0 0" style="fill:#159a34;fill-opacity:1;fill-rule:nonzero;stroke:none" transform="translate(223.046 106.137)"/></g><g clip-path="url(#f)" transform="matrix(1.5001 0 0 -1.5001 -286.186 189.648)"><path d="M0 0a.651.651 0 1 1-1.08.728A.651.651 0 0 1 0 0" style="fill:#159a34;fill-opacity:1;fill-rule:nonzero;stroke:none" transform="translate(204.42 119.515)"/><path d="M0 0a.651.651 0 1 1-1.08.729A.651.651 0 0 1 0 0" style="fill:#159a34;fill-opacity:1;fill-rule:nonzero;stroke:none" transform="translate(206.167 118.337)"/><path d="M0 0a.651.651 0 1 0 1.08-.729A.651.651 0 0 0 0 0" style="fill:#159a34;fill-opacity:1;fill-rule:nonzero;stroke:none" transform="translate(206.83 117.889)"/><path d="M0 0a.651.651 0 1 1-1.08.728A.651.651 0 0 1 0 0" style="fill:#159a34;fill-opacity:1;fill-rule:nonzero;stroke:none" transform="translate(209.497 116.091)"/><path d="M0 0a.652.652 0 0 1-1.08.728A.65.65 0 1 1 0 0" style="fill:#159a34;fill-opacity:1;fill-rule:nonzero;stroke:none" transform="translate(211.243 114.913)"/><path d="M0 0a.651.651 0 1 0 1.08-.729A.651.651 0 0 0 0 0" style="fill:#159a34;fill-opacity:1;fill-rule:nonzero;stroke:none" transform="translate(211.907 114.465)"/><path d="M0 0a.651.651 0 1 1-1.08.728A.651.651 0 0 1 0 0" style="fill:#159a34;fill-opacity:1;fill-rule:nonzero;stroke:none" transform="translate(214.573 112.667)"/><path d="M0 0a.651.651 0 1 1-1.08.729A.651.651 0 0 1 0 0" style="fill:#159a34;fill-opacity:1;fill-rule:nonzero;stroke:none" transform="translate(216.319 111.489)"/><path d="M0 0a.652.652 0 1 0 1.08-.73A.652.652 0 0 0 0 0" style="fill:#159a34;fill-opacity:1;fill-rule:nonzero;stroke:none" transform="translate(216.982 111.041)"/><path d="M0 0a.65.65 0 1 1-1.078.728A.65.65 0 0 1 0 0" style="fill:#159a34;fill-opacity:1;fill-rule:nonzero;stroke:none" transform="translate(199.344 122.939)"/><path d="M0 0a.651.651 0 1 1-1.08.728A.651.651 0 0 1 0 0" style="fill:#159a34;fill-opacity:1;fill-rule:nonzero;stroke:none" transform="translate(201.091 121.76)"/></g><g clip-path="url(#h)" transform="matrix(1.5001 0 0 -1.5001 -286.186 189.648)"><path d="M0 0a.651.651 0 1 0 1.08-.729A.651.651 0 0 0 0 0" style="fill:#159a34;fill-opacity:1;fill-rule:nonzero;stroke:none" transform="translate(201.755 121.313)"/><path d="M0 0a.651.651 0 1 1-1.08.728A.651.651 0 0 1 0 0" style="fill:#159a34;fill-opacity:1;fill-rule:nonzero;stroke:none" transform="translate(194.268 126.363)"/></g><g clip-path="url(#i)" transform="matrix(1.5001 0 0 -1.5001 -286.186 189.648)"><path d="M0 0a.651.651 0 1 1-1.078.728A.651.651 0 0 1 0 0" style="fill:#159a34;fill-opacity:1;fill-rule:nonzero;stroke:none" transform="translate(196.015 125.184)"/><path d="M0 0a.651.651 0 1 0 1.08-.729A.651.651 0 0 0 0 0" style="fill:#159a34;fill-opacity:1;fill-rule:nonzero;stroke:none" transform="translate(196.679 124.737)"/><path d="M0 0a.651.651 0 1 0-.729-1.08A.651.651 0 0 0 0 0" style="fill:#159a34;fill-opacity:1;fill-rule:nonzero;stroke:none" transform="translate(198.994 125.294)"/><path d="M0 0a.651.651 0 1 0-.729-1.08A.651.651 0 0 0 0 0" style="fill:#159a34;fill-opacity:1;fill-rule:nonzero;stroke:none" transform="translate(204.07 121.87)"/><path d="M0 0a.65.65 0 1 1-.727-1.078A.65.65 0 0 1 0 0" style="fill:#159a34;fill-opacity:1;fill-rule:nonzero;stroke:none" transform="translate(209.145 118.446)"/></g><g clip-path="url(#j)" transform="matrix(1.5001 0 0 -1.5001 -286.186 189.648)"><path d="M0 0a.652.652 0 1 1-.728-1.081A.652.652 0 0 1 0 0" style="fill:#159a34;fill-opacity:1;fill-rule:nonzero;stroke:none" transform="translate(214.222 115.022)"/><path d="M0 0a.65.65 0 1 1-.727-1.078A.65.65 0 0 1 0 0" style="fill:#159a34;fill-opacity:1;fill-rule:nonzero;stroke:none" transform="translate(219.298 111.598)"/><path d="M0 0a.8.8 0 0 0-.141.124c-.634-1.136-1.604-1.185-2.226-.766-.463.312-.735.764-.678 1.376a.6.6 0 0 0-.208.141C-3.799.594-4.322.676-4.784.989c-.623.419-.94 1.337-.125 2.351a.7.7 0 0 0-.308.208c-.635-1.136-1.605-1.186-2.227-.766-.463.312-.734.764-.677 1.375a.7.7 0 0 0-.208.142c-.546-.282-1.069-.199-1.531.113-.623.42-.94 1.338-.125 2.352a.73.73 0 0 0-.308.207c-.634-1.135-1.604-1.185-2.226-.765-.464.312-.735.763-.678 1.375a.7.7 0 0 0-.208.142c-.546-.282-1.069-.199-1.531.113-.623.42-.941 1.338-.125 2.351a.73.73 0 0 0-.308.208c-.635-1.135-1.604-1.185-2.227-.765-.463.312-.734.763-.677 1.375a.7.7 0 0 0-.208.142c-.547-.282-1.069-.199-1.532.113-.622.42-.939 1.338-.124 2.351a.7.7 0 0 0-.308.208c-.634-1.135-1.605-1.185-2.227-.765-.463.312-.734.763-.677 1.375a.7.7 0 0 0-.209.142c-.546-.282-1.068-.199-1.531.113-.622.42-.939 1.338-.124 2.351a.7.7 0 0 0-.308.208c-.635-1.135-1.605-1.185-2.227-.766-.463.313-.734.764-.677 1.376a.8.8 0 0 0-.209.141c-.546-.281-1.068-.198-1.531.114-.622.419-.939 1.338-.124 2.351a.7.7 0 0 0-.308.208c-.635-1.136-1.605-1.185-2.227-.766-.463.313-.734.764-.677 1.376a.7.7 0 0 0-.209.141c-.546-.281-1.068-.199-1.531.113-.623.42-.939 1.338-.124 2.352a.8.8 0 0 0-.168.084l-.402-.597c-.313-.757-.05-1.6.572-2.019.527-.355 1.052-.417 1.632-.188.031-.602.26-1.089.787-1.444.622-.42 1.504-.349 2.086.225-.312-.756-.051-1.597.571-2.017.527-.355 1.052-.417 1.632-.188.032-.601.261-1.089.787-1.444.623-.419 1.504-.349 2.087.226-.313-.757-.052-1.598.57-2.018.527-.355 1.052-.417 1.632-.187.032-.602.261-1.09.787-1.445.623-.419 1.504-.349 2.087.226-.312-.757-.052-1.598.57-2.018.527-.355 1.053-.417 1.632-.187.032-.602.261-1.089.788-1.444.621-.42 1.503-.35 2.086.225-.313-.757-.053-1.598.57-2.018.527-.355 1.053-.417 1.632-.187.032-.602.261-1.089.787-1.444.623-.42 1.502-.348 2.085.227-.312-.757-.05-1.6.572-2.019.527-.356 1.053-.418 1.632-.188.032-.602.26-1.089.787-1.444.622-.42 1.501-.348 2.085.227-.312-.757-.05-1.6.572-2.019C-4.38.452-3.854.391-3.274.62c.031-.602.26-1.089.786-1.444.623-.42 1.505-.349 2.087.226 0 0 .413.589.401.598" style="fill:#159a34;fill-opacity:1;fill-rule:nonzero;stroke:none" transform="translate(223.603 107.032)"/></g><g clip-path="url(#k)" transform="matrix(1.5001 0 0 -1.5001 -286.186 189.648)"><path d="M190.778 108.164h27.54l-.001-.218h-27.539Z" style="fill:#000;fill-opacity:1;fill-rule:nonzero;stroke:none"/><path d="M0 0c-7.634 0-13.822 6.188-13.822 13.822v19.641h27.643V13.822C13.821 6.188 7.633 0 0 0m0 .218c-7.513 0-13.604 6.091-13.604 13.604v19.423h27.208V13.822C13.604 6.309 7.513.218 0 .218" style="fill:#000;fill-opacity:1;fill-rule:evenodd;stroke:none" transform="translate(204.6 92.96)"/><path d="M0 0c.284.131.43.197.713.301.047.017.081.038.12.042.322.036.49.045.804.056.211.008.322.006.541.006.07 0 .119.002.175-.04.187-.141.32-.256.524-.422s.319-.259.521-.426a1 1 0 0 0-.09-.301 1 1 0 0 0-.195-.292c.132.1.207.215.3.38.053.095.073.15.113.257.017.044.045.068.113.045.435-.145.838-.287 1.396-.334.096-.008.139-.017.246-.014a.3.3 0 0 0 .145-.028c.251-.114.397-.183.634-.328.272-.168.526-.303.77-.57.215-.235.355-.341.632-.475.194-.093.283-.088.524-.17.041-.014.053-.028.068-.088.076-.297.105-.475.172-.779l.171-.77c.174-.2.291-.301.514-.445.18-.115.29-.17.49-.243.085-.476.114-.749.131-1.232.011-.301.01-.472-.005-.773-.032-.121-.073-.178-.191-.258a.5.5 0 0 0-.248-.062H7.419a.34.34 0 0 0-.12.375c.035.133.104.214.242.255.141.043.272.047.431.047 0 .13-.025.314-.08.419-.037.072-.083.098-.15.144-.365.25-.552.394-.844.629-.178.143-.249.223-.399.376l-.029.131-.016.076a.7.7 0 0 1 .079.145.7.7 0 0 1 .059.22 1 1 0 0 0-.107-.254 1 1 0 0 0-.059-.091c.065-.265.093-.417.127-.688.027-.218.036-.342.042-.561-.141-.269-.254-.433-.442-.725a3.3 3.3 0 0 0-.351-.436c-.067-.072-.17-.062-.266-.062H3.843c-.092.075-.14.155-.14.27 0 .185.105.352.335.414.1.028.235.034.343.021.017.091.024.143.03.235.008.096 0 .133.007.246a.16.16 0 0 1-.039.119c-.114.148-.241.289-.338.505a1.6 1.6 0 0 0-.093.254c-.277.033-.433.054-.709.097-.237.036-.371.058-.608.102-.199.155-.402.277-.575.325-.031.009-.062.009-.102.011a1 1 0 0 0-.076.165 2 2 0 0 0-.077.365c.006-.261.057-.444.13-.652.078-.222.091-.28.173-.551a.3.3 0 0 0 0-.162 8 8 0 0 0-.203-.79c-.098-.323-.171-.567-.29-.815-.033-.07-.088-.159-.161-.159H-.345a.54.54 0 0 0-.094.323.4.4 0 0 0 .105.238c.06.059.26.2.561.246-.003.329-.013.482-.017.79-.004.32-.004.501 0 .821-.094.129-.109.176-.156.298a1.3 1.3 0 0 0-.088.34 1 1 0 0 1 .025-.3c.031-.136.08-.227.134-.33a5.3 5.3 0 0 0-.674-.54 5 5 0 0 0-.629-.382c-.017-.118-.02-.153-.062-.224-.059-.098-.168-.167-.241-.167H-2.95c-.102 0-.227.368-.115.488.233.251.36.396.566.668.163.215.267.373.393.568.109.169.349.24.589.363.212.109.336.162.562.24 0 0 .031.19-.022.19a1.5 1.5 0 0 0-.34.014 3 3 0 0 0-.511.145c-.195.07-.303.117-.487.213a5 5 0 0 0-.768.07s-.069.23.008.24c.051.006.079.01.13.02.057.011.148-.014.145.033a9 9 0 0 0-.303-.012l-.236-.005c-.033 0-.121.093-.215.188-.1.104-.212.19-.215.239-.004.053.004.249.004.249-.037.051-.003.119.053.112.101.025.267.061.267.061.126.116.223.198.354.304a5 5 0 0 0 .389.281c.056.248.065.436.22.469.216.047.438.085.784.093.043.133.089.219.208.292.152.093.388.095.541.09.137-.161.253-.349.288-.614.023-.168-.013-.285-.059-.43.036.054.06.085.077.147.077.285-.032.646-.104.862-.009.026.368.097.747.272" style="fill:#000;fill-opacity:1;fill-rule:nonzero;stroke:none" transform="translate(201.773 106.893)"/><path d="M0 0c-.003-.076.026-.161.108-.163.032-.001.036.011.051.028.023.024.01.051.022.082.021.057.051.069.08.134C.273.106.25.14.222.141a1 1 0 0 0-.103.011C.053.163.004.075 0 0" style="fill:#fff;fill-opacity:1;fill-rule:nonzero;stroke:none" transform="translate(209.263 100.293)"/><path d="M0 0c-.004-.076.025-.161.108-.163.032-.001.036.011.051.028.022.024.009.051.022.082.021.057.051.069.08.134C.273.106.25.14.222.141A1 1 0 0 0 .12.152C.053.163.003.075 0 0" style="fill:#fff;fill-opacity:1;fill-rule:nonzero;stroke:none" transform="translate(209.53 100.293)"/><path d="M0 0c-.003-.076.026-.161.108-.163.032-.001.036.011.052.028.022.024.009.051.021.082.021.057.051.069.08.134C.273.106.25.14.222.141A1 1 0 0 0 .12.152C.053.163.004.075 0 0" style="fill:#fff;fill-opacity:1;fill-rule:nonzero;stroke:none" transform="translate(205.695 100.293)"/><path d="M0 0c-.004-.076.026-.161.108-.163.032-.001.036.011.05.028.023.024.011.051.023.082.021.057.051.069.08.134C.273.106.25.14.222.141A1 1 0 0 0 .12.152C.053.163.004.075 0 0" style="fill:#fff;fill-opacity:1;fill-rule:nonzero;stroke:none" transform="translate(205.96 100.293)"/><path d="M0 0c-.004-.076.026-.161.108-.163.032-.001.036.011.051.028.023.024.01.051.022.082.021.057.051.069.08.134C.273.106.25.14.222.141A1 1 0 0 0 .12.152C.053.163.004.075 0 0" style="fill:#fff;fill-opacity:1;fill-rule:nonzero;stroke:none" transform="translate(201.523 100.293)"/><path d="M0 0c-.004-.076.025-.161.108-.163.032-.001.036.011.051.028.023.024.009.051.022.082.021.057.051.069.08.134C.273.106.25.14.222.141a1 1 0 0 0-.103.011C.053.163.004.075 0 0" style="fill:#fff;fill-opacity:1;fill-rule:nonzero;stroke:none" transform="translate(201.788 100.293)"/><path d="M0 0c-.004-.076.025-.161.108-.163.032-.001.036.011.051.028.022.024.009.051.022.082.021.057.05.069.08.134C.273.106.25.14.222.141a1 1 0 0 0-.103.011C.052.163.003.075 0 0" style="fill:#fff;fill-opacity:1;fill-rule:nonzero;stroke:none" transform="translate(198.867 101.347)"/><path d="M0 0c-.004-.076.026-.161.108-.163.032-.001.036.011.051.028.022.024.01.051.022.082.021.057.051.069.08.134C.273.106.25.14.222.141A1 1 0 0 0 .12.152C.053.163.004.075 0 0" style="fill:#fff;fill-opacity:1;fill-rule:nonzero;stroke:none" transform="translate(199.132 101.347)"/><path d="M0 0a.3.3 0 0 0 .034.102c.019.04.033.061.062.094 0 0-.065-.002-.104.01A.12.12 0 0 1-.055.118C-.059.067-.049.016 0 0" style="fill:#fff;fill-opacity:1;fill-rule:evenodd;stroke:none" transform="translate(198.97 101.24)"/><path d="M0 0a.4.4 0 0 0 .096.196S.031.194-.008.206A.12.12 0 0 1-.055.118C-.06.067-.049.016 0 0" style="fill:#fff;fill-opacity:1;fill-rule:evenodd;stroke:none" transform="translate(199.236 101.24)"/><path d="M0 0a.3.3 0 0 0 .034.102c.019.04.033.061.062.094 0 0-.064-.002-.104.01A.12.12 0 0 1-.055.118C-.06.067-.049.016 0 0" style="fill:#fff;fill-opacity:1;fill-rule:evenodd;stroke:none" transform="translate(201.627 100.185)"/><path d="M0 0a.4.4 0 0 0 .096.196S.032.194-.008.206A.12.12 0 0 1-.055.118C-.06.067-.049.016 0 0" style="fill:#fff;fill-opacity:1;fill-rule:evenodd;stroke:none" transform="translate(201.892 100.185)"/><path d="M0 0a.3.3 0 0 0 .034.102c.019.04.033.061.062.094 0 0-.064-.002-.104.01A.12.12 0 0 1-.055.118C-.059.067-.049.016 0 0" style="fill:#fff;fill-opacity:1;fill-rule:evenodd;stroke:none" transform="translate(205.8 100.185)"/><path d="M0 0a.3.3 0 0 0 .034.102c.018.04.033.061.062.094 0 0-.064-.002-.104.01A.12.12 0 0 1-.055.118C-.06.067-.049.016 0 0" style="fill:#fff;fill-opacity:1;fill-rule:evenodd;stroke:none" transform="translate(206.065 100.185)"/><path d="M0 0a.3.3 0 0 0 .034.102c.019.04.032.061.062.094 0 0-.064-.002-.104.01A.12.12 0 0 1-.055.118C-.059.067-.05.016 0 0" style="fill:#fff;fill-opacity:1;fill-rule:evenodd;stroke:none" transform="translate(209.368 100.185)"/><path d="M0 0a.3.3 0 0 0 .034.102c.019.04.033.061.062.094 0 0-.065-.002-.103.01A.12.12 0 0 1-.055.118C-.059.067-.049.016 0 0" style="fill:#fff;fill-opacity:1;fill-rule:evenodd;stroke:none" transform="translate(209.633 100.185)"/><path d="M0 0a.33.33 0 0 1-.051-.228.34.34 0 0 1 .157-.271l-.001.096a.4.4 0 0 1 .182.026.5.5 0 0 0-.157.127A.5.5 0 0 0 0 0" style="fill:#fff;fill-opacity:1;fill-rule:nonzero;stroke:none" transform="translate(199.577 105.745)"/><path d="M0 0a.3.3 0 0 1 .053-.102.3.3 0 0 1 .106-.097.2.2 0 0 0-.067-.003.2.2 0 0 0-.058.011.2.2 0 0 0-.022.055A.3.3 0 0 0 0 0" style="fill:#fff;fill-opacity:1;fill-rule:nonzero;stroke:none" transform="translate(199.584 105.596)"/></g><path d="M18.425 231.834v.18l38.93 26.345.554.375h.266l-.736-.498z" style="color:#000;fill:#fff;-inkscape-stroke:none;paint-order:fill markers stroke" transform="translate(-18.096 -231.343)"/><path d="m18.303 231.629-.057.084 40.217 27.215.055-.084z" style="color:#000;fill:#000;-inkscape-stroke:none;paint-order:fill markers stroke" transform="translate(-18.096 -231.343)"/><path d="M18.425 232.697v.182l36.778 24.887 1.43.968h.267l-1.613-1.091z" style="color:#000;fill:#fff;-inkscape-stroke:none;paint-order:fill markers stroke" transform="translate(-18.096 -231.343)"/><path d="m18.29 232.848 36.637 24.793 1.85 1.252" style="fill:none;stroke:#000;stroke-width:.1;stroke-linejoin:miter;stroke-dasharray:none;stroke-opacity:1;paint-order:fill markers stroke" transform="translate(-18.096 -231.343)"/><path d="M18.425 233.496v.524l.493 1.203 2.703.023 1.026 2.5 2.702.024 1.026 2.5 2.701.02 1.028 2.503 2.7.022 1.026 2.5 2.703.023 1.025 2.5 2.704.024 1.025 2.5 2.703.023 1.026 2.5 2.703.021 1.025 2.5 2.701.024 1.026 2.5 2.703.023.32.78h.217l-.402-.979-2.703-.023-1.026-2.5-2.701-.022-1.028-2.502-2.7-.021-1.026-2.5-2.703-.024-1.025-2.5-2.704-.023-1.025-2.5-2.703-.022-1.025-2.502-2.702-.021-1.027-2.5-2.701-.024-1.026-2.5-2.703-.023-1.025-2.5-2.703-.022z" style="color:#000;opacity:.988976;fill:#fff;-inkscape-stroke:none;paint-order:fill markers stroke" transform="translate(-18.096 -231.343)"/><path d="m19.712 235.616.633 1.516 1.643.024-.633-1.516z" style="opacity:.988976;fill:none;stroke:#000;stroke-width:.2;stroke-linejoin:miter;stroke-dasharray:none;stroke-opacity:1;paint-order:fill markers stroke" transform="translate(-18.096 -231.343)"/><path d="m18.268 235.102.718.022 1.025 2.5 2.703.023 1.025 2.5 2.703.023 1.026 2.5 2.702.023 1.026 2.5 2.702.023 1.026 2.5 2.702.023 1.026 2.5 2.702.023 1.026 2.5 2.703.023 1.025 2.5 2.703.023 1.025 2.5 2.703.023.185.45.25.611" style="opacity:.988976;fill:none;stroke:#000;stroke-width:.2;stroke-linejoin:miter;stroke-dasharray:none;stroke-opacity:1;paint-order:fill markers stroke" transform="translate(-18.096 -231.343)"/><path d="M19.711 235.615h.001l.3.204 1.21.018.464 1.115.302.204h.001l-.633-1.516z" style="color:#000;opacity:.988976;fill:#f6f5f4;-inkscape-stroke:none;paint-order:fill markers stroke" transform="translate(-18.096 -231.343)"/><path d="M18.425 236.612v.182l32.421 21.94h.269z" style="color:#000;fill:#fff;-inkscape-stroke:none;paint-order:fill markers stroke" transform="translate(-18.096 -231.343)"/><path d="m23.44 238.138.633 1.516 1.643.025-.633-1.516zm3.728 2.523.633 1.516 1.643.024-.633-1.516zm3.728 2.523.633 1.516 1.643.024-.633-1.516zm3.728 2.523.633 1.516 1.643.024-.633-1.516zm3.728 2.523.634 1.516 1.642.024-.633-1.516zm3.728 2.523.634 1.516 1.642.024-.633-1.516zm3.729 2.523.633 1.516 1.643.024-.634-1.516Zm3.728 2.523.633 1.516 1.643.024-.633-1.516zm3.728 2.523.242.579 1.647.035-.023-.055-.223-.535z" style="opacity:.988976;fill:none;stroke:#000;stroke-width:.2;stroke-linejoin:miter;stroke-dasharray:none;stroke-opacity:1;paint-order:fill markers stroke" transform="translate(-18.096 -231.343)"/><path d="m53.264 258.321.302.204 1.209.018.08.19h.216l-.162-.387zm-3.728-2.523.301.204 1.21.018.464 1.115.301.204h.002l-.633-1.516zm-3.728-2.523.301.204 1.21.018.464 1.115.301.204h.002l-.634-1.516Zm-3.728-2.523.301.204 1.21.018.464 1.115.3.204h.003l-.634-1.516zm-3.729-2.522.301.204 1.21.017.463 1.115.302.204h.001l-.633-1.516zm-3.728-2.524.001.001.301.204 1.21.017.463 1.115.302.204h.001l-.633-1.516zm-3.728-2.522.3.204 1.21.017.464 1.115.302.204.001.001-.633-1.517zm-3.728-2.524v.001l.302.204 1.209.018.464 1.114.301.204.002.001-.633-1.517zm-3.728-2.522.302.204 1.209.018.464 1.114.301.204.002.001-.633-1.517z" style="color:#000;opacity:.988976;fill:#f6f5f4;-inkscape-stroke:none;paint-order:fill markers stroke" transform="translate(-18.096 -231.343)"/><path d="m18.238 236.425 33.161 22.44" style="fill:none;stroke:#000;stroke-width:.1;stroke-linejoin:miter;stroke-dasharray:none;stroke-opacity:1;paint-order:fill markers stroke" transform="translate(-18.096 -231.343)"/><path d="M20.782 231.67c.023.387.124.758.299 1.087l.077-.044v-.001a2.5 2.5 0 0 1-.3-1.041zm3.572 2.151-.046.17c.05.443.157.844.355 1.2l.066-.037v-.003c-.231-.388-.348-.832-.375-1.327zm4.31 1.829-.223.452a2.76 2.76 0 0 0 .255 1.79l.075-.043v-.006a2.55 2.55 0 0 1-.106-2.194zm3.304 3.308-.046.17v.002c.05.442.158.842.356 1.198l.065-.037-.002-.005c-.23-.387-.345-.83-.372-1.325zm4.31 1.828v.002l-.223.45-.001.003.002-.002a2.76 2.76 0 0 0 .254 1.789l.075-.043v-.006a2.56 2.56 0 0 1-.106-2.191zm3.304 3.308-.045.17c.05.443.157.843.355 1.2l.065-.037-.002-.008c-.228-.386-.344-.827-.371-1.32zm4.31 1.829-.003.003-.22.447-.001.004.003-.002a2.76 2.76 0 0 0 .254 1.788l.074-.043v-.005a2.55 2.55 0 0 1-.106-2.188zm3.304 3.308-.045.17h.001c.05.442.157.843.355 1.199l.064-.037-.002-.008c-.228-.384-.343-.824-.37-1.316zm4.31 1.826-.224.451v.001a2.76 2.76 0 0 0 .256 1.79l.075-.044v-.008a2.56 2.56 0 0 1-.107-2.19m3.305 3.31-.046.17c.05.442.158.843.356 1.199l.064-.036-.002-.008c-.227-.385-.342-.824-.37-1.315zm4.309 1.825-.224.452a2.75 2.75 0 0 0 .258 1.79l.073-.043v-.01a2.55 2.55 0 0 1-.107-2.189" style="opacity:.988976;fill:#fff;stroke:none;stroke-width:.1;stroke-linejoin:miter;stroke-dasharray:none;stroke-opacity:1;paint-order:fill markers stroke" transform="translate(-18.096 -231.343)"/></g></svg>